SplineFontDB: 3.0
FontName: Oswald-Heavy
FullName: Oswald Heavy
FamilyName: Oswald
Weight: Heavy
Copyright: Copyright (c) 2010-13 by Vernon Adams
Version: 3
ItalicAngle: 0
UnderlinePosition: -230
UnderlineWidth: 120
Ascent: 1658
Descent: 390
UFOAscent: 1658
UFODescent: -390
LayerCount: 2
Layer: 0 0 "Back"  1
Layer: 1 0 "Fore"  0
FSType: 0
OS2Version: 0
OS2_WeightWidthSlopeOnly: 0
OS2_UseTypoMetrics: 1
CreationTime: 1372385310
ModificationTime: 1372779245
PfmFamily: 33
TTFWeight: 800
TTFWidth: 5
LineGap: 0
VLineGap: 0
OS2TypoAscent: 2233
OS2TypoAOffset: 0
OS2TypoDescent: -548
OS2TypoDOffset: 0
OS2TypoLinegap: 0
OS2WinAscent: 2233
OS2WinAOffset: 0
OS2WinDescent: 548
OS2WinDOffset: 0
HheadAscent: 2233
HheadAOffset: 0
HheadDescent: -548
HheadDOffset: 0
OS2Vendor: 'newt'
Lookup: 258 0 0 "'kern' Horizontal Kerning in Cyrillic lookup 0"  {"'kern' Horizontal Kerning in Cyrillic lookup 0 subtable"  "'kern' Horizontal Kerning lookup 2 kerning class 1"  } ['kern' ('DFLT' <'dflt' > 'cyrl' <'dflt' > 'latn' <'dflt' > ) ]
Lookup: 260 0 0 "markMarkPositioninglookup2"  {"markMarkPositioninglookup2 subtable"  } ['mark' ('latn' <'dflt' > 'grek' <'dflt' > 'cyrl' <'dflt' > 'DFLT' <'dflt' > ) ]
MarkAttachClasses: 1
DEI: 91125
KernClass2: 44 58 "'kern' Horizontal Kerning lookup 2 kerning class 1" 
 89 A Aacute Abreve Acircumflex Adieresis Agrave Amacron Aogonek Aring Atilde uni0200 uni0202
 9 B uni1E02
 16 D Dcaron uni1E0A
 94 E Eacute Ebreve Ecaron Ecircumflex Edieresis Edotaccent Egrave Emacron Eogonek uni0204 uni0206
 9 F uni1E1E
 52 G Gbreve Gcircumflex Gcommaaccent Gdotaccent uni01F4
 14 K Kcommaaccent
 28 L Lacute Lcaron Lcommaaccent
 9 P uni1E56
 44 R Racute Rcaron Rcommaaccent uni0210 uni0212
 37 T Tcaron Tcommaaccent uni021A uni1E6A
 1 V
 37 W Wacute Wcircumflex Wdieresis Wgrave
 37 Y Yacute Ycircumflex Ydieresis Ygrave
 89 a aacute abreve acircumflex adieresis agrave amacron aogonek aring atilde uni0201 uni0203
 9 afii10017
 9 afii10018
 19 afii10020 afii10052

StartChar: A
Encoding: 65 65 0
Width: 1164
VWidth: 0
Flags: W
HStem: 0 21G<46 432.021 742.858 1117> 331 234<511 660> 1638 20G<343.369 822.595>
AnchorPoint: "ogonek" 897 0 basechar 0
LayerCount: 2
UndoRedoHistory
Layer: 1
Undoes
EndUndoes
Redoes
EndRedoes
EndUndoRedoHistory
Fore
SplineSet
46 0 m 1
 347 1658 l 1
 819 1658 l 1
 1117 0 l 1
 746 0 l 1
 694 331 l 1
 479 331 l 1
 429 0 l 1
 46 0 l 1
511 565 m 1
 660 565 l 1
 585 1184 l 1
 511 565 l 1
EndSplineSet
EndChar

StartChar: AE
Encoding: 198 198 1
Width: 1502
VWidth: 0
Flags: W
HStem: 0 271<1133 1461> 325 248<615 792> 715 282<1133 1364> 1354 273<1133 1461>
VStem: 792 341<271 325 573 715 997 1050>
LayerCount: 2
UndoRedoHistory
Layer: 1
Undoes
EndUndoes
Redoes
EndRedoes
EndUndoRedoHistory
Fore
SplineSet
-5 0 m 1
 724 1627 l 1
 1461 1627 l 1
 1461 1354 l 1
 1133 1354 l 1
 1133 997 l 1
 1364 997 l 1
 1364 715 l 1
 1133 715 l 1
 1133 271 l 1
 1461 271 l 1
 1461 0 l 1
 792 0 l 1
 792 325 l 1
 536 325 l 1
 406 0 l 1
 -5 0 l 1
615 573 m 1
 792 573 l 1
 792 1050 l 1
 615 573 l 1
EndSplineSet
Colour: ffff00
EndChar

StartChar: B
Encoding: 66 66 11
Width: 1244
VWidth: 0
Flags: W
HStem: 0 283<526 724.914> 744 259<526 719.653> 1391 267<526 711.274>
VStem: 120 406<283 744 1003 1391> 766 354<1049.26 1334.1> 783 391<345.189 689.183>
LayerCount: 2
UndoRedoHistory
Layer: 1
Undoes
EndUndoes
Redoes
EndRedoes
EndUndoRedoHistory
Fore
SplineSet
120 0 m 1xf4
 120 1658 l 1
 569 1658 l 2
 847 1658 1130 1612 1120 1218 c 1xf8
 1116 1019 1023 920 877 890 c 1
 1066 873 1170 732 1174 498 c 0
 1180 138 976 0 651 0 c 2
 120 0 l 1xf4
526 283 m 1
 581 283 l 2
 732 283 783 361 783 505 c 0xf4
 783 684 733 744 583 744 c 2
 526 744 l 1
 526 283 l 1
526 1003 m 1
 580 1003 l 2
 737 1003 766 1084 766 1207 c 0xf8
 766 1309 701 1391 593 1391 c 2
 526 1391 l 1
 526 1003 l 1
EndSplineSet
EndChar

StartChar: C
Encoding: 67 67 12
Width: 1181
VWidth: 0
Flags: W
HStem: -26 281<538.874 686.544> 1403 281<538.459 686.462>
VStem: 100 413<272.568 1386.45> 709 399<270.156 611 1056 1385.36>
AnchorPoint: "cedilla" 570 0 basechar 0
LayerCount: 2
UndoRedoHistory
Layer: 1
Undoes
EndUndoes
Redoes
EndRedoes
EndUndoRedoHistory
Fore
SplineSet
613 -26 m 0
 227 -26 100 184 100 529 c 2
 100 1128 l 2
 100 1475 227 1684 613 1684 c 0
 997 1684 1108 1481 1108 1205 c 2
 1108 1056 l 1
 709 1056 l 1
 709 1238 l 2
 709 1309 707 1403 613 1403 c 0
 519 1403 513 1309 513 1237 c 2
 513 421 l 2
 513 348 521 255 613 255 c 0
 707 255 709 350 709 421 c 2
 709 611 l 1
 1108 611 l 1
 1108 463 l 2
 1108 187 998 -26 613 -26 c 0
EndSplineSet
EndChar

StartChar: D
Encoding: 68 68 18
Width: 1234
VWidth: 0
Flags: W
HStem: 0 280<526 694.808> 1378 280<526 694.101>
VStem: 120 406<280 1378> 717 417<300.936 1358.07>
LayerCount: 2
UndoRedoHistory
Layer: 1
Undoes
EndUndoes
Redoes
EndRedoes
EndUndoRedoHistory
Fore
SplineSet
526 280 m 1
 564 280 l 2
 703 280 717 327 717 442 c 2
 717 1220 l 2
 717 1334 703 1378 564 1378 c 2
 526 1378 l 1
 526 280 l 1
120 0 m 1
 120 1658 l 1
 557 1658 l 2
 1010 1658 1134 1508 1134 1129 c 2
 1134 531 l 2
 1134 151 1010 0 558 0 c 2
 120 0 l 1
EndSplineSet
EndChar

StartChar: Dcroat
Encoding: 264 272 20
Width: 1244
VWidth: 0
Flags: W
HStem: 0 280<525 705.548> 757 179<24 131 525 619> 1378 280<525 705.101>
VStem: 131 394<280 757 936 1378> 737 408<300.936 1358.07>
LayerCount: 2
UndoRedoHistory
Layer: 1
Undoes
EndUndoes
Redoes
EndRedoes
EndUndoRedoHistory
Fore
SplineSet
525 280 m 1
 584 280 l 2
 724 280 737 327 737 442 c 2
 737 1220 l 2
 737 1334 723 1378 584 1378 c 2
 525 1378 l 1
 525 936 l 1
 619 936 l 1
 619 757 l 1
 525 757 l 1
 525 280 l 1
131 0 m 1
 131 757 l 1
 24 757 l 1
 24 936 l 1
 131 936 l 1
 131 1658 l 1
 568 1658 l 2
 1021 1658 1145 1508 1145 1129 c 2
 1145 531 l 2
 1145 151 1020 0 569 0 c 2
 131 0 l 1
EndSplineSet
EndChar

StartChar: E
Encoding: 69 69 21
Width: 941
VWidth: 0
Flags: W
HStem: 0 271<526 900> 734 282<526 802> 1386 272<526 896>
VStem: 120 776<0 271 1386 1658> 120 406<271 734 1016 1386>
AnchorPoint: "ogonek" 615 0 basechar 0
LayerCount: 2
UndoRedoHistory
Layer: 1
Undoes
EndUndoes
Redoes
EndRedoes
EndUndoRedoHistory
Fore
SplineSet
120 0 m 1xf0
 120 1658 l 1
 896 1658 l 1
 896 1386 l 1xf0
 526 1386 l 1
 526 1016 l 1
 802 1016 l 1
 802 734 l 1
 526 734 l 1
 526 271 l 1xe8
 900 271 l 1
 900 0 l 1
 120 0 l 1xf0
EndSplineSet
EndChar

StartChar: Eng
Encoding: 269 330 30
Width: 1186
VWidth: 0
Flags: W
HStem: -442 235<489 691.109> 0 21G<130 478> 1638 20G<130 426.535 721 1056>
VStem: 130 348<0 780> 721 335<948 1658> 741 315<-159.52 177>
LayerCount: 2
UndoRedoHistory
Layer: 1
Undoes
EndUndoes
Redoes
EndRedoes
EndUndoRedoHistory
Fore
SplineSet
489 -442 m 1xf4
 489 -207 l 1
 666 -210 741 -167 741 -45 c 2
 741 177 l 1xf4
 478 780 l 1
 478 0 l 1
 130 0 l 1
 130 1658 l 1
 418 1658 l 1
 721 948 l 1
 721 1658 l 1
 1056 1658 l 1xf8
 1056 0 l 2
 1056 -290 980 -442 662 -442 c 2
 489 -442 l 1xf4
EndSplineSet
Colour: ffff00
EndChar

StartChar: Eth
Encoding: 208 208 32
Width: 1179
VWidth: 0
Flags: W
HStem: 0 280<505 673.808> 748 197<11 99 505 577> 1378 280<505 673.101>
VStem: 99 406<280 748 945 1378> 696 417<300.936 1345.67>
LayerCount: 2
UndoRedoHistory
Layer: 1
Undoes
EndUndoes
Redoes
EndRedoes
EndUndoRedoHistory
Fore
SplineSet
505 280 m 1
 543 280 l 2
 682 280 696 327 696 442 c 2
 696 1220 l 2
 696 1334 681 1378 542 1378 c 2
 505 1378 l 1
 505 945 l 1
 577 945 l 1
 577 748 l 1
 505 748 l 1
 505 280 l 1
99 0 m 1
 99 748 l 1
 11 748 l 1
 11 945 l 1
 99 945 l 1
 99 1658 l 1
 536 1658 l 2
 989 1658 1113 1508 1113 1129 c 2
 1113 531 l 2
 1113 151 989 0 537 0 c 2
 99 0 l 1
EndSplineSet
Colour: ffff00
EndChar

StartChar: Euro
Encoding: 271 8364 33
Width: 1184
VWidth: 0
Flags: W
HStem: -26 281<563.874 711.544> 655 115<26 125 538 753> 868 114<26 125 538 753> 1403 281<563.459 711.462>
VStem: 125 413<272.568 655 770 868 982 1386.45> 734 399<270.156 510 1099 1385.36>
CounterMasks: 1 f0
LayerCount: 2
UndoRedoHistory
Layer: 1
Undoes
EndUndoes
Redoes
EndRedoes
EndUndoRedoHistory
Fore
SplineSet
638 -26 m 0
 252 -26 125 184 125 529 c 2
 125 655 l 1
 26 655 l 1
 26 770 l 1
 125 770 l 1
 125 868 l 1
 26 868 l 1
 26 982 l 1
 125 982 l 1
 125 1128 l 2
 125 1475 252 1684 638 1684 c 0
 1022 1684 1133 1481 1133 1205 c 2
 1133 1099 l 1
 734 1099 l 1
 734 1238 l 2
 734 1309 732 1403 638 1403 c 0
 544 1403 538 1309 538 1237 c 2
 538 982 l 1
 753 982 l 1
 753 868 l 1
 538 868 l 1
 538 770 l 1
 753 770 l 1
 753 655 l 1
 538 655 l 1
 538 421 l 2
 538 348 546 255 638 255 c 0
 732 255 734 350 734 421 c 2
 734 510 l 1
 1133 510 l 1
 1133 463 l 2
 1133 187 1023 -26 638 -26 c 0
EndSplineSet
EndChar

StartChar: F
Encoding: 70 70 34
Width: 915
VWidth: 0
Flags: W
HStem: 0 21G<120 526> 725 282<526 828> 1386 272<526 861>
VStem: 120 406<0 725 1007 1386>
LayerCount: 2
UndoRedoHistory
Layer: 1
Undoes
EndUndoes
Redoes
EndRedoes
EndUndoRedoHistory
Fore
SplineSet
120 0 m 1
 120 1658 l 1
 861 1658 l 1
 861 1386 l 1
 526 1386 l 1
 526 1007 l 1
 828 1007 l 1
 828 725 l 1
 526 725 l 1
 526 0 l 1
 120 0 l 1
EndSplineSet
EndChar

StartChar: G
Encoding: 71 71 35
Width: 1219
VWidth: 0
Flags: W
HStem: -26 282<546.524 715.679> 0 21G<839.694 1114> 640 233<616 749> 1403 281<541.546 689.99>
VStem: 100 417<292.485 1383.38> 715 399<1079 1379.74> 749 365<287.377 640>
LayerCount: 2
UndoRedoHistory
Layer: 1
Undoes
EndUndoes
Redoes
EndRedoes
EndUndoRedoHistory
Fore
SplineSet
564 -26 m 0xba
 211 -26 100 214 100 550 c 2
 100 1108 l 2
 100 1456 228 1684 614 1684 c 0
 998 1684 1114 1475 1114 1198 c 2
 1114 1079 l 1
 715 1079 l 1
 715 1238 l 2
 715 1310 713 1403 619 1403 c 0
 525 1403 517 1308 517 1236 c 2
 517 423 l 2
 517 350 537 256 630 256 c 0xbc
 723 256 749 351 749 424 c 2
 749 640 l 1
 616 640 l 1
 616 873 l 1
 1114 873 l 1
 1114 0 l 1
 843 0 l 1x7a
 823 121 l 1
 781 37 705 -26 564 -26 c 0xba
EndSplineSet
EndChar

StartChar: H
Encoding: 72 72 40
Width: 1278
VWidth: 0
Flags: W
HStem: 0 21G<130 535 742 1148> 711 291<535 742> 1638 20G<130 535 742 1148>
VStem: 130 405<0 711 1002 1658> 742 406<0 711 1002 1658>
LayerCount: 2
UndoRedoHistory
Layer: 1
Undoes
EndUndoes
Redoes
EndRedoes
EndUndoRedoHistory
Fore
SplineSet
130 0 m 1
 130 1658 l 1
 535 1658 l 1
 535 1002 l 1
 742 1002 l 1
 742 1658 l 1
 1148 1658 l 1
 1148 0 l 1
 742 0 l 1
 742 711 l 1
 535 711 l 1
 535 0 l 1
 130 0 l 1
EndSplineSet
EndChar

StartChar: Hbar
Encoding: 276 294 41
Width: 1094
VWidth: 0
Flags: W
HStem: 0 21G<63 468 656 1062> 711 291<468 656> 1257 113<-43 63 468 656 1062 1137> 1638 20G<63 468 656 1062>
VStem: 63 405<0 711 1002 1257 1370 1658> 656 406<0 711 1002 1257 1370 1658>
LayerCount: 2
UndoRedoHistory
Layer: 1
Undoes
EndUndoes
Redoes
EndRedoes
EndUndoRedoHistory
Fore
SplineSet
63 0 m 1
 63 1257 l 1
 -43 1257 l 1
 -43 1370 l 1
 63 1370 l 1
 63 1658 l 1
 468 1658 l 1
 468 1370 l 1
 656 1370 l 1
 656 1658 l 1
 1062 1658 l 1
 1062 1370 l 1
 1137 1370 l 1
 1137 1257 l 1
 1062 1257 l 1
 1062 0 l 1
 656 0 l 1
 656 711 l 1
 468 711 l 1
 468 0 l 1
 63 0 l 1
468 1002 m 1
 656 1002 l 1
 656 1257 l 1
 468 1257 l 1
 468 1002 l 1
EndSplineSet
EndChar

StartChar: I
Encoding: 73 73 43
Width: 647
VWidth: 0
Flags: W
HStem: 0 21G<121 526> 1638 20G<121 526>
VStem: 121 405<0 1658>
AnchorPoint: "ogonek" 325 0 basechar 0
LayerCount: 2
UndoRedoHistory
Layer: 1
Undoes
EndUndoes
Redoes
EndRedoes
EndUndoRedoHistory
Fore
SplineSet
121 0 m 1
 121 1658 l 1
 526 1658 l 1
 526 0 l 1
 121 0 l 1
EndSplineSet
EndChar

StartChar: J
Encoding: 74 74 53
Width: 743
VWidth: 0
Flags: W
HStem: -43 281<30 193.428> 1638 20G<217 623>
VStem: 217 405<268.896 1658>
AnchorPoint: "circumflexcomb" 418 1758 basechar 0
LayerCount: 2
UndoRedoHistory
Layer: 1
Undoes
EndUndoes
Redoes
EndRedoes
EndUndoRedoHistory
Fore
SplineSet
30 -43 m 1
 30 238 l 1
 165 235 217 259 217 381 c 2
 217 1658 l 1
 623 1658 l 1
 622 363 l 1
 616 96 533 -43 228 -43 c 2
 30 -43 l 1
EndSplineSet
EndChar

StartChar: K
Encoding: 75 75 55
Width: 1205
VWidth: 0
Flags: W
HStem: 0 21G<120 526 756.983 1180> 1638 20G<120 526 769.229 1176>
VStem: 120 406<0 692 1012 1658>
LayerCount: 2
UndoRedoHistory
Layer: 1
Undoes
EndUndoes
Redoes
EndRedoes
EndUndoRedoHistory
Fore
SplineSet
120 0 m 1
 120 1658 l 1
 526 1658 l 1
 526 1012 l 1
 777 1658 l 1
 1176 1658 l 1
 875 905 l 1
 1180 0 l 1
 763 0 l 1
 547 718 l 1
 526 692 l 1
 526 0 l 1
 120 0 l 1
EndSplineSet
EndChar

StartChar: L
Encoding: 76 76 57
Width: 934
VWidth: 0
Flags: W
HStem: 0 271<526 895> 1638 20G<120 526>
VStem: 120 406<271 1658>
LayerCount: 2
UndoRedoHistory
Layer: 1
Undoes
EndUndoes
Redoes
EndRedoes
EndUndoRedoHistory
Fore
SplineSet
120 0 m 1
 120 1658 l 1
 526 1658 l 1
 526 271 l 1
 895 271 l 1
 895 0 l 1
 120 0 l 1
EndSplineSet
EndChar

StartChar: Lslash
Encoding: 289 321 62
Width: 954
VWidth: 0
Flags: W
HStem: 0 271<547 916> 1185 20G<701.484 745> 1638 20G<141 547>
VStem: 141 406<271 722 1114 1658>
LayerCount: 2
UndoRedoHistory
Layer: 1
Undoes
EndUndoes
Redoes
EndRedoes
EndUndoRedoHistory
Fore
SplineSet
141 0 m 1
 141 722 l 1
 24 669 l 1
 24 876 l 1
 141 930 l 1
 141 1658 l 1
 547 1658 l 1
 547 1114 l 1
 745 1205 l 1
 745 998 l 1
 547 907 l 1
 547 271 l 1
 916 271 l 1
 916 0 l 1
 141 0 l 1
EndSplineSet
EndChar

StartChar: M
Encoding: 77 77 63
Width: 1468
VWidth: 0
Flags: W
HStem: 0 21G<114 401.498 607.627 873.144 1070.4 1353> 1638 20G<140.674 586.54 898.061 1326.33>
VStem: 114 287<0 576.095> 141 287<777.663 1085> 1039 287<777.663 1075> 1071 282<0 481.6>
LayerCount: 2
UndoRedoHistory
Layer: 1
Undoes
EndUndoes
Redoes
EndRedoes
EndUndoRedoHistory
Fore
SplineSet
114 0 m 1xe0
 141 1658 l 1
 583 1658 l 1
 734 805 l 1
 902 1658 l 1
 1326 1658 l 1xd8
 1353 0 l 1
 1071 0 l 1xc4
 1039 1075 l 1
 870 0 l 1
 611 0 l 1
 428 1085 l 1xd8
 401 0 l 1
 114 0 l 1xe0
EndSplineSet
EndChar

StartChar: N
Encoding: 78 78 64
Width: 1167
VWidth: 0
Flags: W
HStem: 0 21G<120 468 761.282 1046> 1638 20G<120 416.535 711 1046>
VStem: 120 348<0 780> 711 335<948 1658>
LayerCount: 2
UndoRedoHistory
Layer: 1
Undoes
EndUndoes
Redoes
EndRedoes
EndUndoRedoHistory
Fore
SplineSet
120 0 m 1
 120 1658 l 1
 408 1658 l 1
 711 948 l 1
 711 1658 l 1
 1046 1658 l 1
 1046 0 l 1
 769 0 l 1
 468 780 l 1
 468 0 l 1
 120 0 l 1
EndSplineSet
EndChar

StartChar: O
Encoding: 79 79 69
Width: 1227
VWidth: 0
Flags: W
HStem: -26 281<538.564 685.856> 1403 281<538.564 685.856>
VStem: 100 417<278.675 1379.76> 710 417<278.675 1379.76>
AnchorPoint: "ogonek" 613 0 basechar 0
LayerCount: 2
UndoRedoHistory
Layer: 1
Undoes
EndUndoes
Redoes
EndRedoes
EndUndoRedoHistory
Fore
SplineSet
612 255 m 0
 705 255 710 350 710 420 c 2
 710 1239 l 2
 710 1310 705 1403 612 1403 c 0
 518 1403 517 1310 517 1239 c 2
 517 420 l 2
 517 350 518 255 612 255 c 0
612 -26 m 0
 227 -26 100 177 100 523 c 2
 100 1135 l 2
 100 1482 227 1684 612 1684 c 0
 997 1684 1127 1482 1127 1135 c 2
 1127 523 l 2
 1127 177 997 -26 612 -26 c 0
EndSplineSet
EndChar

StartChar: OE
Encoding: 293 338 70
Width: 1490
VWidth: 0
Flags: W
HStem: 0 276<539.838 706 1111 1438> 715 282<1111 1343> 1364 286<538.519 706> 1379 271<1111 1438>
VStem: 100 405<309.632 1334.86> 706 405<276 715 997 1364>
LayerCount: 2
UndoRedoHistory
Layer: 1
Undoes
EndUndoes
Redoes
EndRedoes
EndUndoRedoHistory
Fore
SplineSet
608 0 m 2xdc
 229 0 100 239 100 588 c 2
 100 1049 l 2
 100 1380 221 1649 608 1650 c 1xec
 1438 1650 l 1
 1438 1379 l 1
 1111 1379 l 1
 1111 997 l 1
 1343 997 l 1
 1343 715 l 1
 1111 715 l 1
 1111 271 l 1
 1438 271 l 1
 1438 0 l 1
 608 0 l 2xdc
609 276 m 1
 706 276 l 1
 706 1364 l 1
 608 1364 l 2
 511 1364 505 1226 505 1146 c 2
 505 489 l 2
 505 408 511 275 609 276 c 1
EndSplineSet
EndChar

StartChar: Oslash
Encoding: 216 216 78
Width: 1189
VWidth: 0
Flags: W
HStem: -26 281<536.812 685.856> 1403 281<542.804 686.745>
VStem: 100 417<274.482 535.38 766.001 1379.76> 710 417<278.675 1011.61 1242.57 1383.79>
LayerCount: 2
UndoRedoHistory
Layer: 1
Undoes
EndUndoes
Redoes
EndRedoes
EndUndoRedoHistory
Fore
SplineSet
221 -195 m 1
 142 -160 l 1
 242.089406324 87.1544413988 l 1
 139.724277002 180.709956363 100 329.490523019 100 523 c 2
 100 1135 l 2
 100 1482 227 1684 612 1684 c 0
 716.285603527 1684 801.861480548 1669.17896175 871.211913112 1640.66971786 c 1
 941 1813 l 1
 1021 1779 l 1
 948.081083684 1599.07257399 l 1
 1077.23041921 1508.8954336 1127 1349.70382916 1127 1135 c 2
 1127 523 l 2
 1127 177 997 -26 612 -26 c 0
 487.258398804 -26 389.601300923 -4.68932491158 314.57293343 35.8912132381 c 1
 221 -195 l 1
612 255 m 0
 705 255 710 350 710 420 c 2
 710 1011.6075 l 1
 517 535.38 l 1
 517 420 l 2
 517 350 518 255 612 255 c 0
517 766.001251564 m 1
 709.995438051 1242.57196405 l 1
 709.808638546 1313.07770646 703.448200089 1403 612 1403 c 0
 518 1403 517 1310 517 1239 c 2
 517 766.001251564 l 1
EndSplineSet
EndChar

StartChar: P
Encoding: 80 80 80
Width: 1223
VWidth: 0
Flags: W
HStem: 0 21G<120 526> 685 281<526 749.716> 1374 284<526 747.407>
VStem: 120 406<0 685 966 1374> 785 380<995.054 1343.31>
LayerCount: 2
UndoRedoHistory
Layer: 1
Undoes
EndUndoes
Redoes
EndRedoes
EndUndoRedoHistory
Fore
SplineSet
120 0 m 1
 120 1658 l 1
 720 1658 l 2
 1017 1658 1165 1484 1165 1171 c 0
 1165 753 932 685 663 685 c 2
 526 685 l 1
 526 0 l 1
 120 0 l 1
526 966 m 1
 655 966 l 2
 773 966 785 1044 785 1180 c 0
 785 1272 775 1374 651 1374 c 2
 526 1374 l 1
 526 966 l 1
EndSplineSet
EndChar

StartChar: Pi
Encoding: 297 928 81
Width: 1283
VWidth: 0
Flags: W
HStem: 0 21G<99 453 830 1184> 1367 291<453 830>
VStem: 99 354<0 1367> 830 354<0 1367>
LayerCount: 2
UndoRedoHistory
Layer: 1
Undoes
EndUndoes
Redoes
EndRedoes
EndUndoRedoHistory
Fore
SplineSet
99 0 m 1
 99 1658 l 1
 1184 1658 l 1
 1184 0 l 1
 830 0 l 1
 830 1367 l 1
 453 1367 l 1
 453 0 l 1
 99 0 l 1
EndSplineSet
EndChar

StartChar: Q
Encoding: 81 81 82
Width: 1227
VWidth: 0
Flags: W
HStem: -26 281<542.804 677.128> 1403 281<538.564 685.856>
VStem: 100 417<278.675 1379.76> 710 417<274.363 1379.76>
LayerCount: 2
UndoRedoHistory
Layer: 1
Undoes
EndUndoes
Redoes
EndRedoes
EndUndoRedoHistory
Fore
SplineSet
998 -323 m 1
 911 -289 734 -162 645 -25 c 1
 634 -25 623 -26 612 -26 c 0
 227 -26 100 177 100 523 c 2
 100 1135 l 2
 100 1482 227 1684 612 1684 c 0
 997 1684 1127 1482 1127 1135 c 2
 1127 523 l 2
 1127 292 1069 125 916 40 c 1
 968 -14 1029 -68 1086 -96 c 1
 998 -323 l 1
612 255 m 0
 705 255 710 350 710 420 c 2
 710 1239 l 2
 710 1310 705 1403 612 1403 c 0
 518 1403 517 1310 517 1239 c 2
 517 420 l 2
 517 350 518 255 612 255 c 0
EndSplineSet
EndChar

StartChar: R
Encoding: 82 82 83
Width: 1277
VWidth: 0
Flags: W
HStem: 0 21G<120 526 777.307 1207> 1390 268<526 762.166>
VStem: 120 406<0 733 956 1390> 809 375<1009.59 1343.64>
LayerCount: 2
UndoRedoHistory
Layer: 1
Undoes
EndUndoes
Redoes
EndRedoes
EndUndoRedoHistory
Fore
SplineSet
120 0 m 1
 120 1658 l 1
 615 1658 l 2
 948 1658 1184 1579 1184 1221 c 0
 1184 1014 1148 881 981 794 c 1
 1207 0 l 1
 782 0 l 1
 610 733 l 1
 526 733 l 1
 526 0 l 1
 120 0 l 1
526 956 m 1
 632 956 l 2
 775 956 809 1051 809 1177 c 0
 809 1305 770 1390 652 1390 c 2
 526 1390 l 1
 526 956 l 1
EndSplineSet
EndChar

StartChar: S
Encoding: 83 83 87
Width: 1077
VWidth: 0
Flags: W
HStem: -26 306<474.608 605.699> 1391 293<505.146 615.276>
VStem: 89 397<1125.59 1376.78> 89 344<330.461 512> 618 402<287.655 539.819>
AnchorPoint: "cedilla" 540 0 basechar 0
LayerCount: 2
UndoRedoHistory
Layer: 1
Undoes
EndUndoes
Redoes
EndRedoes
EndUndoRedoHistory
Fore
SplineSet
575 -26 m 0xe8
 254 -26 99 118 89 512 c 1
 433 557 l 1xd8
 434 331 485 280 550 280 c 0
 614 280 618 343 618 378 c 0
 618 515 551 595 435 694 c 2
 330 783 l 1
 201 894 89 1008 89 1235 c 0
 89 1525 276 1683 576 1684 c 1
 957 1684 986 1365 987 1200 c 1
 635 1165 l 1
 635 1308 633 1391 561 1391 c 1
 505 1390 486 1315 486 1275 c 0
 486 1134 580 1062 661 990 c 2
 757 905 l 1
 903 774 1020 632 1020 397 c 0
 1020 165 849 -26 575 -26 c 0xe8
EndSplineSet
EndChar

StartChar: T
Encoding: 84 84 93
Width: 943
VWidth: 0
Flags: W
HStem: 0 21G<269 675> 1358 300<27 269 675 916>
VStem: 269 406<0 1358>
AnchorPoint: "cedilla" 460 0 basechar 0
LayerCount: 2
UndoRedoHistory
Layer: 1
Undoes
EndUndoes
Redoes
EndRedoes
EndUndoRedoHistory
Fore
SplineSet
269 0 m 1
 269 1358 l 1
 27 1358 l 1
 27 1658 l 1
 916 1658 l 1
 916 1358 l 1
 675 1358 l 1
 675 0 l 1
 269 0 l 1
EndSplineSet
EndChar

StartChar: Tbar
Encoding: 306 358 94
Width: 943
VWidth: 0
Flags: W
HStem: 0 21G<269 675> 743 190<97 269 675 858> 1358 300<27 269 675 916>
VStem: 269 406<0 743 933 1358>
LayerCount: 2
UndoRedoHistory
Layer: 1
Undoes
EndUndoes
Redoes
EndRedoes
EndUndoRedoHistory
Fore
SplineSet
97 743 m 1
 97 933 l 1
 269 933 l 1
 269 1358 l 1
 27 1358 l 1
 27 1658 l 1
 916 1658 l 1
 916 1358 l 1
 675 1358 l 1
 675 933 l 1
 858 933 l 1
 858 743 l 1
 675 743 l 1
 675 0 l 1
 269 0 l 1
 269 743 l 1
 97 743 l 1
EndSplineSet
Colour: ffff00
EndChar

StartChar: Thorn
Encoding: 222 222 97
Width: 1186
VWidth: 0
Flags: W
HStem: 0 21G<99 505> 479 282<505 739.039> 1151 285<505 746.996> 1638 20G<99 505>
VStem: 99 406<0 479 761 1151 1436 1658> 791 366<805.764 1103.78>
LayerCount: 2
UndoRedoHistory
Layer: 1
Undoes
EndUndoes
Redoes
EndRedoes
EndUndoRedoHistory
Fore
SplineSet
99 0 m 1
 99 1658 l 1
 505 1658 l 1
 505 1436 l 1
 640 1436 l 2
 985 1436 1157 1323 1157 981 c 0
 1157 566 987 483 628 480 c 2
 505 479 l 1
 505 0 l 1
 99 0 l 1
505 761 m 1
 614 761 l 2
 745 761 791 819 791 959 c 0
 791 1087 746 1151 619 1151 c 2
 505 1151 l 1
 505 761 l 1
EndSplineSet
Colour: ffff00
EndChar

StartChar: U
Encoding: 85 85 98
Width: 1230
VWidth: 0
Flags: W
HStem: -26 289<541.015 688.711> 1638 20G<110 514 715 1120>
VStem: 110 404<284.292 1658> 715 405<284.292 1658>
AnchorPoint: "ogonek" 609 0 basechar 0
LayerCount: 2
UndoRedoHistory
Layer: 1
Undoes
EndUndoes
Redoes
EndRedoes
EndUndoRedoHistory
Fore
SplineSet
615 -26 m 0
 228 -26 110 153 110 501 c 2
 110 1658 l 1
 514 1658 l 1
 514 433 l 2
 514 361 521 263 615 263 c 0
 709 263 715 361 715 433 c 2
 715 1658 l 1
 1120 1658 l 1
 1120 501 l 2
 1120 153 1001 -26 615 -26 c 0
EndSplineSet
EndChar

StartChar: V
Encoding: 86 86 109
Width: 1090
VWidth: 0
Flags: W
HStem: 0 21G<320.634 767.426> 1638 20G<45 388.808 678.429 1048>
LayerCount: 2
UndoRedoHistory
Layer: 1
Undoes
EndUndoes
Redoes
EndRedoes
EndUndoRedoHistory
Fore
SplineSet
324 0 m 1
 45 1658 l 1
 386 1658 l 1
 540 561 l 1
 681 1658 l 1
 1048 1658 l 1
 764 0 l 1
 324 0 l 1
EndSplineSet
EndChar

StartChar: W
Encoding: 87 87 110
Width: 1410
VWidth: 0
Flags: W
HStem: 0 21G<226.865 597.244 812.543 1181.16> 1638 20G<52 397.689 565.867 836.357 1015.25 1358>
VStem: 568 266<1536.35 1658>
LayerCount: 2
UndoRedoHistory
Layer: 1
Undoes
EndUndoes
Redoes
EndRedoes
EndUndoRedoHistory
Fore
SplineSet
229 0 m 1
 52 1658 l 1
 396 1658 l 1
 472 758 l 1
 568 1658 l 1
 834 1658 l 1
 939 767 l 1
 1017 1658 l 1
 1358 1658 l 1
 1179 0 l 1
 815 0 l 1
 700 936 l 1
 595 0 l 1
 229 0 l 1
EndSplineSet
EndChar

StartChar: X
Encoding: 88 88 115
Width: 1074
VWidth: 0
Flags: W
HStem: 0 21G<10 346.118 676.052 1064> 1638 20G<26 419.873 689.985 1029>
LayerCount: 2
UndoRedoHistory
Layer: 1
Undoes
EndUndoes
Redoes
EndRedoes
EndUndoRedoHistory
Fore
SplineSet
10 0 m 1
 326 902 l 1
 26 1658 l 1
 412 1658 l 1
 573 1249 l 1
 696 1658 l 1
 1029 1658 l 1
 756 782 l 1
 1064 0 l 1
 684 0 l 1
 502 458 l 1
 339 0 l 1
 10 0 l 1
EndSplineSet
EndChar

StartChar: Y
Encoding: 89 89 116
AltUni2: 0004ae.ffffffff.0
Width: 1018
VWidth: 0
Flags: W
HStem: 0 21G<317 706> 1638 20G<14 402.901 632.09 1004>
VStem: 317 389<0 750.09>
LayerCount: 2
UndoRedoHistory
Layer: 1
Undoes
EndUndoes
Redoes
EndRedoes
EndUndoRedoHistory
Fore
SplineSet
317 0 m 1
 317 705 l 1
 14 1658 l 1
 397 1658 l 1
 528 1214 l 1
 637 1658 l 1
 1004 1658 l 1
 706 705 l 1
 706 0 l 1
 317 0 l 1
EndSplineSet
EndChar

StartChar: Z
Encoding: 90 90 121
Width: 894
VWidth: 0
Flags: W
HStem: 0 271<447 835> 1386 272<69 436>
LayerCount: 2
UndoRedoHistory
Layer: 1
Undoes
EndUndoes
Redoes
EndRedoes
EndUndoRedoHistory
Fore
SplineSet
56 0 m 1
 56 237 l 1
 436 1386 l 1
 69 1386 l 1
 69 1658 l 1
 830 1658 l 1
 830 1422 l 1
 447 271 l 1
 835 271 l 1
 835 0 l 1
 56 0 l 1
EndSplineSet
EndChar

StartChar: a
Encoding: 97 97 125
Width: 1006
VWidth: 0
Flags: W
HStem: -22 238<260.5 488.715> 0 21G<603.727 932> 1186 20G<408 663.5>
VStem: 69 326<231.523 451.284> 563 348<223.788 584 715.673 926.93>
AnchorPoint: "ogonek" 747 0 basechar 0
LayerCount: 2
UndoRedoHistory
Layer: 1
Undoes
EndUndoes
Redoes
EndRedoes
EndUndoRedoHistory
Fore
SplineSet
357 -22 m 1xb8
 164 -18 69 133 69 271 c 0
 69 592 396 663 563 732 c 1
 563 860 l 2
 563 898 550 934 507 934 c 0
 461 934 452 899 449 861 c 1
 438 766 l 1
 100 780 l 2
 100 781 103 816 103 817 c 0
 124 1085 273 1206 543 1206 c 0
 784 1206 911 1053 911 855 c 2
 911 298 l 2
 911 139 926 53 932 0 c 1
 607 0 l 1x78
 607 0 581 161 580 165 c 1
 551 65 477 -22 357 -22 c 1xb8
484 216 m 0xb8
 512 216 541 232 563 262 c 1
 563 584 l 1
 452 532 395 408 395 335 c 0
 395 260 437 216 484 216 c 0xb8
EndSplineSet
EndChar

StartChar: acute
Encoding: 180 180 129
Width: 648
VWidth: 0
Flags: W
HStem: 1243 415<236 346>
VStem: 108 505
LayerCount: 2
UndoRedoHistory
Layer: 1
Undoes
EndUndoes
Redoes
EndRedoes
EndUndoRedoHistory
Fore
SplineSet
108 1243 m 1
 236 1658 l 1
 613 1658 l 1
 346 1243 l 1
 108 1243 l 1
EndSplineSet
EndChar

StartChar: acutecomb
Encoding: 326 769 130
Width: 624
VWidth: 0
Flags: W
HStem: 1243 415<229 339>
VStem: 101 505
LayerCount: 2
UndoRedoHistory
Layer: 1
Undoes
EndUndoes
Redoes
EndRedoes
EndUndoRedoHistory
Fore
SplineSet
101 1243 m 1
 229 1658 l 1
 606 1658 l 1
 339 1243 l 1
 101 1243 l 1
EndSplineSet
EndChar

StartChar: ae
Encoding: 230 230 132
Width: 1404
VWidth: 0
Flags: W
HStem: -27 243<308.5 540.213 901.34 1085.28> 1016 227<909.506 1021.74>
VStem: 69 314<226.127 454.792> 547 343<231.252 547 761 927.723> 982 333<238.808 414> 1032 299<803.418 1010.78>
LayerCount: 2
UndoRedoHistory
Layer: 0
Undoes
EndUndoes
Redoes
EndRedoes
EndUndoRedoHistory
UndoRedoHistory
Layer: 1
Undoes
EndUndoes
Redoes
EndRedoes
EndUndoRedoHistory
Fore
SplineSet
396 -27 m 0xf8
 221 -26 69 73 69 282 c 0
 69 544 233 629 393 668 c 0
 445 681 503 690 547 698 c 1
 547 843 l 2
 547 915 521 930 489 930 c 0
 457 930 426 914 426 789 c 1
 72 789 l 1
 67 1077 188 1244 456 1244 c 0
 586 1244 682 1173 705 1083 c 1
 737 1174 848 1243 976 1243 c 0
 1217 1243 1331 1078 1331 944 c 0xf4
 1331 745 1168 666 995 623 c 0
 962 615 924 608 891 602 c 1
 891 353 l 2
 891 271 896 230 940 230 c 0
 988 230 982 277 982 346 c 2
 982 414 l 1
 1315 414 l 1
 1315 305 l 2
 1315 93 1192 -26 973 -27 c 0
 876 -27 727 25 698 139 c 1
 648 27 511 -27 396 -27 c 0xf8
464 216 m 0
 512 216 550 232 550 322 c 2
 548 547 l 1
 527 539 508 530 492 520 c 0
 400 460 383 354 383 318 c 0
 383 286 400 216 464 216 c 0
890 761 m 1
 930 767 967 780 990 803 c 1
 1016 827 1032 863 1032 918 c 0
 1032 985 1004 1016 971 1016 c 0
 930 1016 890 971 890 899 c 2
 890 761 l 1
EndSplineSet
Colour: ffff00
EndChar

StartChar: afii10018
Encoding: 328 1041 134
Width: 1169
VWidth: 0
Flags: W
HStem: 0 263<535 675.609> 676 279<535 675.971> 1347 311<535 985>
VStem: 130 405<263 676 955 1347> 725 374<306.145 627.524>
LayerCount: 2
UndoRedoHistory
Layer: 1
Undoes
EndUndoes
Redoes
EndRedoes
EndUndoRedoHistory
Fore
SplineSet
130 0 m 1
 130 1658 l 1
 985 1658 l 1
 985 1347 l 1
 535 1347 l 1
 535 955 l 1
 621 955 l 2
 922 955 1099 795 1099 478 c 0
 1099 57 847 0 575 0 c 2
 130 0 l 1
535 263 m 1
 577 263 l 2
 696 263 730 348 725 487 c 0
 721 580 697 676 573 676 c 2
 535 676 l 1
 535 263 l 1
EndSplineSet
EndChar

StartChar: afii10019
Encoding: 329 1042 135
Width: 1246
VWidth: 0
Flags: W
HStem: 0 283<535 733.931> 744 259<535 729.292> 1391 267<535 720.706>
VStem: 130 405<283 744 1003 1391> 776 354<1049.26 1334.1> 792 392<345.189 689.183>
LayerCount: 2
UndoRedoHistory
Layer: 1
Undoes
EndUndoes
Redoes
EndRedoes
EndUndoRedoHistory
Fore
SplineSet
130 0 m 1xf4
 130 1658 l 1
 578 1658 l 2
 857 1658 1140 1612 1130 1218 c 0xf8
 1125 1019 1033 920 887 890 c 1
 1075 873 1180 732 1184 498 c 0
 1190 138 985 0 660 0 c 2
 130 0 l 1xf4
535 283 m 1
 591 283 l 2
 742 283 792 361 792 505 c 0xf4
 792 684 743 744 593 744 c 2
 535 744 l 1
 535 283 l 1
535 1003 m 1
 590 1003 l 2
 746 1003 776 1084 776 1207 c 0xf8
 776 1309 711 1391 603 1391 c 2
 535 1391 l 1
 535 1003 l 1
EndSplineSet
EndChar

StartChar: afii10020
Encoding: 330 1043 136
Width: 994
VWidth: 0
Flags: W
HStem: 0 21G<130 535> 1358 300<535 935>
VStem: 130 405<0 1358>
LayerCount: 2
UndoRedoHistory
Layer: 1
Undoes
EndUndoes
Redoes
EndRedoes
EndUndoRedoHistory
Fore
SplineSet
130 0 m 1
 130 1658 l 1
 935 1658 l 1
 935 1358 l 1
 535 1358 l 1
 535 0 l 1
 130 0 l 1
EndSplineSet
EndChar

StartChar: afii10021
Encoding: 331 1044 137
Width: 1459
VWidth: 0
Flags: W
HStem: -375 21G<40 317.067 1162.93 1424> 0 289<462 855> 1638 20G<434.347 1228>
VStem: 40 276<-375 -106.2> 855 373<289 1373> 1164 260<-375 -106.2>
LayerCount: 2
UndoRedoHistory
Layer: 1
Undoes
EndUndoes
Redoes
EndRedoes
EndUndoRedoHistory
Fore
SplineSet
40 -375 m 1xf4
 40 289 l 1
 80 289 l 1
 247 326 345 549 386 1053 c 2
 436 1658 l 1
 1228 1658 l 1
 1228 289 l 1xf8
 1424 289 l 1
 1424 -375 l 1
 1164 -375 l 1
 1144 0 l 1
 336 0 l 1
 316 -375 l 1
 40 -375 l 1xf4
462 289 m 1
 855 289 l 1
 855 1373 l 1
 736 1373 l 1
 715 1022 l 1
 678 477 563 377 462 289 c 1
EndSplineSet
EndChar

StartChar: afii10024
Encoding: 334 1046 140
Width: 1698
VWidth: 0
Flags: W
HStem: 0 21G<13 377.544 691 1007 1320.43 1685> 798 92<671 691 1007 1026> 1638 20G<13 396.344 691 1007 1301.63 1685>
VStem: 691 316<0 798 890 1658>
LayerCount: 2
UndoRedoHistory
Layer: 1
Undoes
EndUndoes
Redoes
EndRedoes
EndUndoRedoHistory
Fore
SplineSet
13 0 m 1
 351 830 l 1
 13 1658 l 1
 389 1658 l 1
 671 890 l 1
 691 890 l 1
 691 1658 l 1
 1007 1658 l 1
 1007 890 l 1
 1026 890 l 1
 1309 1658 l 1
 1685 1658 l 1
 1347 830 l 1
 1685 0 l 1
 1328 0 l 1
 1026 798 l 1
 1007 798 l 1
 1007 0 l 1
 691 0 l 1
 691 798 l 1
 671 798 l 1
 370 0 l 1
 13 0 l 1
EndSplineSet
EndChar

StartChar: afii10025
Encoding: 335 1047 141
Width: 1103
VWidth: 0
Flags: W
HStem: -34 319<493.265 638.422> 720 238<391 610.652> 1386 301<483.53 625.549>
VStem: 76 379<317.028 573 1099 1358.54> 657 372<300.745 677.631 1011.25 1363.05>
LayerCount: 2
UndoRedoHistory
Layer: 1
Undoes
EndUndoes
Redoes
EndRedoes
EndUndoRedoHistory
Fore
SplineSet
562 -34 m 0
 191 -34 89 190 89 514 c 2
 89 573 l 1
 468 573 l 1
 468 572 468 508 468 507 c 0
 468 337 492 285 568 285 c 0
 641 285 657 342 657 481 c 0
 657 643 630 719 491 720 c 0
 490 720 392 720 391 720 c 1
 391 958 l 1
 392 958 484 958 484 958 c 1
 629 959 657 1039 657 1202 c 0
 657 1325 626 1386 551 1386 c 0
 477 1386 455 1312 455 1202 c 0
 455 1201 455 1099 455 1099 c 1
 76 1099 l 1
 76 1212 l 2
 76 1521 269 1687 554 1687 c 0
 847 1687 1029 1535 1029 1230 c 0
 1029 1038 941 892 836 866 c 1
 941 824 1029 733 1029 493 c 0
 1029 186 904 -34 562 -34 c 0
EndSplineSet
EndChar

StartChar: afii10026
Encoding: 336 1048 142
Width: 1234
VWidth: 0
Flags: W
HStem: 0 21G<130 375.219 785 1105> 1638 20G<130 443 837.952 1105>
VStem: 130 313<765 1658> 785 320<0 909>
LayerCount: 2
UndoRedoHistory
Layer: 1
Undoes
EndUndoes
Redoes
EndRedoes
EndUndoRedoHistory
Fore
SplineSet
130 0 m 1
 130 1658 l 1
 443 1658 l 1
 443 765 l 1
 847 1658 l 1
 1105 1658 l 1
 1105 0 l 1
 785 0 l 1
 785 909 l 1
 366 0 l 1
 130 0 l 1
EndSplineSet
EndChar

StartChar: afii10028
Encoding: 338 1050 144
Width: 1211
VWidth: 0
Flags: W
HStem: 0 21G<130 535 765.848 1190> 1638 20G<130 535 779.756 1187>
VStem: 130 405<0 699 1023 1658>
LayerCount: 2
UndoRedoHistory
Layer: 1
Undoes
EndUndoes
Redoes
EndRedoes
EndUndoRedoHistory
Fore
SplineSet
130 0 m 1
 130 1658 l 1
 535 1658 l 1
 535 1023 l 1
 557 1023 l 1
 787 1658 l 1
 1187 1658 l 1
 893 883 l 1
 1190 0 l 1
 772 0 l 1
 557 699 l 1
 535 699 l 1
 535 0 l 1
 130 0 l 1
EndSplineSet
EndChar

StartChar: afii10029
Encoding: 339 1051 145
Width: 1388
VWidth: 0
Flags: W
HStem: 0 282<18 175.54> 1638 20G<334.484 1258>
VStem: 853 405<0 1347>
LayerCount: 2
UndoRedoHistory
Layer: 1
Undoes
EndUndoes
Redoes
EndRedoes
EndUndoRedoHistory
Fore
SplineSet
18 0 m 1
 18 282 l 1
 268 282 235 328 283 959 c 2
 336 1658 l 1
 1258 1658 l 1
 1258 0 l 1
 853 0 l 1
 853 1347 l 1
 705 1347 l 1
 673 868 l 2
 624 143 635 -30 18 0 c 1
EndSplineSet
EndChar

StartChar: afii10030
Encoding: 340 1052 146
Width: 1468
VWidth: 0
Flags: W
HStem: 0 21G<114 401.5 636.078 844.716 1070.42 1353> 1638 20G<140.674 585.572 898.052 1326.33>
VStem: 114 287<0 573.971> 141 287<777.663 1081> 1040 286<777.663 1071> 1071 282<0 495.286>
LayerCount: 2
UndoRedoHistory
Layer: 1
Undoes
EndUndoes
Redoes
EndRedoes
EndUndoRedoHistory
Fore
SplineSet
114 0 m 1xe0
 141 1658 l 1
 582 1658 l 1
 734 807 l 1
 902 1658 l 1
 1326 1658 l 1xd8
 1353 0 l 1
 1071 0 l 1xc4
 1040 1071 l 1
 841 0 l 1
 640 0 l 1
 428 1081 l 1xd8
 401 0 l 1
 114 0 l 1xe0
EndSplineSet
EndChar

StartChar: afii10033
Encoding: 343 1055 149
Width: 1258
VWidth: 0
Flags: W
HStem: 0 21G<120 518 740 1138> 1368 290<518 740>
VStem: 120 398<0 1368> 740 398<0 1368>
LayerCount: 2
UndoRedoHistory
Layer: 1
Undoes
EndUndoes
Redoes
EndRedoes
EndUndoRedoHistory
Fore
SplineSet
120 0 m 1
 120 1658 l 1
 1138 1658 l 1
 1138 0 l 1
 740 0 l 1
 740 1368 l 1
 518 1368 l 1
 518 0 l 1
 120 0 l 1
EndSplineSet
EndChar

StartChar: afii10034
Encoding: 344 1056 150
Width: 1216
VWidth: 0
Flags: W
HStem: 0 21G<120 526> 685 281<526 749.716> 1374 284<526 747.407>
VStem: 120 406<0 685 966 1374> 785 380<995.054 1343.31>
LayerCount: 2
UndoRedoHistory
Layer: 1
Undoes
EndUndoes
Redoes
EndRedoes
EndUndoRedoHistory
Fore
SplineSet
120 0 m 1
 120 1658 l 1
 720 1658 l 2
 1017 1658 1165 1484 1165 1171 c 0
 1165 753 932 685 663 685 c 2
 526 685 l 1
 526 0 l 1
 120 0 l 1
526 966 m 1
 655 966 l 2
 773 966 785 1044 785 1180 c 0
 785 1272 775 1374 651 1374 c 2
 526 1374 l 1
 526 966 l 1
EndSplineSet
EndChar

StartChar: afii10037
Encoding: 347 1059 153
Width: 1194
VWidth: 0
Flags: W
HStem: -349 260<109 359.759> 1638 20G<47 426.286 786.478 1171>
LayerCount: 2
UndoRedoHistory
Layer: 1
Undoes
EndUndoes
Redoes
EndRedoes
EndUndoRedoHistory
Fore
SplineSet
109 -349 m 1
 109 -89 l 1
 327 -90 483 -38 432 163 c 2
 47 1658 l 1
 422 1658 l 1
 566 986 l 1
 628 564 l 1
 672 988 l 1
 790 1658 l 1
 1171 1658 l 1
 813 95 l 2
 724 -291 550 -351 109 -349 c 1
EndSplineSet
EndChar

StartChar: afii10038
Encoding: 348 1060 154
Width: 1611
VWidth: 0
Flags: W
HStem: 179 252<498.039 649 962 1110.03> 1256 239<501.26 649 962 1099.98>
VStem: 95 355<481.76 1202.76> 649 313<-55 180 432.009 1255.99 1494 1741> 1162 354<480.814 1202.16>
LayerCount: 2
UndoRedoHistory
Layer: 1
Undoes
EndUndoes
Redoes
EndRedoes
EndUndoRedoHistory
Fore
SplineSet
649 -55 m 1
 649 180 l 1
 624 179 l 1
 311 155 95 348 95 575 c 2
 95 1100 l 2
 95 1326 313 1518 608 1495 c 1
 649 1493 l 1
 649 1741 l 1
 962 1741 l 1
 962 1494 l 1
 988 1495 l 1
 1299 1518 1516 1326 1516 1099 c 2
 1516 574 l 2
 1516 347 1299 155 1003 179 c 1
 962 181 l 1
 962 -55 l 1
 649 -55 l 1
618 431 m 0
 628 431 639 432 649 433 c 1
 649 1255 l 1
 638 1256 625 1257 615 1256 c 0
 501 1252 450 1166 450 1106 c 2
 450 569 l 2
 450 510 500 431 618 431 c 0
996 432 m 0
 1107 432 1162 505 1162 568 c 2
 1162 1105 l 2
 1162 1164 1110 1250 991 1256 c 0
 982 1256 971 1256 962 1256 c 1
 962 434 l 1
 973 433 985 432 996 432 c 0
EndSplineSet
EndChar

StartChar: afii10040
Encoding: 350 1062 156
Width: 1442
VWidth: 0
Flags: W
HStem: -375 21G<1112.01 1409> 0 271<535 758> 1638 20G<130 535 758 1163>
VStem: 130 405<271 1658> 758 405<271 1658>
LayerCount: 2
UndoRedoHistory
Layer: 1
Undoes
EndUndoes
Redoes
EndRedoes
EndUndoRedoHistory
Fore
SplineSet
1115 -375 m 1
 1059 0 l 1
 130 0 l 1
 130 1658 l 1
 535 1658 l 1
 535 271 l 1
 758 271 l 1
 758 1658 l 1
 1163 1658 l 1
 1163 271 l 1
 1409 271 l 1
 1409 -375 l 1
 1115 -375 l 1
EndSplineSet
EndChar

StartChar: afii10041
Encoding: 351 1063 157
Width: 1282
VWidth: 0
Flags: W
HStem: 0 21G<747 1152> 648 246<521.762 747> 1638 20G<86 491 747 1152>
VStem: 86 405<929.281 1658> 747 405<0 658 894.434 1658>
LayerCount: 2
UndoRedoHistory
Layer: 1
Undoes
EndUndoes
Redoes
EndRedoes
EndUndoRedoHistory
Fore
SplineSet
747 0 m 1
 747 658 l 1
 678 651 612 648 572 648 c 0
 322 648 86 793 86 1053 c 2
 86 1658 l 1
 491 1658 l 1
 491 1054 l 2
 491 966 495 894 678 894 c 0
 701 894 723 895 747 898 c 1
 747 1658 l 1
 1152 1658 l 1
 1152 0 l 1
 747 0 l 1
EndSplineSet
EndChar

StartChar: afii10042
Encoding: 352 1064 158
Width: 1735
VWidth: 0
Flags: W
HStem: 0 289<508 681 1059 1228> 1638 20G<130 508 681 1059 1228 1606>
VStem: 130 378<289 1658> 681 378<289 1658> 1228 378<289 1658>
LayerCount: 2
UndoRedoHistory
Layer: 1
Undoes
EndUndoes
Redoes
EndRedoes
EndUndoRedoHistory
Fore
SplineSet
130 0 m 1
 130 1658 l 1
 508 1658 l 1
 508 289 l 1
 681 289 l 1
 681 1658 l 1
 1059 1658 l 1
 1059 289 l 1
 1228 289 l 1
 1228 1658 l 1
 1606 1658 l 1
 1606 0 l 1
 130 0 l 1
EndSplineSet
EndChar

StartChar: afii10043
Encoding: 353 1065 159
Width: 1952
VWidth: 0
Flags: W
HStem: -375 21G<1555.39 1852> 0 271<508 681 1059 1228> 1638 20G<130 508 681 1059 1228 1607>
VStem: 130 378<271 1658> 681 378<271 1658> 1228 379<271 1658>
LayerCount: 2
UndoRedoHistory
Layer: 1
Undoes
EndUndoes
Redoes
EndRedoes
EndUndoRedoHistory
Fore
SplineSet
1558 -375 m 1
 1509 0 l 1
 130 0 l 1
 130 1658 l 1
 508 1658 l 1
 508 271 l 1
 681 271 l 1
 681 1658 l 1
 1059 1658 l 1
 1059 271 l 1
 1228 271 l 1
 1228 1658 l 1
 1607 1658 l 1
 1607 271 l 1
 1852 271 l 1
 1852 -375 l 1
 1558 -375 l 1
EndSplineSet
EndChar

StartChar: afii10044
Encoding: 354 1066 160
Width: 1333
VWidth: 0
Flags: W
HStem: 0 263<679 836.609> 676 279<679 836.971> 1386 272<-34 273>
VStem: 273 406<263 676 955 1386> 886 374<306.145 627.524>
LayerCount: 2
UndoRedoHistory
Layer: 1
Undoes
EndUndoes
Redoes
EndRedoes
EndUndoRedoHistory
Fore
SplineSet
273 0 m 1
 273 1386 l 1
 -34 1386 l 1
 -34 1658 l 1
 679 1658 l 1
 679 955 l 1
 782 955 l 2
 1083 955 1260 795 1260 478 c 0
 1260 57 1008 0 736 0 c 2
 273 0 l 1
679 263 m 1
 738 263 l 2
 857 263 891 348 886 487 c 0
 882 580 858 676 734 676 c 2
 679 676 l 1
 679 263 l 1
EndSplineSet
EndChar

StartChar: afii10045
Encoding: 355 1067 161
Width: 1763
VWidth: 0
Flags: W
HStem: 0 263<535 676.896> 676 279<535 677.795> 1638 20G<130 535 1228 1634>
VStem: 130 405<263 676 955 1658> 726 374<306.145 627.524> 1228 406<0 1658>
LayerCount: 2
UndoRedoHistory
Layer: 1
Undoes
EndUndoes
Redoes
EndRedoes
EndUndoRedoHistory
Fore
SplineSet
130 0 m 1
 130 1658 l 1
 535 1658 l 1
 535 955 l 1
 623 955 l 2
 923 955 1100 795 1100 478 c 0
 1100 57 849 0 576 0 c 2
 130 0 l 1
535 263 m 1
 579 263 l 2
 697 263 732 348 726 487 c 0
 722 580 698 676 575 676 c 2
 535 676 l 1
 535 263 l 1
1228 0 m 1
 1228 1658 l 1
 1634 1658 l 1
 1634 0 l 1
 1228 0 l 1
EndSplineSet
EndChar

StartChar: afii10046
Encoding: 356 1068 162
Width: 1175
VWidth: 0
Flags: W
HStem: 0 263<535 673.939> 676 279<535 674.807> 1638 20G<130 535>
VStem: 130 405<263 676 955 1658> 723 375<306.145 627.524>
LayerCount: 2
UndoRedoHistory
Layer: 1
Undoes
EndUndoes
Redoes
EndRedoes
EndUndoRedoHistory
Fore
SplineSet
130 0 m 1
 130 1658 l 1
 535 1658 l 1
 535 955 l 1
 620 955 l 2
 920 955 1098 795 1098 478 c 0
 1098 57 846 0 573 0 c 2
 130 0 l 1
535 263 m 1
 576 263 l 2
 694 263 729 348 723 487 c 1
 720 580 696 676 572 676 c 2
 535 676 l 1
 535 263 l 1
EndSplineSet
EndChar

StartChar: afii10047
Encoding: 357 1069 163
Width: 1210
VWidth: 0
Flags: W
HStem: -26 281<523.538 671.541> 723 192<426 697> 1403 281<523.456 671.126>
VStem: 102 399<272.641 542 1111 1387.84> 697 413<271.546 723 915 1385.43>
LayerCount: 2
UndoRedoHistory
Layer: 1
Undoes
EndUndoes
Redoes
EndRedoes
EndUndoRedoHistory
Fore
SplineSet
597 -26 m 0
 213 -26 102 177 102 453 c 2
 102 542 l 1
 501 542 l 1
 501 420 l 2
 501 349 503 255 597 255 c 0
 691 255 697 349 697 421 c 2
 697 723 l 1
 426 723 l 1
 426 915 l 1
 697 915 l 1
 697 1237 l 2
 697 1310 689 1403 597 1403 c 0
 503 1403 501 1308 501 1237 c 2
 501 1111 l 1
 102 1111 l 1
 102 1195 l 2
 102 1471 212 1684 597 1684 c 0
 983 1684 1110 1474 1110 1129 c 2
 1110 530 l 2
 1110 183 983 -26 597 -26 c 0
EndSplineSet
EndChar

StartChar: afii10048
Encoding: 358 1070 164
Width: 1753
VWidth: 0
Flags: W
HStem: -26 281<1112.07 1250.43> 0 21G<130 535> 688 297<535 710> 1403 281<1112.07 1250.43> 1638 20G<130 535>
VStem: 130 405<0 688 985 1658> 710 382<273.922 688 985 1384.52> 1271 382<273.922 1384.08>
LayerCount: 2
UndoRedoHistory
Layer: 1
Undoes
EndUndoes
Redoes
EndRedoes
EndUndoRedoHistory
Fore
SplineSet
1181 -26 m 0xb7
 818 -26 710 202 710 548 c 2
 710 688 l 1
 535 688 l 1
 535 0 l 1
 130 0 l 1
 130 1658 l 1
 535 1658 l 1x6f
 535 985 l 1
 710 985 l 1
 710 1110 l 2
 710 1457 818 1684 1181 1684 c 0
 1545 1684 1653 1456 1653 1110 c 2
 1653 548 l 2
 1653 202 1545 -26 1181 -26 c 0xb7
1181 255 m 0xb7
 1270 255 1271 350 1271 420 c 2
 1271 1239 l 2
 1271 1310 1270 1403 1181 1403 c 0
 1093 1403 1092 1310 1092 1239 c 2
 1092 420 l 2
 1092 350 1093 255 1181 255 c 0xb7
EndSplineSet
EndChar

StartChar: afii10049
Encoding: 359 1071 165
Width: 1277
VWidth: 0
Flags: W
HStem: 0 21G<18 461.09 741 1147> 1382 276<569.475 741>
VStem: 119 376<997.492 1311.71> 741 406<0 646 932 1382>
LayerCount: 2
UndoRedoHistory
Layer: 1
Undoes
EndUndoes
Redoes
EndRedoes
EndUndoRedoHistory
Fore
SplineSet
18 0 m 1
 323 735 l 1
 203 813 119 967 119 1152 c 0
 119 1570 351 1658 692 1658 c 2
 1147 1658 l 1
 1147 0 l 1
 741 0 l 1
 741 646 l 1
 696 646 l 1
 683 646 l 1
 454 0 l 1
 18 0 l 1
698 932 m 2
 741 932 l 1
 741 1382 l 1
 694 1382 l 2
 562 1382 495 1299 495 1148 c 0
 495 1037 540 932 698 932 c 2
EndSplineSet
EndChar

StartChar: afii10051
Encoding: 360 1026 166
Width: 1338
VWidth: 0
Flags: W
HStem: 0 222<709 846.295> 790 225<702.877 1001> 1378 280<-27 209 610 903>
VStem: 209 401<0 750.365 917 1378> 893 366<262.279 760.557>
LayerCount: 2
UndoRedoHistory
Layer: 1
Undoes
EndUndoes
Redoes
EndRedoes
EndUndoRedoHistory
Fore
SplineSet
709 0 m 1
 709 222 l 1
 825 222 893 257 893 398 c 2
 893 683 l 2
 893 724 858 790 777 790 c 0
 735 790 679 772 610 722 c 1
 610 0 l 1
 209 0 l 1
 209 1378 l 1
 -27 1378 l 1
 -27 1658 l 1
 903 1658 l 1
 903 1378 l 1
 610 1378 l 1
 610 917 l 1
 703 985 808 1015 906 1015 c 0
 1096 1015 1259 901 1259 729 c 2
 1259 396 l 2
 1259 103 1153 0 798 0 c 2
 709 0 l 1
EndSplineSet
EndChar

StartChar: afii10053
Encoding: 362 1028 168
Width: 1164
VWidth: 0
Flags: W
HStem: -26 281<538.874 686.544> 725 208<513 735> 1403 281<538.459 686.462>
VStem: 100 413<272.568 725 933 1386.45> 709 399<270.156 549 1094 1385.36>
CounterMasks: 1 e0
LayerCount: 2
UndoRedoHistory
Layer: 1
Undoes
EndUndoes
Redoes
EndRedoes
EndUndoRedoHistory
Fore
SplineSet
613 -26 m 0
 227 -26 100 184 100 529 c 2
 100 1128 l 2
 100 1475 227 1684 613 1684 c 0
 997 1684 1108 1481 1108 1205 c 2
 1108 1094 l 1
 709 1094 l 1
 709 1238 l 2
 709 1309 707 1403 613 1403 c 0
 519 1403 513 1309 513 1237 c 2
 513 933 l 1
 735 933 l 1
 735 725 l 1
 513 725 l 1
 513 421 l 2
 513 348 521 255 613 255 c 0
 707 255 709 350 709 421 c 2
 709 549 l 1
 1108 549 l 1
 1108 463 l 2
 1108 187 998 -26 613 -26 c 0
EndSplineSet
EndChar

StartChar: afii10055
Encoding: 364 1030 170
Width: 585
VWidth: 0
Flags: W
HStem: 0 21G<100 505> 1638 20G<100 505>
VStem: 100 405<0 1658>
LayerCount: 2
UndoRedoHistory
Layer: 1
Undoes
EndUndoes
Redoes
EndRedoes
EndUndoRedoHistory
Fore
SplineSet
100 0 m 1
 100 1658 l 1
 505 1658 l 1
 505 0 l 1
 100 0 l 1
EndSplineSet
EndChar

StartChar: afii10057
Encoding: 366 1032 172
Width: 679
VWidth: 0
Flags: W
HStem: -43 281<7 170.428> 1638 20G<194 600>
VStem: 194 405<268.896 1658>
LayerCount: 2
UndoRedoHistory
Layer: 1
Undoes
EndUndoes
Redoes
EndRedoes
EndUndoRedoHistory
Fore
SplineSet
7 -43 m 1
 7 238 l 1
 142 235 194 259 194 381 c 2
 194 1658 l 1
 600 1658 l 1
 599 363 l 1
 593 96 510 -43 205 -43 c 2
 7 -43 l 1
EndSplineSet
EndChar

StartChar: afii10058
Encoding: 367 1033 173
Width: 1850
VWidth: 0
Flags: W
HStem: 0 282<19 188.814> 0 263<1258 1389.9> 676 279<1258 1389.97> 1638 20G<334.534 1258>
VStem: 853 405<263 676 955 1347> 1439 374<306.145 627.524>
LayerCount: 2
UndoRedoHistory
Layer: 1
Undoes
EndUndoes
Redoes
EndRedoes
EndUndoRedoHistory
Fore
SplineSet
19 0 m 1xbc
 19 282 l 1xbc
 191 281 236 303 255 553 c 2
 336 1658 l 1
 1258 1658 l 1
 1258 955 l 1
 1335 955 l 2
 1636 955 1813 795 1813 478 c 0
 1813 57 1562 0 1289 0 c 2
 853 0 l 1x7c
 853 1347 l 1
 705 1347 l 1
 652 544 l 2
 622 99 493 -1 174 0 c 1
 19 0 l 1xbc
1258 263 m 1x7c
 1292 263 l 2
 1410 263 1445 348 1439 487 c 0
 1435 580 1411 676 1288 676 c 2
 1258 676 l 1
 1258 263 l 1x7c
EndSplineSet
EndChar

StartChar: afii10059
Encoding: 368 1034 174
Width: 1741
VWidth: 0
Flags: W
HStem: 0 263<1129 1252.61> 674 310<535 723> 1640 20G<130 535 723 1129>
VStem: 130 405<2 674 984 1660> 723 406<263 674 984 1660> 1302 374<306.145 627.524>
LayerCount: 2
UndoRedoHistory
Layer: 1
Undoes
EndUndoes
Redoes
EndRedoes
EndUndoRedoHistory
Fore
SplineSet
1152 0 m 1
 723 2 l 1
 723 674 l 1
 535 674 l 1
 535 2 l 1
 130 2 l 1
 130 1660 l 1
 535 1660 l 1
 535 984 l 1
 723 984 l 1
 723 1660 l 1
 1129 1660 l 1
 1129 955 l 1
 1198 955 l 2
 1499 955 1676 795 1676 478 c 0
 1676 57 1424 0 1152 0 c 1
1129 263 m 1
 1154 263 l 2
 1273 263 1308 348 1302 487 c 0
 1298 580 1274 676 1150 676 c 2
 1129 676 l 1
 1129 263 l 1
EndSplineSet
EndChar

StartChar: afii10060
Encoding: 369 1035 175
Width: 1265
VWidth: 0
Flags: W
HStem: 780 210<665.906 788.041> 1358 300<16 236 641 866>
VStem: 236 405<0 771.588 936 1358> 789 367<0 779.77>
LayerCount: 2
UndoRedoHistory
Layer: 1
Undoes
EndUndoes
Redoes
EndRedoes
EndUndoRedoHistory
Fore
SplineSet
236 0 m 1
 236 1358 l 1
 16 1358 l 1
 16 1658 l 1
 866 1658 l 1
 866 1358 l 1
 641 1358 l 1
 641 936 l 1
 641 936 770 990 900 990 c 0
 1065 990 1156 895 1156 754 c 2
 1156 0 l 1
 789 0 l 1
 789 719 l 2
 789 759 777 782 732 780 c 0
 708 779 675 771 641 753 c 1
 641 0 l 1
 236 0 l 1
EndSplineSet
EndChar

StartChar: afii10066
Encoding: 373 1073 179
Width: 1015
VWidth: 0
Flags: W
HStem: -20 228<455.842 574.944> 972 206<457.479 735>
VStem: 89 352<221.56 964.968> 89 328<1130 1354.95> 591 342<220.678 966.882>
LayerCount: 2
UndoRedoHistory
Layer: 1
Undoes
EndUndoes
Redoes
EndRedoes
EndUndoRedoHistory
Fore
SplineSet
505 -20 m 0xd8
 141 -15 89 165 89 468 c 2xe8
 89 1122 l 2
 89 1724 456 1601 841 1766 c 1
 843 1490 l 1
 540 1346 422 1500 418 1190 c 1
 417 1130 l 1
 470 1157 551 1178 617 1178 c 0
 853 1178 933 1053 933 729 c 2
 933 421 l 2
 933 57 762 -24 505 -20 c 0xd8
519 208 m 0
 589 208 591 247 591 485 c 2
 591 801 l 2
 591 929 582 972 517 972 c 0
 464 972 443 933 441 808 c 1
 441 484 l 2
 441 251 444 208 519 208 c 0
EndSplineSet
EndChar

StartChar: afii10067
Encoding: 374 1074 180
Width: 1087
VWidth: 0
Flags: W
HStem: 0 190<469 636.925> 533 187<469 624.706> 1007 177<469 616.665>
VStem: 102 367<190 533 720 1007> 641 357<732.966 987.975> 670 357<211.893 511.154>
LayerCount: 2
UndoRedoHistory
Layer: 1
Undoes
EndUndoes
Redoes
EndRedoes
EndUndoRedoHistory
Fore
SplineSet
102 0 m 1xf4
 102 1184 l 1
 547 1184 l 2
 939 1184 998 1067 998 885 c 0xf8
 998 718 912 668 806 642 c 1
 985 594 1027 501 1027 343 c 0
 1027 102 899 0 522 0 c 2
 102 0 l 1xf4
469 190 m 1
 516 190 l 2
 605 190 670 191 670 353 c 0xf4
 670 533 609 533 516 533 c 2
 469 533 l 1
 469 190 l 1
469 720 m 1
 544 720 l 2
 623 720 641 777 641 857 c 0xf8
 641 938 633 1007 521 1007 c 2
 469 1007 l 1
 469 720 l 1
EndSplineSet
EndChar

StartChar: afii10068
Encoding: 375 1075 181
Width: 757
VWidth: 0
Flags: W
HStem: 0 21G<102 469> 941 243<469 725>
VStem: 102 367<0 941>
LayerCount: 2
UndoRedoHistory
Layer: 1
Undoes
EndUndoes
Redoes
EndRedoes
EndUndoRedoHistory
Fore
SplineSet
102 0 m 1
 102 1184 l 1
 725 1184 l 1
 725 941 l 1
 469 941 l 1
 469 0 l 1
 102 0 l 1
EndSplineSet
EndChar

StartChar: afii10069
Encoding: 376 1076 182
Width: 1309
VWidth: 0
Flags: W
HStem: 0 220<488 764> 972 212<679 764>
VStem: 84 266<-327 -92.6064> 764 332<220 972> 1013 262<-327 -123.179>
LayerCount: 2
UndoRedoHistory
Layer: 1
Undoes
EndUndoes
Redoes
EndRedoes
EndUndoRedoHistory
Fore
SplineSet
84 -327 m 1xe8
 84 219 l 1
 266 292 343 461 367 731 c 1
 410 1184 l 1
 1096 1184 l 1
 1096 220 l 1xf0
 1275 220 l 1
 1275 -327 l 1
 1013 -327 l 1
 990 0 l 1
 370 0 l 1
 350 -327 l 1
 84 -327 l 1xe8
488 220 m 1
 764 220 l 1
 764 972 l 1
 679 972 l 1
 649 644 l 1
 631 424 572 296 488 220 c 1
EndSplineSet
EndChar

StartChar: afii10072
Encoding: 379 1078 185
Width: 1400
VWidth: 0
Flags: W
HStem: 0 21G<16 320.995 538 845 1078.37 1384> 569 56<513 538 845 869> 1164 20G<28 349.082 538 845 1050.27 1372>
VStem: 538 307<0 569 625 1184>
LayerCount: 2
UndoRedoHistory
Layer: 1
Undoes
EndUndoes
Redoes
EndRedoes
EndUndoRedoHistory
Fore
SplineSet
16 0 m 1
 233 593 l 1
 28 1184 l 1
 343 1184 l 1
 513 625 l 1
 538 625 l 1
 538 1184 l 1
 845 1184 l 1
 845 625 l 1
 869 625 l 1
 1057 1184 l 1
 1372 1184 l 1
 1150 593 l 1
 1384 0 l 1
 1086 0 l 1
 869 569 l 1
 845 569 l 1
 845 0 l 1
 538 0 l 1
 538 569 l 1
 513 569 l 1
 314 0 l 1
 16 0 l 1
EndSplineSet
EndChar

StartChar: afii10073
Encoding: 380 1079 186
Width: 967
VWidth: 0
Flags: W
HStem: -22 249<395.901 574.274> 525 178<382 550.148> 956 250<382.943 556.732>
VStem: 78 289<257.691 401 805 941.953> 572 333<728.403 941.428> 601 312<250.982 482.407>
LayerCount: 2
UndoRedoHistory
Layer: 1
Undoes
EndUndoes
Redoes
EndRedoes
EndUndoRedoHistory
Fore
SplineSet
475 -22 m 0xf4
 117 -22 78 196 78 401 c 1
 367 401 l 1
 367 285 402 227 486 227 c 0
 573 227 601 288 601 370 c 0xf4
 601 476 542 525 382 525 c 1
 382 703 l 1
 541 703 572 738 572 837 c 0
 572 908 550 956 472 956 c 0
 388 956 363 914 363 805 c 1
 77 805 l 1
 77 1002 142 1206 490 1206 c 0
 784 1206 905 1062 905 869 c 0xf8
 905 725 833 648 739 615 c 1
 844 571 913 501 913 325 c 0
 913 133 787 -22 475 -22 c 0xf4
EndSplineSet
EndChar

StartChar: afii10074
Encoding: 381 1080 187
Width: 1072
VWidth: 0
Flags: W
HStem: 0 21G<102 398.983 676 970> 1164 20G<102 390 675.915 970>
VStem: 102 288<597 1184> 676 294<0 575>
LayerCount: 2
UndoRedoHistory
Layer: 1
Undoes
EndUndoes
Redoes
EndRedoes
EndUndoRedoHistory
Fore
SplineSet
102 0 m 1
 102 1184 l 1
 390 1184 l 1
 390 597 l 1
 686 1184 l 1
 970 1184 l 1
 970 0 l 1
 676 0 l 1
 676 575 l 1
 389 0 l 1
 102 0 l 1
EndSplineSet
EndChar

StartChar: afii10076
Encoding: 383 1082 189
Width: 1109
VWidth: 0
Flags: W
HStem: 0 21G<102 469 690.921 1088> 1164 20G<102 469 674.691 1082>
VStem: 102 367<0 517 727 1184>
LayerCount: 2
UndoRedoHistory
Layer: 1
Undoes
EndUndoes
Redoes
EndRedoes
EndUndoRedoHistory
Fore
SplineSet
102 0 m 1
 102 1184 l 1
 469 1184 l 1
 469 727 l 1
 515 727 l 1
 682 1184 l 1
 1082 1184 l 1
 849 629 l 1
 1088 0 l 1
 698 0 l 1
 515 517 l 1
 469 517 l 1
 469 0 l 1
 102 0 l 1
EndSplineSet
EndChar

StartChar: afii10077
Encoding: 384 1083 190
Width: 1210
VWidth: 0
Flags: W
HStem: 0 243<24 202.134> 941 243<626 741>
VStem: 741 366<0 941>
LayerCount: 2
UndoRedoHistory
Layer: 1
Undoes
EndUndoes
Redoes
EndRedoes
EndUndoRedoHistory
Fore
SplineSet
24 0 m 1
 24 243 l 1
 221 214 240 306 260 539 c 2
 317 1184 l 1
 1107 1184 l 1
 1107 0 l 1
 741 0 l 1
 741 941 l 1
 626 941 l 1
 587 494 l 2
 551 71 448 -14 212 -14 c 0
 157 -14 98 -9 24 0 c 1
EndSplineSet
EndChar

StartChar: afii10078
Encoding: 385 1084 191
Width: 1222
VWidth: 0
Flags: W
HStem: 0 21G<102 385 837 1120> 1164 20G<102.983 383.115 837.923 1119.02>
VStem: 102 283<0 602> 837 283<0 599>
LayerCount: 2
UndoRedoHistory
Layer: 1
Undoes
EndUndoes
Redoes
EndRedoes
EndUndoRedoHistory
Fore
SplineSet
102 0 m 1
 103 1184 l 1
 374 1184 l 1
 611 664 l 1
 847 1184 l 1
 1119 1184 l 1
 1120 0 l 1
 837 0 l 1
 837 599 l 1
 665 204 l 1
 558 204 l 1
 385 602 l 1
 385 0 l 1
 102 0 l 1
EndSplineSet
EndChar

StartChar: afii10079
Encoding: 386 1085 192
Width: 1115
VWidth: 0
Flags: W
HStem: 0 21G<102 469 646 1013> 488 249<469 646> 1164 20G<102 469 646 1013>
VStem: 102 367<0 488 737 1184> 646 367<0 488 737 1184>
LayerCount: 2
UndoRedoHistory
Layer: 1
Undoes
EndUndoes
Redoes
EndRedoes
EndUndoRedoHistory
Fore
SplineSet
102 0 m 1
 102 1184 l 1
 469 1184 l 1
 469 737 l 1
 646 737 l 1
 646 1184 l 1
 1013 1184 l 1
 1013 0 l 1
 646 0 l 1
 646 488 l 1
 469 488 l 1
 469 0 l 1
 102 0 l 1
EndSplineSet
EndChar

StartChar: afii10081
Encoding: 388 1087 194
Width: 1088
VWidth: 0
Flags: W
HStem: 0 21G<102 469 619 986> 939 245<469 619>
VStem: 102 367<0 939> 619 367<0 939>
LayerCount: 2
UndoRedoHistory
Layer: 1
Undoes
EndUndoes
Redoes
EndRedoes
EndUndoRedoHistory
Fore
SplineSet
102 0 m 1
 102 1184 l 1
 986 1184 l 1
 986 0 l 1
 619 0 l 1
 619 939 l 1
 469 939 l 1
 469 0 l 1
 102 0 l 1
EndSplineSet
EndChar

StartChar: afii10084
Encoding: 391 1090 197
Width: 864
VWidth: 0
Flags: W
HStem: 0 21G<248 615> 941 243<36 248 615 827>
VStem: 248 367<0 941>
LayerCount: 2
UndoRedoHistory
Layer: 1
Undoes
EndUndoes
Redoes
EndRedoes
EndUndoRedoHistory
Fore
SplineSet
248 0 m 1
 248 941 l 1
 36 941 l 1
 36 1184 l 1
 827 1184 l 1
 827 941 l 1
 615 941 l 1
 615 0 l 1
 248 0 l 1
EndSplineSet
EndChar

StartChar: afii10085
Encoding: 392 1091 198
Width: 1006
VWidth: 0
Flags: W
HStem: -402 253<133 323.721> 1164 20G<23 335.775 668.597 991>
LayerCount: 2
UndoRedoHistory
Layer: 1
Undoes
EndUndoes
Redoes
EndRedoes
EndUndoRedoHistory
Fore
SplineSet
133 -402 m 1
 99 -149 l 1
 366 -149 367 -117 326 55 c 1
 23 1184 l 1
 331 1184 l 1
 421 807 l 1
 508 440 l 1
 590 807 l 1
 673 1184 l 1
 991 1184 l 1
 670 -29 l 2
 589 -334 570 -402 133 -402 c 1
EndSplineSet
EndChar

StartChar: afii10086
Encoding: 393 1092 199
Width: 1480
VWidth: 0
Flags: W
HStem: 2 211<472.65 581 895 1005.52> 986 197<474.818 581 895 1007.19> 1637 20G<581 895>
VStem: 84 344<250.408 945.001> 581 314<-342 2 213 986 1183 1657> 1052 344<259.956 934.929>
LayerCount: 2
UndoRedoHistory
Layer: 1
Undoes
EndUndoes
Redoes
EndRedoes
EndUndoRedoHistory
Fore
SplineSet
581 -342 m 1
 581 2 l 1
 542 2 l 2
 369 2 84 103 84 413 c 2
 84 783 l 2
 84 1065 337 1183 544 1183 c 2
 581 1183 l 1
 581 1657 l 1
 895 1657 l 1
 895 1183 l 1
 937 1183 l 2
 1148 1183 1396 1065 1396 783 c 2
 1396 413 l 2
 1396 103 1106 2 940 2 c 2
 895 2 l 1
 895 -342 l 1
 581 -342 l 1
551 213 m 2
 581 213 l 1
 581 986 l 1
 551 986 l 2
 484 986 428 916 428 808 c 2
 428 382 l 2
 428 285 480 213 551 213 c 2
922 213 m 2
 984 213 1052 285 1052 382 c 2
 1052 808 l 2
 1052 916 989 986 922 986 c 2
 895 986 l 1
 895 213 l 1
 922 213 l 2
EndSplineSet
EndChar

StartChar: afii10088
Encoding: 395 1094 201
Width: 1211
VWidth: 0
Flags: W
HStem: 0 220<468 616> 1164 20G<101 468 616 983>
VStem: 101 367<220 1184> 616 367<220 1184> 900 262<-327 -123.179>
LayerCount: 2
UndoRedoHistory
Layer: 1
Undoes
EndUndoes
Redoes
EndRedoes
EndUndoRedoHistory
Fore
SplineSet
900 -327 m 1xe8
 877 0 l 1
 101 0 l 1
 101 1184 l 1
 468 1184 l 1
 468 220 l 1
 616 220 l 1
 616 1184 l 1
 983 1184 l 1
 983 220 l 1xf0
 1162 220 l 1
 1162 -327 l 1
 900 -327 l 1xe8
EndSplineSet
EndChar

StartChar: afii10089
Encoding: 396 1095 202
Width: 1053
VWidth: 0
Flags: W
HStem: 0 21G<584 950> 476 198<474.124 584>
VStem: 81 366<689.367 1184> 584 366<0 480 674 1184>
LayerCount: 2
UndoRedoHistory
Layer: 1
Undoes
EndUndoes
Redoes
EndRedoes
EndUndoRedoHistory
Fore
SplineSet
584 0 m 1
 584 480 l 1
 551 477 520 476 490 476 c 0
 147 476 81 604 81 772 c 2
 81 1184 l 1
 447 1184 l 1
 447 798 l 2
 447 713 466 678 562 674 c 0
 569 674 576 674 584 674 c 1
 584 1184 l 1
 950 1184 l 1
 950 0 l 1
 584 0 l 1
EndSplineSet
EndChar

StartChar: afii10090
Encoding: 397 1096 203
Width: 1509
VWidth: 0
Flags: W
HStem: 0 245<443 584 925 1066> 1164 20G<102 443 584 925 1066 1407>
VStem: 102 341<245 1184> 584 341<245 1184> 1066 341<245 1184>
CounterMasks: 1 38
LayerCount: 2
UndoRedoHistory
Layer: 1
Undoes
EndUndoes
Redoes
EndRedoes
EndUndoRedoHistory
Fore
SplineSet
102 0 m 1
 102 1184 l 1
 443 1184 l 1
 443 245 l 1
 584 245 l 1
 584 1184 l 1
 925 1184 l 1
 925 245 l 1
 1066 245 l 1
 1066 1184 l 1
 1407 1184 l 1
 1407 0 l 1
 102 0 l 1
EndSplineSet
EndChar

StartChar: afii10091
Encoding: 398 1097 204
Width: 1656
VWidth: 0
Flags: W
HStem: 0 220<446 582 926 1064> 1164 20G<102 446 582 926 1064 1408>
VStem: 102 344<220 1184> 582 344<220 1184> 1064 344<220 1184> 1326 262<-327 -123.179>
LayerCount: 2
UndoRedoHistory
Layer: 1
Undoes
EndUndoes
Redoes
EndRedoes
EndUndoRedoHistory
Fore
SplineSet
1326 -327 m 1xf4
 1303 0 l 1
 102 0 l 1
 102 1184 l 1
 446 1184 l 1
 446 220 l 1
 582 220 l 1
 582 1184 l 1
 926 1184 l 1
 926 220 l 1
 1064 220 l 1
 1064 1184 l 1
 1408 1184 l 1
 1408 220 l 1xf8
 1588 220 l 1
 1588 -327 l 1
 1326 -327 l 1xf4
EndSplineSet
EndChar

StartChar: afii10092
Encoding: 399 1098 205
Width: 1187
VWidth: 0
Flags: W
HStem: 0 208<603 755.583> 495 217<603 751.444> 941 243<18 237>
VStem: 237 366<208 495 712 941> 793 333<239.916 458.582>
LayerCount: 2
UndoRedoHistory
Layer: 1
Undoes
EndUndoes
Redoes
EndRedoes
EndUndoRedoHistory
Fore
SplineSet
237 0 m 1
 237 941 l 1
 18 941 l 1
 18 1184 l 1
 603 1184 l 1
 603 712 l 1
 608 712 l 2
 936 712 1126 628 1126 346 c 0
 1126 101 976 0 616 0 c 2
 237 0 l 1
603 208 m 1
 611 208 l 1
 742 211 793 246 793 343 c 0
 793 464 734 493 612 495 c 1
 603 495 l 1
 603 208 l 1
EndSplineSet
EndChar

StartChar: afii10093
Encoding: 400 1099 206
Width: 1585
VWidth: 0
Flags: W
HStem: 0 208<469 620.583> 495 217<469 617.379> 1164 20G<102 469 1116 1483>
VStem: 102 367<208 495 712 1184> 658 333<239.734 463.873> 1116 367<0 1184>
LayerCount: 2
UndoRedoHistory
Layer: 1
Undoes
EndUndoes
Redoes
EndRedoes
EndUndoRedoHistory
Fore
SplineSet
102 0 m 1
 102 1184 l 1
 469 1184 l 1
 469 712 l 1
 469 712 473 712 474 712 c 0
 802 712 991 628 991 346 c 0
 991 101 841 0 481 0 c 2
 102 0 l 1
469 208 m 1
 471 208 474 208 476 208 c 0
 607 211 658 245 658 343 c 0
 658 464 600 493 477 495 c 0
 475 495 472 495 469 495 c 1
 469 208 l 1
1116 0 m 1
 1116 1184 l 1
 1483 1184 l 1
 1483 0 l 1
 1116 0 l 1
EndSplineSet
EndChar

StartChar: afii10094
Encoding: 401 1100 207
Width: 1052
VWidth: 0
Flags: W
HStem: 0 208<469 620.583> 495 217<469 617.379> 1164 20G<102 469>
VStem: 102 367<208 495 712 1184> 658 333<239.734 463.873>
LayerCount: 2
UndoRedoHistory
Layer: 1
Undoes
EndUndoes
Redoes
EndRedoes
EndUndoRedoHistory
Fore
SplineSet
102 0 m 1
 102 1184 l 1
 469 1184 l 1
 469 712 l 1
 469 712 473 712 474 712 c 0
 802 712 991 628 991 346 c 0
 991 101 841 0 481 0 c 2
 102 0 l 1
469 208 m 1
 471 208 474 208 476 208 c 0
 607 211 658 245 658 343 c 0
 658 464 600 493 477 495 c 0
 475 495 472 495 469 495 c 1
 469 208 l 1
EndSplineSet
EndChar

StartChar: afii10095
Encoding: 402 1101 208
Width: 1014
VWidth: 0
Flags: W
HStem: -22 258<450.248 556.984> 509 146<300 567> 946 260<450.178 556.883>
VStem: 86 358<246.83 399 762 935.256> 567 369<247.104 509 655 935.028>
LayerCount: 2
UndoRedoHistory
Layer: 1
Undoes
EndUndoes
Redoes
EndRedoes
EndUndoRedoHistory
Fore
SplineSet
508 -22 m 0
 260 -22 86 93 86 330 c 2
 86 399 l 1
 444 399 l 1
 444 328 l 2
 444 248 474 236 508 236 c 0
 541 236 567 259 567 338 c 2
 567 509 l 1
 300 509 l 1
 300 655 l 1
 567 655 l 1
 567 845 l 2
 567 923 540 946 508 946 c 0
 473 946 444 932 444 854 c 2
 444 762 l 1
 86 762 l 1
 86 852 l 2
 86 1089 260 1206 508 1206 c 0
 758 1206 936 1069 936 831 c 2
 936 351 l 2
 936 113 758 -22 508 -22 c 0
EndSplineSet
EndChar

StartChar: afii10096
Encoding: 403 1102 209
Width: 1512
VWidth: 0
Flags: W
HStem: -22 260<960.641 1075.94> 0 21G<102 468> 464 261<468 605> 946 260<960.641 1075.94> 1164 20G<102 468>
VStem: 102 366<0 464 725 1184> 605 346<242.365 464 725 941.635> 1088 346<242.031 941.635>
LayerCount: 2
UndoRedoHistory
Layer: 1
Undoes
EndUndoes
Redoes
EndRedoes
EndUndoRedoHistory
Fore
SplineSet
1017 -22 m 0xb7
 779 -22 605 97 605 352 c 2
 605 464 l 1
 468 464 l 1
 468 0 l 1
 102 0 l 1
 102 1184 l 1
 468 1184 l 1x6f
 468 725 l 1
 605 725 l 1
 605 832 l 2
 605 1087 779 1206 1017 1206 c 0
 1256 1206 1434 1087 1434 832 c 2
 1434 352 l 2
 1434 96 1256 -22 1017 -22 c 0xb7
1018 238 m 0xb7
 1066 238 1088 267 1088 345 c 2
 1088 839 l 2
 1088 917 1066 946 1018 946 c 0
 973 946 951 914 951 839 c 2
 951 345 l 2
 951 270 973 238 1018 238 c 0xb7
EndSplineSet
EndChar

StartChar: afii10097
Encoding: 404 1103 210
Width: 1107
VWidth: 0
Flags: W
HStem: 0 21G<38 432.547 638 1005> 411 216<541 638> 976 208<474.401 638>
VStem: 72 333<689.616 918.882> 638 367<0 410 627 976>
LayerCount: 2
UndoRedoHistory
Layer: 1
Undoes
EndUndoes
Redoes
EndRedoes
EndUndoRedoHistory
Fore
SplineSet
38 0 m 1
 210 487 l 1
 120 543 72 666 72 809 c 0
 72 1015 192 1184 503 1184 c 2
 1005 1184 l 1
 1005 0 l 1
 638 0 l 1
 638 410 l 1
 637 410 564 410 541 411 c 1
 427 0 l 1
 38 0 l 1
629 627 m 2
 638 627 l 1
 638 976 l 1
 629 976 l 2
 488 976 405 913 405 812 c 0
 405 686 497 627 629 627 c 2
EndSplineSet
EndChar

StartChar: afii10098
Encoding: 405 1169 211
Width: 758
VWidth: 0
Flags: W
HStem: 0 21G<102 469>
VStem: 102 367<0 941> 552 186<1184 1451>
LayerCount: 2
UndoRedoHistory
Layer: 1
Undoes
EndUndoes
Redoes
EndRedoes
EndUndoRedoHistory
Fore
SplineSet
102 0 m 1
 102 1184 l 1
 552 1184 l 1
 552 1451 l 1
 738 1451 l 1
 738 941 l 1
 469 941 l 1
 469 0 l 1
 102 0 l 1
EndSplineSet
EndChar

StartChar: afii10099
Encoding: 406 1106 212
Width: 1078
VWidth: 0
Flags: W
HStem: -337 171<391 561.28> 0 21G<111 477> 734 246<502.916 840> 1199 175<-15 111 477 727> 1638 20G<111 477>
VStem: 111 366<0 727.619 926 1199 1374 1658> 636 367<-80.8209 722.234>
LayerCount: 2
UndoRedoHistory
Layer: 1
Undoes
EndUndoes
Redoes
EndRedoes
EndUndoRedoHistory
Fore
SplineSet
391 -337 m 1
 391 -166 l 1
 432 -166 l 2
 628 -166 636 -6 636 208 c 2
 636 602 l 2
 636 685 619 734 563 734 c 0
 539 734 510 726 477 710 c 1
 477 0 l 1
 111 0 l 1
 111 1199 l 1
 -15 1199 l 1
 -15 1374 l 1
 111 1374 l 1
 111 1658 l 1
 477 1658 l 1
 477 1374 l 1
 727 1374 l 1
 727 1199 l 1
 477 1199 l 1
 477 926 l 1
 572 962 655 980 724 980 c 0
 956 980 1003 780 1003 569 c 2
 1003 210 l 2
 1003 -245 853 -337 433 -337 c 2
 391 -337 l 1
EndSplineSet
EndChar

StartChar: afii10101
Encoding: 408 1108 214
Width: 982
VWidth: 0
Flags: W
HStem: -22 260<457.132 563.93> 529 147<447 715> 948 258<457.117 563.922>
VStem: 78 369<248.972 529 676 936.896> 570 358<248.744 451 757 937.17>
LayerCount: 2
UndoRedoHistory
Layer: 1
Undoes
EndUndoes
Redoes
EndRedoes
EndUndoRedoHistory
Fore
SplineSet
506 -22 m 0
 256 -22 78 115 78 353 c 2
 78 833 l 2
 78 1071 256 1206 506 1206 c 0
 755 1206 928 1091 928 854 c 2
 928 757 l 1
 570 757 l 1
 570 856 l 2
 570 935 541 948 506 948 c 0
 474 948 447 925 447 846 c 2
 447 676 l 1
 715 676 l 1
 715 529 l 1
 447 529 l 1
 447 339 l 2
 447 261 474 238 507 238 c 0
 541 238 570 252 570 330 c 2
 570 451 l 1
 928 451 l 1
 928 332 l 2
 928 95 755 -22 506 -22 c 0
EndSplineSet
EndChar

StartChar: afii10103
Encoding: 410 1110 216
Width: 532
VWidth: 0
Flags: W
HStem: 0 21G<88 455> 1164 20G<88 455> 1389 235<86 455>
VStem: 88 367<0 1184 1389 1624>
LayerCount: 2
UndoRedoHistory
Layer: 1
Undoes
EndUndoes
Redoes
EndRedoes
EndUndoRedoHistory
Fore
SplineSet
88 0 m 1
 88 1184 l 1
 455 1184 l 1
 455 0 l 1
 88 0 l 1
86 1389 m 1
 86 1624 l 1
 455 1624 l 1
 455 1389 l 1
 86 1389 l 1
EndSplineSet
EndChar

StartChar: afii10105
Encoding: 412 1112 218
Width: 546
VWidth: 0
Flags: W
HStem: -389 284<-16.0774 283> 1164 20G<123 489> 1390 235<121 489>
VStem: 123 366<-97.4778 1184 1390 1625>
LayerCount: 2
UndoRedoHistory
Layer: 1
Undoes
EndUndoes
Redoes
EndRedoes
EndUndoRedoHistory
Fore
SplineSet
-18 -359 m 1
 -18 -96 l 1
 2 -100 22 -105 41 -105 c 0
 86 -105 123 -85 123 -17 c 2
 123 1184 l 1
 489 1184 l 1
 489 -63 l 2
 489 -250 387 -389 179 -389 c 0
 108 -389 44 -376 -18 -359 c 1
121 1390 m 1
 121 1625 l 1
 489 1625 l 1
 489 1390 l 1
 121 1390 l 1
EndSplineSet
EndChar

StartChar: afii10106
Encoding: 413 1113 219
Width: 1749
VWidth: 0
Flags: W
HStem: 0 243<89 264.25> 0 208<1171 1325.85> 495 217<1171 1321.98> 941 243<690 805>
VStem: 805 366<208 495 712 941> 1362 333<239.541 462.998>
LayerCount: 2
UndoRedoHistory
Layer: 1
Undoes
EndUndoes
Redoes
EndRedoes
EndUndoRedoHistory
Fore
SplineSet
89 0 m 1xbc
 89 243 l 1xbc
 277 225 304 250 337 673 c 1
 381 1184 l 1
 1171 1184 l 1
 1171 712 l 1
 1179 712 l 2
 1506 712 1695 627 1695 346 c 0
 1695 101 1545 0 1187 0 c 2
 805 0 l 1x7c
 805 941 l 1
 690 941 l 1
 660 589 l 1
 623 79 541 -36 204 -12 c 0
 169 -10 130 -6 89 0 c 1xbc
1171 208 m 1x7c
 1174 208 1177 208 1180 208 c 0
 1311 210 1362 245 1362 343 c 0
 1362 465 1302 494 1178 495 c 0
 1176 495 1173 495 1171 495 c 1
 1171 208 l 1x7c
EndSplineSet
EndChar

StartChar: afii10107
Encoding: 414 1114 220
Width: 1542
VWidth: 0
Flags: W
HStem: 2 208<985 1122.7> 405 309<469 618> 497 217<985 1114.9> 1164 20G<102 469 618 985>
VStem: 102 367<0 405 714 1184> 618 367<210 405 714 1186> 1156 333<242.539 463.223>
LayerCount: 2
UndoRedoHistory
Layer: 1
Undoes
EndUndoes
Redoes
EndRedoes
EndUndoRedoHistory
Fore
SplineSet
102 0 m 1xde
 102 1184 l 1
 469 1184 l 1
 469 714 l 1
 618 714 l 1xde
 618 1186 l 1
 985 1186 l 1
 985 714 l 1
 992 714 999 714 1006 714 c 0xbe
 1313 708 1489 619 1489 348 c 0
 1489 104 1340 3 985 2 c 1
 618 2 l 1
 618 405 l 1
 469 405 l 1
 469 0 l 1
 102 0 l 1xde
985 210 m 1
 988 210 991 211 994 211 c 0
 1110 216 1156 252 1156 345 c 0
 1156 460 1103 492 993 497 c 0
 990 497 988 497 985 497 c 1xbe
 985 210 l 1
EndSplineSet
EndChar

StartChar: afii10108
Encoding: 415 1115 221
Width: 1097
VWidth: 0
Flags: W
HStem: 0 21G<111 477 636 1003> 734 246<502.994 840> 1199 175<-15 111 477 727> 1638 20G<111 477>
VStem: 111 366<0 727.227 926 1199 1374 1658> 636 367<0 722.234>
LayerCount: 2
UndoRedoHistory
Layer: 1
Undoes
EndUndoes
Redoes
EndRedoes
EndUndoRedoHistory
Fore
SplineSet
111 0 m 1
 111 1199 l 1
 -15 1199 l 1
 -15 1374 l 1
 111 1374 l 1
 111 1658 l 1
 477 1658 l 1
 477 1374 l 1
 727 1374 l 1
 727 1199 l 1
 477 1199 l 1
 477 926 l 1
 572 962 655 980 724 980 c 0
 956 980 1003 780 1003 569 c 2
 1003 0 l 1
 636 0 l 1
 636 602 l 2
 636 685 619 734 563 734 c 0
 540 734 510 726 477 710 c 1
 477 0 l 1
 111 0 l 1
EndSplineSet
EndChar

StartChar: afii10145
Encoding: 418 1039 224
Width: 1258
VWidth: 0
Flags: W
HStem: -375 21G<487.307 778.747> 1638 20G<120 526 732 1137>
VStem: 120 406<310 1658> 488 290<-375 0> 732 405<310 1658>
LayerCount: 2
UndoRedoHistory
Layer: 1
Undoes
EndUndoes
Redoes
EndRedoes
EndUndoRedoHistory
Fore
SplineSet
488 -375 m 1xd0
 475 0 l 1
 120 0 l 1
 120 1658 l 1
 526 1658 l 1
 526 310 l 1
 732 310 l 1
 732 1658 l 1
 1137 1658 l 1
 1137 0 l 1xe8
 792 0 l 1
 778 -375 l 1
 488 -375 l 1xd0
EndSplineSet
EndChar

StartChar: afii10193
Encoding: 419 1119 225
Width: 1103
VWidth: 0
Flags: W
HStem: 1164 20G<102 469 634 1000>
VStem: 102 367<218 1184> 432 261<-328 -123.556> 634 366<218 1184>
LayerCount: 2
UndoRedoHistory
Layer: 1
Undoes
EndUndoes
Redoes
EndRedoes
EndUndoRedoHistory
Fore
SplineSet
432 -328 m 1xa0
 409 0 l 1
 102 0 l 1
 102 1184 l 1
 469 1184 l 1
 469 218 l 1
 634 218 l 1
 634 1184 l 1
 1000 1184 l 1
 1000 0 l 1xd0
 714 0 l 1
 693 -328 l 1
 432 -328 l 1xa0
EndSplineSet
EndChar

StartChar: afii61289
Encoding: 420 8467 226
Width: 1327
VWidth: 0
Flags: W
LayerCount: 2
UndoRedoHistory
Layer: 1
Undoes
EndUndoes
Redoes
EndRedoes
EndUndoRedoHistory
Fore
SplineSet
471 483 m 1
 299 292 l 1
 191 423 l 1
 519 803 l 1
 638 1595 l 2
 728 2196 1852 2019 900 961 c 1
 747 790 l 1
 677 359 l 2
 639 119 807 105 970 287 c 1
 1070 148 l 1
 818 -131 385 -91 452 358 c 1
 471 483 l 1
803 1135 m 1
 1294 1747 914 1829 877 1595 c 2
 803 1135 l 1
EndSplineSet
EndChar

StartChar: ampersand
Encoding: 38 38 230
Width: 1145
VWidth: 0
Flags: W
HStem: -29 237<392.938 581.501> 1435 251<439.493 580.56>
VStem: 70 276<251.773 581.139> 139 286<1133.84 1424.32> 596 270<1171.12 1421.8> 828 227<508.439 831>
LayerCount: 2
UndoRedoHistory
Layer: 1
Undoes
EndUndoes
Redoes
EndRedoes
EndUndoRedoHistory
Fore
SplineSet
456 -29 m 0xc4
 233 -29 70 134 70 366 c 0xe4
 70 560 178 772 302 897 c 1
 228 1054 139 1173 139 1315 c 0
 139 1515 272 1686 491 1686 c 0
 704 1686 866 1548 866 1320 c 0xd8
 866 1085 706 964 594 837 c 1
 772 482 l 1
 806 537 827 725 828 831 c 1
 1055 831 l 1
 1055 566 1015 435 941 284 c 1
 965 254 1018 228 1068 222 c 1
 1068 -24 l 1
 1046 -29 1025 -35 1001 -35 c 0
 904 -35 817 48 751 106 c 1
 679 16 570 -29 456 -29 c 0xc4
463 208 m 0
 506 208 554 211 594 266 c 1
 594 266 449 597 426 653 c 1
 368 553 346 467 346 397 c 0
 346 274 415 208 463 208 c 0
495 1030 m 1
 519 1092 596 1253 596 1341 c 0
 596 1402 553 1435 509 1435 c 0
 465 1435 425 1401 425 1336 c 0xd8
 425 1247 487 1081 495 1030 c 1
EndSplineSet
EndChar

StartChar: approxequal
Encoding: 424 8776 232
Width: 1006
VWidth: 0
Flags: W
HStem: 377 250<554.911 755.133> 499 248<249.739 458.464> 838 250<554.911 755.133> 960 248<249.739 458.464> 1170 20G<789 831.488>
LayerCount: 2
UndoRedoHistory
Layer: 1
Undoes
EndUndoes
Redoes
EndRedoes
EndUndoRedoHistory
Fore
SplineSet
689 377 m 0x80
 569 377 409 499 335 499 c 0
 307 499 243 466 198 394 c 1
 85 543 l 1
 135 639 231 747 325 747 c 0x40
 445 747 605 627 674 627 c 0
 710 627 767 675 811 729 c 1
 937 606 l 1
 895 494 789 377 689 377 c 0x80
689 838 m 0x28
 569 838 409 960 335 960 c 0
 307 960 243 927 198 855 c 1
 85 1004 l 1
 135 1100 231 1208 325 1208 c 0x10
 445 1208 605 1088 674 1088 c 0
 710 1088 767 1136 811 1190 c 1
 937 1067 l 1
 895 955 789 838 689 838 c 0x28
EndSplineSet
EndChar

StartChar: asciicircum
Encoding: 94 94 234
Width: 993
VWidth: 0
Flags: W
HStem: 1638 20G<349.358 642.699>
LayerCount: 2
UndoRedoHistory
Layer: 1
Undoes
EndUndoes
Redoes
EndRedoes
EndUndoRedoHistory
Fore
SplineSet
59 966 m 1
 358 1658 l 1
 634 1658 l 1
 935 966 l 1
 631 966 l 1
 495 1338 l 1
 360 966 l 1
 59 966 l 1
EndSplineSet
EndChar

StartChar: asciitilde
Encoding: 126 126 235
Width: 1006
VWidth: 0
Flags: W
HStem: 663 250<554.911 755.133> 785 248<249.739 458.464>
LayerCount: 2
UndoRedoHistory
Layer: 1
Undoes
EndUndoes
Redoes
EndRedoes
EndUndoRedoHistory
Fore
SplineSet
689 663 m 0x80
 569 663 409 785 335 785 c 0
 307 785 243 752 198 680 c 1
 85 829 l 1
 135 925 231 1033 325 1033 c 0x40
 445 1033 605 913 674 913 c 0
 710 913 767 960 811 1015 c 1
 937 891 l 1
 895 779 789 663 689 663 c 0x80
EndSplineSet
EndChar

StartChar: asterisk
Encoding: 42 42 236
Width: 880
VWidth: 0
Flags: W
HStem: 1638 20G<321 594>
LayerCount: 2
UndoRedoHistory
Layer: 1
Undoes
EndUndoes
Redoes
EndRedoes
EndUndoRedoHistory
Fore
SplineSet
363 911 m 1
 148 1038 l 1
 290 1241 l 1
 77 1323 l 1
 158 1539 l 1
 348 1434 l 1
 321 1658 l 1
 594 1658 l 1
 569 1432 l 1
 759 1540 l 1
 840 1321 l 1
 625 1239 l 1
 771 1039 l 1
 553 911 l 1
 457 1117 l 1
 363 911 l 1
EndSplineSet
EndChar

StartChar: at
Encoding: 64 64 237
Width: 1973
VWidth: 0
Flags: W
HStem: -254 212<703.32 1323.88> 205 1045<1193.92 1473> 993 267<962.244 1099.25> 1452 207<825.251 1381.67>
VStem: 539 310<503.832 860.805>
LayerCount: 2
UndoRedoHistory
Layer: 1
Undoes
EndUndoes
Redoes
EndRedoes
EndUndoRedoHistory
Fore
SplineSet
968 -254 m 0xd8
 311 -254 29 145 117 759 c 1
 188 1271 542 1659 1131 1659 c 0
 1729 1659 1976 1289 1913 762 c 0
 1887 537 1744 205 1385 205 c 0xd8
 1274 205 1144 244 1101 346 c 1
 1065 278 985 233 905 226 c 0
 668 206 525 405 539 663 c 0
 550 882 663 1260 998 1260 c 0xb8
 1116 1260 1143 1136 1156 1092 c 1
 1176 1250 l 1
 1473 1250 l 1
 1392 605 l 2
 1387 565 1365 428 1406 411 c 0
 1501 373 1638 535 1665 764 c 0
 1716 1192 1564 1452 1103 1452 c 0
 620 1452 424 1121 370 761 c 0
 296 276 445 -42 1003 -42 c 0
 1104 -42 1302 -12 1419 29 c 1
 1456 -189 l 1
 1302 -223 1128 -254 968 -254 c 0xd8
984 462 m 1
 987 463 1059 456 1078 475 c 1
 1138 958 l 2
 1141 985 1094 993 1077 993 c 0xb8
 914 993 851 801 849 662 c 0
 848 555 882 462 984 462 c 1
EndSplineSet
EndChar

StartChar: b
Encoding: 98 98 239
Width: 1071
VWidth: 0
Flags: W
HStem: -1 1G<102 469 693.5 811.5> 1638 20G<102 469>
VStem: 102 367<0 90 210.964 987.655 1099 1658> 618 367<217.47 990.519>
LayerCount: 2
UndoRedoHistory
Layer: 1
Undoes
EndUndoes
Redoes
EndRedoes
EndUndoRedoHistory
Fore
SplineSet
737 -22 m 0
 650 -22 555 19 469 90 c 1
 469 0 l 1
 102 0 l 1
 102 1658 l 1
 469 1658 l 1
 469 1099 l 1
 560 1176 658 1210 738 1206 c 0
 896 1199 985 1091 985 885 c 2
 985 310 l 2
 985 98 886 -22 737 -22 c 0
543 206 m 0
 591 205 618 241 618 286 c 2
 618 918 l 2
 618 963 590 1003 543 997 c 0
 524 994 496 981 469 962 c 1
 469 231 l 1
 494 216 521 206 543 206 c 0
EndSplineSet
EndChar

StartChar: backslash
Encoding: 92 92 240
Width: 897
VWidth: 0
Flags: W
HStem: 0 21G<617.643 799> 1638 20G<97 280.333>
LayerCount: 2
UndoRedoHistory
Layer: 1
Undoes
EndUndoes
Redoes
EndRedoes
EndUndoRedoHistory
Fore
SplineSet
624 0 m 1
 97 1658 l 1
 274 1658 l 1
 799 0 l 1
 624 0 l 1
EndSplineSet
EndChar

StartChar: bar
Encoding: 124 124 241
Width: 551
VWidth: 0
Flags: W
HStem: -387 21G<128 422> 1638 20G<128.99 422>
VStem: 128 294<-387 1658>
LayerCount: 2
UndoRedoHistory
Layer: 1
Undoes
EndUndoes
Redoes
EndRedoes
EndUndoRedoHistory
Fore
SplineSet
128 -387 m 1
 129 1658 l 1
 422 1658 l 1
 422 -387 l 1
 128 -387 l 1
EndSplineSet
EndChar

StartChar: braceleft
Encoding: 123 123 242
Width: 810
VWidth: 0
Flags: W
HStem: -396 240<606.32 742> 1461 240<606.32 742>
VStem: 239 331<-129.658 497.524 806.626 1433.78>
LayerCount: 2
UndoRedoHistory
Layer: 1
Undoes
EndUndoes
Redoes
EndRedoes
EndUndoRedoHistory
Fore
SplineSet
742 -396 m 1
 285 -396 239 -262 239 50 c 2
 239 177 l 2
 239 489 238 519 102 519 c 1
 102 785 l 1
 238 785 239 815 239 1127 c 2
 239 1254 l 2
 239 1566 285 1701 742 1701 c 1
 742 1461 l 1
 596 1461 570 1432 570 1230 c 2
 570 1086 l 2
 570 845 540 689 380 652 c 1
 540 615 570 459 570 219 c 2
 570 74 l 2
 570 -127 596 -156 742 -156 c 1
 742 -396 l 1
EndSplineSet
EndChar

StartChar: braceright
Encoding: 125 125 243
Width: 812
VWidth: 0
Flags: W
HStem: -396 240<71 206.647> 1461 240<71 206.647>
VStem: 243 330<-129.658 497.524 806.626 1433.78>
LayerCount: 2
UndoRedoHistory
Layer: 1
Undoes
EndUndoes
Redoes
EndRedoes
EndUndoRedoHistory
Fore
SplineSet
71 -396 m 1
 71 -156 l 1
 217 -156 243 -127 243 74 c 2
 243 219 l 2
 243 459 273 615 433 652 c 1
 273 689 243 845 243 1086 c 2
 243 1230 l 2
 243 1432 217 1461 71 1461 c 1
 71 1701 l 1
 528 1701 573 1566 573 1254 c 2
 573 1127 l 2
 573 815 575 785 710 785 c 1
 710 519 l 1
 575 519 573 489 573 177 c 2
 573 50 l 2
 573 -262 528 -396 71 -396 c 1
EndSplineSet
EndChar

StartChar: bracketleft
Encoding: 91 91 244
Width: 675
VWidth: 0
Flags: W
HStem: -378 133<370 630> 1525 133<372 632>
VStem: 99 271<-245 1525>
LayerCount: 2
UndoRedoHistory
Layer: 1
Undoes
EndUndoes
Redoes
EndRedoes
EndUndoRedoHistory
Fore
SplineSet
99 -378 m 1
 101 1658 l 1
 632 1658 l 1
 632 1525 l 1
 372 1525 l 1
 370 -245 l 1
 630 -245 l 1
 630 -378 l 1
 99 -378 l 1
EndSplineSet
EndChar

StartChar: bracketright
Encoding: 93 93 245
Width: 672
VWidth: 0
Flags: W
HStem: -378 133<42 302> 1525 133<40 300>
VStem: 302 271<-245 1525>
LayerCount: 2
UndoRedoHistory
Layer: 1
Undoes
EndUndoes
Redoes
EndRedoes
EndUndoRedoHistory
Fore
SplineSet
42 -378 m 1
 42 -245 l 1
 302 -245 l 1
 300 1525 l 1
 40 1525 l 1
 40 1658 l 1
 571 1658 l 1
 573 -378 l 1
 42 -378 l 1
EndSplineSet
EndChar

StartChar: breve
Encoding: 425 728 246
Width: 652
VWidth: 0
Flags: W
HStem: 1420 138<208.308 406.066> 1638 20G<47 197 418 567>
VStem: 47 150<1571 1658> 418 149<1571.39 1658>
LayerCount: 2
UndoRedoHistory
Layer: 1
Undoes
EndUndoes
Redoes
EndRedoes
EndUndoRedoHistory
Fore
SplineSet
307 1420 m 0
 158 1420 47 1499 47 1658 c 1
 197 1658 l 1
 197 1590 226 1558 307 1558 c 0
 388 1558 418 1591 418 1658 c 1
 567 1658 l 1
 567 1500 456 1420 307 1420 c 0
EndSplineSet
EndChar

StartChar: brokenbar
Encoding: 166 166 247
Width: 447
VWidth: 0
Flags: W
HStem: -387 21G<99 348> 1638 20G<99 348>
VStem: 99 249<-387 447 824 1658>
LayerCount: 2
UndoRedoHistory
Layer: 1
Undoes
EndUndoes
Redoes
EndRedoes
EndUndoRedoHistory
Fore
SplineSet
99 -387 m 1
 99 447 l 1
 348 447 l 1
 348 -387 l 1
 99 -387 l 1
99 824 m 1
 99 1658 l 1
 348 1658 l 1
 348 824 l 1
 99 824 l 1
EndSplineSet
EndChar

StartChar: bullet
Encoding: 426 8226 248
Width: 1048
VWidth: 0
Flags: W
HStem: 333 841<331.403 701.923>
VStem: 116 812<557.461 947.196>
LayerCount: 2
UndoRedoHistory
Layer: 1
Undoes
EndUndoes
Redoes
EndRedoes
EndUndoRedoHistory
Fore
SplineSet
520 333 m 0
 324 333 116 470 116 750 c 0
 116 1037 325 1174 520 1174 c 0
 718 1174 928 1032 928 750 c 0
 928 471 717 333 520 333 c 0
EndSplineSet
EndChar

StartChar: c
Encoding: 99 99 249
Width: 994
VWidth: 0
Flags: W
HStem: -22 250<457.117 563.822> 958 248<457.117 563.922>
VStem: 78 369<230.015 955.801> 570 358<239.126 494 712 955.947>
AnchorPoint: "cedilla" 461 0 basechar 0
LayerCount: 2
UndoRedoHistory
Layer: 1
Undoes
EndUndoes
Redoes
EndRedoes
EndUndoRedoHistory
Fore
SplineSet
506 -22 m 0
 256 -22 78 115 78 353 c 2
 78 833 l 2
 78 1071 256 1206 506 1206 c 0
 755 1206 928 1091 928 854 c 2
 928 712 l 1
 570 712 l 1
 570 866 l 2
 570 945 541 958 506 958 c 0
 474 958 447 934 447 856 c 2
 447 330 l 2
 447 251 474 228 506 228 c 0
 541 228 570 242 570 320 c 2
 570 494 l 1
 928 494 l 1
 928 332 l 2
 928 95 754 -22 506 -22 c 0
EndSplineSet
EndChar

StartChar: caron
Encoding: 428 711 251
Width: 862
VWidth: 0
Flags: W
HStem: 1270 388<251 330 528 601>
LayerCount: 2
UndoRedoHistory
Layer: 1
Undoes
EndUndoes
Redoes
EndRedoes
EndUndoRedoHistory
Fore
SplineSet
251 1270 m 1
 74 1658 l 1
 330 1658 l 1
 427 1440 l 1
 528 1658 l 1
 784 1658 l 1
 601 1270 l 1
 251 1270 l 1
EndSplineSet
EndChar

StartChar: cedilla
Encoding: 184 184 256
Width: 578
VWidth: 0
Flags: W
HStem: -567 153<124 364.328>
VStem: 180 126<-141 0> 373 230<-417.794 -298.573>
AnchorPoint: "cedilla" 230 0 mark 0
LayerCount: 2
UndoRedoHistory
Layer: 1
Undoes
EndUndoes
Redoes
EndRedoes
EndUndoRedoHistory
Fore
SplineSet
124 -567 m 1
 124 -414 l 1
 189 -432 373 -448 373 -375 c 0
 373 -289 256 -258 180 -257 c 1
 180 0 l 1
 306 0 l 1
 306 -141 l 1
 473 -142 602 -228 603 -356 c 1
 603 -585 326 -628 124 -567 c 1
EndSplineSet
EndChar

StartChar: cent
Encoding: 162 162 257
Width: 977
VWidth: 0
Flags: W
VStem: 73 368<246.05 939.793> 454 91<-302 -16.9752 1200.99 1482> 565 358<244.259 494 712 941.685>
LayerCount: 2
UndoRedoHistory
Layer: 1
Undoes
EndUndoes
Redoes
EndRedoes
EndUndoRedoHistory
Fore
SplineSet
454 -302 m 1
 454 -20 l 1
 229 -4 73 130 73 353 c 2
 73 833 l 2
 73 1056 229 1188 454 1204 c 1
 454 1482 l 1
 545 1482 l 1
 545 1204 l 1
 770 1192 923 1077 923 854 c 2
 923 712 l 1
 565 712 l 1
 565 856 l 2
 565 935 535 948 501 948 c 0
 468 948 441 925 441 846 c 2
 441 339 l 2
 441 261 468 238 501 238 c 0
 535 238 565 252 565 330 c 2
 565 494 l 1
 923 494 l 1
 923 332 l 2
 923 109 770 -7 545 -20 c 1
 545 -302 l 1
 454 -302 l 1
EndSplineSet
EndChar

StartChar: circumflex
Encoding: 432 710 258
Width: 869
VWidth: 0
Flags: W
HStem: 1254 404<298 367 525 586>
LayerCount: 2
UndoRedoHistory
Layer: 1
Undoes
EndUndoes
Redoes
EndRedoes
EndUndoRedoHistory
Fore
SplineSet
100 1254 m 1
 298 1658 l 1
 586 1658 l 1
 792 1254 l 1
 525 1254 l 1
 445 1499 l 1
 367 1254 l 1
 100 1254 l 1
EndSplineSet
EndChar

StartChar: colon
Encoding: 58 58 259
Width: 617
VWidth: 0
Flags: W
HStem: 91 334<141 479> 841 334<141 479>
VStem: 141 338<91 425 841 1175>
LayerCount: 2
UndoRedoHistory
Layer: 1
Undoes
EndUndoes
Redoes
EndRedoes
EndUndoRedoHistory
Fore
SplineSet
141 91 m 1
 141 425 l 1
 479 425 l 1
 479 91 l 1
 141 91 l 1
141 841 m 1
 141 1175 l 1
 479 1175 l 1
 479 841 l 1
 141 841 l 1
EndSplineSet
EndChar

StartChar: comma
Encoding: 44 44 260
Width: 519
VWidth: 0
Flags: W
HStem: -290 110<145 227.366> 0 337<91 283>
VStem: 91 341<3.47585 337> 283 149<-122.991 0>
LayerCount: 2
UndoRedoHistory
Layer: 1
Undoes
EndUndoes
Redoes
EndRedoes
EndUndoRedoHistory
Fore
SplineSet
145 -290 m 1xe0
 129 -180 l 1
 201 -164 283 -128 283 0 c 1xd0
 91 0 l 1
 91 337 l 1
 432 337 l 1
 432 53 l 1
 431 -166 336 -287 145 -290 c 1xe0
EndSplineSet
EndChar

StartChar: copyright
Encoding: 169 169 261
Width: 1822
VWidth: 0
Flags: W
HStem: -28 80<662.516 1162.74> 252 246<855.385 971.568> 1169 243<855.293 971.568> 1598 87<651.5 1173.38>
VStem: 96 95<540.491 1115.54> 448 396<509.223 1165.69> 978 385<508.963 739 945 1157.91> 1635 90<540.079 1115.54>
CounterMasks: 1 0f
LayerCount: 2
UndoRedoHistory
Layer: 1
Undoes
EndUndoes
Redoes
EndRedoes
EndUndoRedoHistory
Fore
SplineSet
909 252 m 0
 640 252 448 382 448 608 c 2
 448 1058 l 2
 448 1284 640 1412 909 1412 c 0
 1176 1412 1363 1304 1363 1079 c 2
 1363 945 l 1
 978 945 l 1
 978 1081 l 2
 978 1156 946 1169 909 1169 c 0
 873 1169 844 1146 844 1071 c 2
 844 595 l 2
 844 519 874 498 909 498 c 0
 946 498 978 511 978 585 c 2
 978 739 l 1
 1363 739 l 1
 1363 588 l 2
 1363 363 1176 252 909 252 c 0
914 52 m 0
 1415 52 1635 436 1635 827 c 0
 1635 1219 1415 1598 914 1598 c 0
 410 1598 191 1219 191 827 c 0
 191 436 410 52 914 52 c 0
912 -28 m 0
 332 -28 96 417 96 829 c 0
 96 1242 332 1685 912 1685 c 0
 1490 1685 1725 1242 1725 829 c 0
 1725 415 1492 -28 912 -28 c 0
EndSplineSet
EndChar

StartChar: currency
Encoding: 164 164 262
Width: 1138
VWidth: 0
Flags: W
HStem: 428 93<407.785 730.89> 1211 93<407.785 730.89>
VStem: 136 99<693.746 1038.64> 904 98<693.746 1038.64>
LayerCount: 2
UndoRedoHistory
Layer: 1
Undoes
EndUndoes
Redoes
EndRedoes
EndUndoRedoHistory
Fore
SplineSet
114 381 m 1
 84 411 l 1
 247 573 l 1
 178 650 136 754 136 866 c 0
 136 979 178 1082 247 1159 c 1
 84 1321 l 1
 114 1351 l 1
 276 1189 l 1
 352 1261 455 1305 569 1304 c 1
 683 1305 786 1261 862 1189 c 1
 1024 1351 l 1
 1054 1321 l 1
 892 1159 l 1
 960 1082 1002 979 1002 866 c 0
 1002 754 960 650 891 573 c 1
 1054 411 l 1
 1024 381 l 1
 862 543 l 1
 786 471 683 427 569 428 c 1
 455 427 352 471 276 543 c 1
 114 381 l 1
569 521 m 0
 759 521 904 677 904 866 c 0
 904 1056 759 1211 569 1211 c 0
 380 1211 235 1056 235 866 c 0
 235 677 380 521 569 521 c 0
EndSplineSet
EndChar

StartChar: d
Encoding: 100 100 263
Width: 1068
VWidth: 0
Flags: W
HStem: -22 225<269 534> 0 21G<599 966> 987 219<273.5 539> 1638 20G<599 966>
VStem: 86 369<208.415 980.02> 599 367<0 96 208.788 983.915 1111 1658>
LayerCount: 2
UndoRedoHistory
Layer: 1
Undoes
EndUndoes
Redoes
EndRedoes
EndUndoRedoHistory
Fore
SplineSet
353 -22 m 0xbc
 185 -22 86 98 86 309 c 2
 86 874 l 2
 86 1077 191 1206 356 1206 c 0
 445 1206 529 1170 599 1111 c 1
 599 1658 l 1
 966 1658 l 1
 966 0 l 1
 599 0 l 1x7c
 599 96 l 1
 521 20 435 -22 353 -22 c 0xbc
525 203 m 0xbc
 543 203 572 213 599 229 c 1
 599 968 l 1
 576 980 549 987 529 987 c 0
 479 987 455 948 455 892 c 2
 455 287 l 2
 455 242 480 203 525 203 c 0xbc
EndSplineSet
EndChar

StartChar: dagger
Encoding: 433 8224 264
Width: 859
VWidth: 0
Flags: W
HStem: 0 21G<291 574> 982 207<57 291 574 802> 1638 20G<291 574>
VStem: 291 283<0 982 1189 1658>
LayerCount: 2
UndoRedoHistory
Layer: 1
Undoes
EndUndoes
Redoes
EndRedoes
EndUndoRedoHistory
Fore
SplineSet
291 0 m 1
 291 982 l 1
 57 982 l 1
 57 1189 l 1
 291 1189 l 1
 291 1658 l 1
 574 1658 l 1
 574 1189 l 1
 802 1189 l 1
 802 982 l 1
 574 982 l 1
 574 0 l 1
 291 0 l 1
EndSplineSet
EndChar

StartChar: daggerdbl
Encoding: 434 8225 265
Width: 859
VWidth: 0
Flags: W
HStem: 0 21G<292 574> 482 192<57 292 574 802> 979 206<57 292 574 802> 1638 20G<292 574>
VStem: 292 282<0 482 674 979 1185 1658>
LayerCount: 2
UndoRedoHistory
Layer: 1
Undoes
EndUndoes
Redoes
EndRedoes
EndUndoRedoHistory
Fore
SplineSet
292 0 m 1
 292 482 l 1
 57 482 l 1
 57 674 l 1
 292 674 l 1
 292 979 l 1
 57 979 l 1
 57 1185 l 1
 292 1185 l 1
 292 1658 l 1
 574 1658 l 1
 574 1185 l 1
 802 1185 l 1
 802 979 l 1
 574 979 l 1
 574 674 l 1
 802 674 l 1
 802 482 l 1
 574 482 l 1
 574 0 l 1
 292 0 l 1
EndSplineSet
EndChar

StartChar: dcroat
Encoding: 436 273 267
Width: 1051
VWidth: 0
Flags: W
HStem: -22 225<261.5 526> 0 21G<586 953> 987 219<265.5 531> 1395 138<300 586 953 1046> 1638 20G<586 953>
VStem: 78 369<208.415 980.02> 586 367<0 96 207.683 984.81 1111 1395 1533 1658>
LayerCount: 2
UndoRedoHistory
Layer: 1
Undoes
EndUndoes
Redoes
EndRedoes
EndUndoRedoHistory
Fore
SplineSet
346 -22 m 0xbe
 177 -22 78 98 78 309 c 2
 78 874 l 2
 78 1077 183 1206 348 1206 c 0
 437 1206 516 1170 586 1111 c 1
 586 1395 l 1
 300 1395 l 1
 300 1533 l 1
 586 1533 l 1
 586 1658 l 1
 953 1658 l 1
 953 1533 l 1
 1046 1533 l 1
 1046 1395 l 1
 953 1395 l 1
 953 0 l 1
 586 0 l 1x7e
 586 96 l 1
 509 20 428 -22 346 -22 c 0xbe
517 203 m 0xbe
 535 203 559 213 586 229 c 1
 586 968 l 1
 563 980 541 987 521 987 c 0
 471 987 447 948 447 892 c 2
 447 287 l 2
 447 242 472 203 517 203 c 0xbe
EndSplineSet
EndChar

StartChar: degree
Encoding: 176 176 268
Width: 1158
VWidth: 0
Flags: W
HStem: 836 191<449.175 707.472> 1490 193<444.097 712.425>
VStem: 147 222<1105.81 1414.49> 787 224<1105.41 1414.08>
LayerCount: 2
UndoRedoHistory
Layer: 1
Undoes
EndUndoes
Redoes
EndRedoes
EndUndoRedoHistory
Fore
SplineSet
578 1027 m 0
 712 1027 787 1124 787 1260 c 0
 787 1395 713 1490 578 1490 c 0
 445 1490 369 1397 369 1260 c 0
 369 1125 445 1027 578 1027 c 0
578 836 m 0
 320 836 147 1007 147 1260 c 0
 147 1516 321 1683 578 1683 c 0
 835 1683 1011 1516 1011 1260 c 0
 1011 1006 838 836 578 836 c 0
EndSplineSet
EndChar

StartChar: dieresis
Encoding: 168 168 269
Width: 884
VWidth: 0
Flags: W
HStem: 1334 324<67 346 537 817>
VStem: 67 279<1334 1658> 537 280<1334 1658>
LayerCount: 2
UndoRedoHistory
Layer: 1
Undoes
EndUndoes
Redoes
EndRedoes
EndUndoRedoHistory
Fore
SplineSet
67 1334 m 1
 67 1658 l 1
 346 1658 l 1
 346 1334 l 1
 67 1334 l 1
537 1334 m 1
 537 1658 l 1
 817 1658 l 1
 817 1334 l 1
 537 1334 l 1
EndSplineSet
EndChar

StartChar: divide
Encoding: 247 247 270
Width: 1000
VWidth: 0
Flags: W
HStem: 364 261<407 621> 771 184<82 918> 1089 261<407 621>
VStem: 407 214<364 625 1089 1350>
LayerCount: 2
UndoRedoHistory
Layer: 1
Undoes
EndUndoes
Redoes
EndRedoes
EndUndoRedoHistory
Fore
SplineSet
407 364 m 1
 407 625 l 1
 621 625 l 1
 621 364 l 1
 407 364 l 1
82 771 m 1
 82 955 l 1
 918 955 l 1
 918 771 l 1
 82 771 l 1
407 1089 m 1
 407 1350 l 1
 621 1350 l 1
 621 1089 l 1
 407 1089 l 1
EndSplineSet
EndChar

StartChar: dollar
Encoding: 36 36 271
Width: 990
VWidth: 0
Flags: W
VStem: 34 397<1125.59 1376.82> 34 345<326.14 512> 466 113<-244 -21.6696 1677.37 1891> 563 402<286.705 539.819>
LayerCount: 2
UndoRedoHistory
Layer: 1
Undoes
EndUndoes
Redoes
EndRedoes
EndUndoRedoHistory
Fore
SplineSet
466 -244 m 1x20
 466 -24 l 1
 182 -8 43 141 34 512 c 1
 379 557 l 1x60
 379 331 430 280 495 280 c 0
 559 280 563 343 563 378 c 0
 563 515 496 595 380 694 c 2
 276 783 l 2
 147 894 34 1008 34 1235 c 0
 34 1501 199 1656 457 1680 c 1
 457 1891 l 1
 572 1891 l 1
 572 1682 l 1
 914 1660 932 1358 933 1200 c 1
 580 1165 l 1
 580 1308 579 1391 507 1391 c 1
 451 1390 431 1315 431 1275 c 0
 431 1134 525 1062 606 990 c 2
 702 905 l 1
 848 774 965 632 965 397 c 0x90
 965 182 819 3 579 -23 c 1
 579 -244 l 1
 466 -244 l 1x20
EndSplineSet
EndChar

StartChar: dotlessi
Encoding: 438 305 273
Width: 606
VWidth: 0
Flags: W
HStem: 0 21G<120 487> 1164 20G<120 487>
VStem: 120 367<0 1184>
LayerCount: 2
UndoRedoHistory
Layer: 1
Undoes
EndUndoes
Redoes
EndRedoes
EndUndoRedoHistory
Fore
SplineSet
120 0 m 1
 120 1184 l 1
 487 1184 l 1
 487 0 l 1
 120 0 l 1
EndSplineSet
EndChar

StartChar: e
Encoding: 101 101 274
Width: 991
VWidth: 0
Flags: W
HStem: -22 260<454.693 574.258> 567 166<441 582> 946 260<449.202 574.605>
VStem: 78 363<248.972 567 733 935.028> 582 336<249.414 424 733 940.131>
AnchorPoint: "ogonek" 504 0 basechar 0
LayerCount: 2
UndoRedoHistory
Layer: 1
Undoes
EndUndoes
Redoes
EndRedoes
EndUndoRedoHistory
Fore
SplineSet
506 -22 m 0
 257 -22 78 115 78 353 c 2
 78 831 l 2
 78 1069 257 1206 506 1206 c 0
 757 1206 918 1086 918 846 c 2
 918 567 l 1
 441 567 l 1
 441 341 l 2
 441 264 472 238 506 238 c 0
 541 238 582 252 582 330 c 2
 582 424 l 1
 918 424 l 1
 918 333 l 2
 918 95 754 -22 506 -22 c 0
441 733 m 1
 582 733 l 1
 582 854 l 2
 582 933 541 946 506 946 c 0
 473 946 441 923 441 844 c 2
 441 733 l 1
EndSplineSet
EndChar

StartChar: eight
Encoding: 56 56 282
Width: 1122
VWidth: 0
Flags: W
HStem: -29 274<494.825 625.76> 712 289<502.369 613.176> 1403 280<501.273 616.444>
VStem: 93 373<265.366 694.659> 121 353<1020.92 1387.79> 642 353<1020.25 1387.6> 654 374<264.504 695.074>
CounterMasks: 1 e0
LayerCount: 2
UndoRedoHistory
Layer: 1
Undoes
EndUndoes
Redoes
EndRedoes
EndUndoRedoHistory
Fore
SplineSet
560 -29 m 0xe2
 213 -29 89 194 93 502 c 1xf2
 96 650 147 812 280 873 c 1
 202 930 126 1046 121 1230 c 0
 113 1515 272 1683 560 1683 c 0
 850 1683 1003 1512 995 1230 c 0xec
 990 1046 918 928 839 873 c 1
 970 812 1024 651 1028 502 c 0
 1037 192 911 -29 560 -29 c 0xe2
560 245 m 0
 656 245 654 398 654 469 c 0
 655 587 657 712 560 712 c 0
 464 712 466 587 466 469 c 0
 466 396 465 245 560 245 c 0
560 1001 m 0
 609 1001 642 1067 642 1240 c 0
 642 1344 611 1403 560 1403 c 0
 505 1403 474 1344 474 1241 c 0xec
 474 1067 505 1001 560 1001 c 0
EndSplineSet
EndChar

StartChar: ellipsis
Encoding: 442 8230 283
Width: 1426
VWidth: 0
Flags: W
HStem: 0 336<57 400 537 880 1026 1370>
VStem: 57 343<0 336> 537 343<0 336> 1026 344<1 337>
CounterMasks: 1 70
LayerCount: 2
UndoRedoHistory
Layer: 1
Undoes
EndUndoes
Redoes
EndRedoes
EndUndoRedoHistory
Fore
SplineSet
57 0 m 1
 57 336 l 1
 400 336 l 1
 400 0 l 1
 57 0 l 1
537 0 m 1
 537 336 l 1
 880 336 l 1
 880 0 l 1
 537 0 l 1
1026 1 m 1
 1026 337 l 1
 1370 337 l 1
 1370 1 l 1
 1026 1 l 1
EndSplineSet
EndChar

StartChar: emdash
Encoding: 444 8212 285
Width: 2048
VWidth: 0
Flags: W
HStem: 707 246<2 2046>
LayerCount: 2
UndoRedoHistory
Layer: 1
Undoes
EndUndoes
Redoes
EndRedoes
EndUndoRedoHistory
Fore
SplineSet
2 707 m 1
 2 953 l 1
 2046 953 l 1
 2046 707 l 1
 2 707 l 1
EndSplineSet
EndChar

StartChar: endash
Encoding: 445 8211 286
Width: 1024
VWidth: 0
Flags: W
HStem: 701 246<2 1022>
LayerCount: 2
UndoRedoHistory
Layer: 1
Undoes
EndUndoes
Redoes
EndRedoes
EndUndoRedoHistory
Fore
SplineSet
2 701 m 1
 2 947 l 1
 1022 947 l 1
 1022 701 l 1
 2 701 l 1
EndSplineSet
EndChar

StartChar: eng
Encoding: 446 331 287
Width: 1029
VWidth: 0
Flags: W
HStem: -405 222<379 565.366> 0 21G<85 452> 1164 20G<85 452 686 809.5>
VStem: 85 367<0 939.735 1084 1184> 602 367<-145.385 950.403>
LayerCount: 2
UndoRedoHistory
Layer: 1
Undoes
EndUndoes
Redoes
EndRedoes
EndUndoRedoHistory
Fore
SplineSet
379 -405 m 1
 379 -183 l 1
 564 -183 602 -151 602 -10 c 2
 602 876 l 2
 602 926 588 953 544 951 c 0
 521 949 488 940 452 917 c 1
 452 0 l 1
 85 0 l 1
 85 1184 l 1
 452 1184 l 1
 452 1084 l 1
 543 1176 635 1206 737 1206 c 0
 882 1206 969 1090 969 919 c 2
 969 -12 l 2
 969 -302 873 -405 517 -405 c 2
 379 -405 l 1
EndSplineSet
EndChar

StartChar: equal
Encoding: 61 61 289
Width: 924
VWidth: 0
Flags: W
HStem: 487 213<133 791> 883 213<133 791>
VStem: 133 658<487 700 883 1096>
LayerCount: 2
UndoRedoHistory
Layer: 1
Undoes
EndUndoes
Redoes
EndRedoes
EndUndoRedoHistory
Fore
SplineSet
133 487 m 1
 133 700 l 1
 791 700 l 1
 791 487 l 1
 133 487 l 1
133 883 m 1
 133 1096 l 1
 791 1096 l 1
 791 883 l 1
 133 883 l 1
EndSplineSet
EndChar

StartChar: estimated
Encoding: 448 8494 290
Width: 980
VWidth: 0
Flags: W
HStem: -22 83<404.693 629.133> 567 96<378 654> 1126 80<400.746 628.122>
VStem: 76 302<129.629 567 663 1046.84> 654 262<121.055 472 663 1065>
CounterMasks: 1 e0
LayerCount: 2
UndoRedoHistory
Layer: 1
Undoes
EndUndoes
Redoes
EndRedoes
EndUndoRedoHistory
Fore
SplineSet
506 -22 m 0
 256 -22 76 65 76 304 c 2
 76 871 l 2
 76 1109 255 1206 505 1206 c 0
 755 1206 916 1126 916 886 c 2
 916 567 l 1
 378 567 l 1
 378 212 l 2
 378 133 392 61 517 61 c 0
 643 61 657 129 657 209 c 2
 657 472 l 1
 916 472 l 1
 916 292 l 2
 916 55 754 -22 506 -22 c 0
378 663 m 1
 654 663 l 1
 654 1001 l 2
 654 1080 624 1126 511 1126 c 0
 399 1126 378 1079 378 1000 c 2
 378 663 l 1
EndSplineSet
EndChar

StartChar: eth
Encoding: 240 240 291
Width: 1093
VWidth: 0
Flags: W
HStem: -33 236<492.5 613.523> 980 226<395.5 624.638> 1516 226<330 518.777>
VStem: 110 359<220.734 955.471> 626 367<216.939 979.661 1180 1329.93>
LayerCount: 2
UndoRedoHistory
Layer: 1
Undoes
EndUndoes
Redoes
EndRedoes
EndUndoRedoHistory
Fore
SplineSet
993 429 m 2
 993 41 774 -33 550 -33 c 0
 324 -33 110 85 110 424 c 2
 110 831 l 2
 110 1073 308 1206 483 1206 c 0
 538 1206 587 1196 626 1180 c 1
 626 1286 605 1363 583 1388 c 1
 426 1290 l 1
 377 1365 l 1
 533 1462 l 1
 511 1493 429 1516 313 1516 c 1
 330 1742 l 1
 552 1742 709 1697 791 1620 c 1
 950 1724 l 1
 998 1647 l 1
 851 1552 l 1
 902 1481 993 1308 993 947 c 2
 993 429 l 2
469 594 m 0
 469 293 467 203 549 203 c 0
 607 203 626 248 626 328 c 2
 626 971 l 1
 607 976 590 980 572 980 c 0
 483 980 469 904 469 594 c 0
EndSplineSet
EndChar

StartChar: exclam
Encoding: 33 33 292
Width: 556
VWidth: 0
Flags: W
HStem: 0 336<92 434>
VStem: 92 342<0 336> 203 127<442 571.452>
LayerCount: 2
UndoRedoHistory
Layer: 1
Undoes
EndUndoes
Redoes
EndRedoes
EndUndoRedoHistory
Fore
SplineSet
92 0 m 1xc0
 92 336 l 1
 434 336 l 1
 434 0 l 1
 92 0 l 1xc0
203 442 m 1xa0
 100 1652 l 1
 464 1652 l 1
 330 442 l 1
 203 442 l 1xa0
EndSplineSet
EndChar

StartChar: exclamdown
Encoding: 161 161 293
Width: 504
VWidth: 0
Flags: W
HStem: 1011 336<98 440>
VStem: 98 342<1011 1347> 202 127<775.548 905>
LayerCount: 2
UndoRedoHistory
Layer: 1
Undoes
EndUndoes
Redoes
EndRedoes
EndUndoRedoHistory
Fore
SplineSet
68 -305 m 1xa0
 202 905 l 1
 329 905 l 1
 432 -305 l 1
 68 -305 l 1xa0
98 1011 m 1xc0
 98 1347 l 1
 440 1347 l 1
 440 1011 l 1
 98 1011 l 1xc0
EndSplineSet
EndChar

StartChar: f
Encoding: 102 102 294
Width: 676
VWidth: 0
Flags: W
HStem: 0 21G<138 504> 941 243<33 138 504 646> 1351 273<329 646>
VStem: 138 366<0 941 1184 1344.8>
LayerCount: 2
UndoRedoHistory
Layer: 1
Undoes
EndUndoes
Redoes
EndRedoes
EndUndoRedoHistory
Fore
SplineSet
138 0 m 1
 138 941 l 1
 33 941 l 1
 33 1184 l 1
 138 1184 l 1
 138 1280 l 2
 138 1485 176 1624 482 1624 c 0
 531 1624 584 1621 646 1614 c 1
 646 1342 l 1
 628 1345 602 1351 578 1351 c 0
 538 1351 504 1335 504 1278 c 2
 504 1184 l 1
 646 1184 l 1
 646 941 l 1
 504 941 l 1
 504 0 l 1
 138 0 l 1
EndSplineSet
EndChar

StartChar: five
Encoding: 53 53 295
Width: 1122
VWidth: 0
Flags: W
HStem: 1354 304<465 960>
VStem: 126 363<266.722 492> 684 351<261.388 803.156>
LayerCount: 2
UndoRedoHistory
Layer: 1
Undoes
EndUndoes
Redoes
EndRedoes
EndUndoRedoHistory
Fore
SplineSet
569 -34 m 0
 187 -34 126 181 126 492 c 1
 489 492 l 1
 489 288 511 236 597 242 c 0
 683 248 684 360 684 573 c 0
 684 718 666 840 572 840 c 0
 508 840 471 796 457 684 c 1
 129 684 l 1
 167 1658 l 1
 960 1658 l 1
 960 1354 l 1
 465 1354 l 1
 444 1045 l 1
 465 1076 550 1107 635 1118 c 0
 884 1152 1035 955 1035 578 c 0
 1035 219 976 -34 569 -34 c 0
EndSplineSet
EndChar

StartChar: florin
Encoding: 449 402 296
Width: 992
VWidth: 0
Flags: W
HStem: -405 273<82.6774 376.171> 929 255<227 337 731 855> 1351 273<597.829 889.442>
LayerCount: 2
UndoRedoHistory
Layer: 1
Undoes
EndUndoes
Redoes
EndRedoes
EndUndoRedoHistory
Fore
SplineSet
219 -405 m 0
 171 -405 118 -402 57 -395 c 1
 85 -123 l 1
 103 -126 128 -132 152 -132 c 0
 192 -132 228 -116 233 -59 c 2
 337 929 l 1
 227 929 l 1
 227 1184 l 1
 364 1184 l 1
 374 1280 l 2
 395 1485 448 1624 755 1624 c 0
 803 1624 856 1621 917 1614 c 1
 888 1342 l 1
 870 1345 846 1351 822 1351 c 0
 782 1351 746 1335 741 1278 c 1
 731 1184 l 1
 855 1184 l 1
 855 929 l 1
 704 929 l 1
 600 -62 l 2
 579 -266 526 -405 219 -405 c 0
EndSplineSet
EndChar

StartChar: foundryicon
Encoding: 450 -1 297
Width: 1553
VWidth: 0
Flags: W
LayerCount: 2
UndoRedoHistory
Layer: 1
Undoes
EndUndoes
Redoes
EndRedoes
EndUndoRedoHistory
Fore
SplineSet
357 249 m 1
 508 738 l 1
 95 1043 l 1
 611 1052 l 1
 771 1541 l 1
 940 1052 l 1
 1456 1052 l 1
 1040 738 l 1
 1193 249 l 1
 771 545 l 1
 357 249 l 1
EndSplineSet
EndChar

StartChar: four
Encoding: 52 52 298
Width: 1123
VWidth: 0
Flags: W
HStem: 0 21G<580 910> 366 258<329 580 910 1060> 1638 20G<490.63 910>
VStem: 580 330<0 366 624 1309>
LayerCount: 2
UndoRedoHistory
Layer: 1
Undoes
EndUndoes
Redoes
EndRedoes
EndUndoRedoHistory
Fore
SplineSet
580 0 m 1
 580 366 l 1
 65 366 l 1
 65 621 l 1
 499 1658 l 1
 910 1658 l 1
 910 624 l 1
 1060 624 l 1
 1060 366 l 1
 910 366 l 1
 910 0 l 1
 580 0 l 1
329 624 m 1
 580 624 l 1
 580 1309 l 1
 329 624 l 1
EndSplineSet
EndChar

StartChar: fraction
Encoding: 451 8260 299
Width: 710
VWidth: 0
Flags: W
HStem: 0 21G<38 296.572> 1638 20G<413.416 671>
VStem: 38 633
LayerCount: 2
UndoRedoHistory
Layer: 1
Undoes
EndUndoes
Redoes
EndRedoes
EndUndoRedoHistory
Fore
SplineSet
38 0 m 1
 418 1658 l 1
 671 1658 l 1
 292 0 l 1
 38 0 l 1
EndSplineSet
EndChar

StartChar: g
Encoding: 103 103 300
Width: 1065
VWidth: 0
Flags: W
HStem: -352 215<414.628 720.593> 368 211<473.573 594.663> 994 212<472.058 598.659>
VStem: 54 347<-226.351 -4.52501> 86 371<586.545 986.615> 612 352<590.293 972.939>
LayerCount: 2
UndoRedoHistory
Layer: 1
Undoes
EndUndoes
Redoes
EndRedoes
EndUndoRedoHistory
Fore
SplineSet
571 -352 m 0xec
 395 -352 54 -336 54 -113 c 0xf4
 54 -23 150 55 224 112 c 1
 114 155 75 193 63 245 c 0
 40 347 123 420 213 490 c 1
 139 543 86 625 86 765 c 0
 86 1074 258 1206 525 1206 c 0
 637 1206 745 1173 803 1110 c 1
 850 1163 907 1215 964 1247 c 1
 1011 1270 l 1
 1095 1104 l 1
 1061 1092 962 1044 897 1006 c 1
 928 968 964 897 964 770 c 0
 964 523 830 368 555 368 c 0
 477 368 397 385 340 410 c 1
 314 378 296 349 302 326 c 0
 307 308 346 295 415 283 c 0
 481 272 582 259 697 243 c 0
 950 206 1020 118 1020 -40 c 0
 1020 -210 922 -352 571 -352 c 0xec
570 -137 m 0
 674 -137 723 -120 730 -74 c 0
 741 -2 706 20 615 32 c 1
 442 57 l 1
 422 25 401 -16 401 -51 c 0
 401 -108 451 -137 570 -137 c 0
533 579 m 0
 603 579 612 640 612 787 c 0
 612 937 609 994 532 994 c 0
 454 994 457 918 457 787 c 0xec
 457 650 464 579 533 579 c 0
EndSplineSet
EndChar

StartChar: gcommaaccent
Encoding: 454 291 303
Width: 901
VWidth: 0
Flags: W
HStem: -353 213<402.883 708.99> 368 210<460.108 585.095> 995 211<460.999 588.789> 1480 337<531 722> 1997 109<586.492 669>
VStem: 42 347<-227.113 -4.97552> 73 372<587.102 986.74> 382 340<1480 1812.74> 382 149<1817 1939.64> 603 353<585.849 972.179>
LayerCount: 2
UndoRedoHistory
Layer: 1
Undoes
EndUndoes
Redoes
EndRedoes
EndUndoRedoHistory
Fore
SplineSet
557 -353 m 0xfa40
 382 -353 42 -335 42 -112 c 0xfc40
 42 -23 138 55 213 112 c 1
 103 156 62 193 50 244 c 0
 26 347 111 422 200 492 c 1
 126 544 73 628 73 766 c 0
 73 1072 245 1206 514 1206 c 0
 627 1206 735 1173 794 1110 c 1
 841 1165 898 1217 955 1248 c 1
 1001 1271 l 1
 1085 1107 l 1
 1051 1094 955 1046 888 1007 c 1
 919 968 956 898 956 771 c 0
 956 524 820 368 545 368 c 0
 465 368 386 385 327 411 c 1
 300 378 281 348 287 324 c 0
 292 307 332 294 401 282 c 0
 470 270 567 257 684 240 c 0
 940 202 1010 115 1010 -42 c 0
 1010 -210 910 -353 557 -353 c 0xfa40
382 1480 m 1xf9
 382 1763 l 1xf9
 383 1983 478 2104 669 2106 c 1
 684 1997 l 1
 612 1980 531 1945 531 1817 c 1xf880
 722 1817 l 1
 722 1480 l 1
 382 1480 l 1xf9
557 -140 m 0
 662 -140 713 -123 720 -76 c 0
 732 -3 695 18 602 32 c 2
 431 57 l 1
 410 24 389 -17 389 -53 c 0xfc
 389 -110 441 -140 557 -140 c 0
523 578 m 0
 594 578 603 642 603 787 c 0
 603 936 600 995 521 995 c 0
 442 995 445 915 445 787 c 0xfa40
 445 652 451 578 523 578 c 0
EndSplineSet
EndChar

StartChar: germandbls
Encoding: 223 223 305
Width: 1142
VWidth: 0
Flags: W
HStem: -34 274<554 687.419> 0 21G<102 469> 1439 247<502.281 663.3>
VStem: 102 367<0 1404.63> 709 303<1049.31 1392.5>
LayerCount: 2
UndoRedoHistory
Layer: 0
Undoes
EndUndoes
Redoes
EndRedoes
EndUndoRedoHistory
UndoRedoHistory
Layer: 1
Undoes
EndUndoes
Redoes
EndRedoes
EndUndoRedoHistory
Fore
SplineSet
554 -34 m 1xb8
 554 240 l 1xb8
 674 240 763 302 746 512 c 0
 737 624 657 706 576 706 c 1
 573 984 l 1
 654 984 709 1054 709 1225 c 0
 709 1376 645 1439 579 1439 c 0
 494 1439 465 1347 469 1217 c 1
 469 0 l 1
 102 0 l 1x78
 102 1217 l 1
 103 1440 211 1686 549 1686 c 0
 875 1686 1012 1515 1012 1232 c 0
 1012 1083 944 953 758 882 c 1
 979 818 1111 653 1111 460 c 0
 1111 94 892 -34 554 -34 c 1xb8
EndSplineSet
Colour: ffff00
EndChar

StartChar: grave
Encoding: 96 96 306
Width: 648
VWidth: 0
Flags: W
HStem: 1243 415<340 451>
VStem: 73 505
LayerCount: 2
UndoRedoHistory
Layer: 1
Undoes
EndUndoes
Redoes
EndRedoes
EndUndoRedoHistory
Fore
SplineSet
340 1243 m 1
 73 1658 l 1
 451 1658 l 1
 578 1243 l 1
 340 1243 l 1
EndSplineSet
EndChar

StartChar: gravecomb
Encoding: 456 768 307
Width: 624
VWidth: 0
Flags: W
HStem: 1243 415<331 442>
VStem: 64 505
LayerCount: 2
UndoRedoHistory
Layer: 1
Undoes
EndUndoes
Redoes
EndRedoes
EndUndoRedoHistory
Fore
SplineSet
331 1243 m 1
 64 1658 l 1
 442 1658 l 1
 569 1243 l 1
 331 1243 l 1
EndSplineSet
EndChar

StartChar: greater
Encoding: 62 62 308
Width: 830
VWidth: 0
Flags: W
VStem: 109 649
LayerCount: 2
UndoRedoHistory
Layer: 1
Undoes
EndUndoes
Redoes
EndRedoes
EndUndoRedoHistory
Fore
SplineSet
109 244 m 1
 109 553 l 1
 497 832 l 1
 109 1107 l 1
 109 1418 l 1
 758 964 l 1
 758 696 l 1
 109 244 l 1
EndSplineSet
EndChar

StartChar: greaterequal
Encoding: 457 8805 309
Width: 880
VWidth: 0
Flags: W
HStem: 18 239<89 796>
LayerCount: 2
UndoRedoHistory
Layer: 1
Undoes
EndUndoes
Redoes
EndRedoes
EndUndoRedoHistory
Fore
SplineSet
109 348 m 1
 109 657 l 1
 497 936 l 1
 109 1211 l 1
 109 1522 l 1
 758 1068 l 1
 758 800 l 1
 109 348 l 1
89 18 m 1
 89 257 l 1
 796 257 l 1
 796 18 l 1
 89 18 l 1
EndSplineSet
EndChar

StartChar: guillemotleft
Encoding: 171 171 310
Width: 1017
VWidth: 0
Flags: W
LayerCount: 2
UndoRedoHistory
Layer: 1
Undoes
EndUndoes
Redoes
EndRedoes
EndUndoRedoHistory
Fore
SplineSet
501 73 m 1
 79 557 l 1
 79 673 l 1
 501 1157 l 1
 501 823 l 1
 282 614 l 1
 501 407 l 1
 501 73 l 1
958 73 m 1
 534 557 l 1
 534 673 l 1
 958 1157 l 1
 958 823 l 1
 737 614 l 1
 958 407 l 1
 958 73 l 1
EndSplineSet
EndChar

StartChar: guillemotright
Encoding: 187 187 311
Width: 1019
VWidth: 0
Flags: W
LayerCount: 2
UndoRedoHistory
Layer: 1
Undoes
EndUndoes
Redoes
EndRedoes
EndUndoRedoHistory
Fore
SplineSet
83 73 m 1
 83 407 l 1
 305 616 l 1
 83 823 l 1
 83 1157 l 1
 508 673 l 1
 508 557 l 1
 83 73 l 1
540 73 m 1
 540 407 l 1
 760 616 l 1
 540 823 l 1
 540 1157 l 1
 963 673 l 1
 963 557 l 1
 540 73 l 1
EndSplineSet
EndChar

StartChar: guilsinglleft
Encoding: 458 8249 312
Width: 598
VWidth: 0
Flags: W
VStem: 73 428
LayerCount: 2
UndoRedoHistory
Layer: 1
Undoes
EndUndoes
Redoes
EndRedoes
EndUndoRedoHistory
Fore
SplineSet
501 35 m 1
 73 480 l 1
 73 673 l 1
 501 1118 l 1
 501 785 l 1
 287 579 l 1
 501 368 l 1
 501 35 l 1
EndSplineSet
EndChar

StartChar: guilsinglright
Encoding: 459 8250 313
Width: 556
VWidth: 0
Flags: W
VStem: 73 427
LayerCount: 2
UndoRedoHistory
Layer: 1
Undoes
EndUndoes
Redoes
EndRedoes
EndUndoRedoHistory
Fore
SplineSet
73 40 m 1
 73 373 l 1
 296 582 l 1
 73 790 l 1
 73 1123 l 1
 500 639 l 1
 500 523 l 1
 73 40 l 1
EndSplineSet
EndChar

StartChar: h
Encoding: 104 104 314
Width: 1081
VWidth: 0
Flags: W
HStem: 0 21G<103 469 620 986> 1186 20G<704 827.5> 1638 20G<103 469>
VStem: 103 366<0 939.16 1084 1658> 620 366<0 950.402>
LayerCount: 2
UndoRedoHistory
Layer: 1
Undoes
EndUndoes
Redoes
EndRedoes
EndUndoRedoHistory
Fore
SplineSet
103 0 m 1
 103 1658 l 1
 469 1658 l 1
 469 1084 l 1
 560 1176 653 1206 755 1206 c 0
 900 1206 986 1090 986 919 c 2
 986 0 l 1
 620 0 l 1
 620 876 l 2
 620 926 606 953 561 951 c 0
 538 949 506 940 469 917 c 1
 469 0 l 1
 103 0 l 1
EndSplineSet
EndChar

StartChar: hbar
Encoding: 460 295 315
Width: 1083
VWidth: 0
Flags: W
HStem: 0 21G<104 471 622 988> 1186 20G<706 829.5> 1363 162<19 104 471 708> 1638 20G<104 471>
VStem: 104 367<0 939.16 1084 1363 1525 1658> 622 366<0 950.402>
LayerCount: 2
UndoRedoHistory
Layer: 1
Undoes
EndUndoes
Redoes
EndRedoes
EndUndoRedoHistory
Fore
SplineSet
104 0 m 1
 104 1363 l 1
 19 1363 l 1
 19 1525 l 1
 104 1525 l 1
 104 1658 l 1
 471 1658 l 1
 471 1525 l 1
 708 1525 l 1
 708 1363 l 1
 471 1363 l 1
 471 1084 l 1
 562 1176 655 1206 757 1206 c 0
 902 1206 988 1090 988 919 c 2
 988 0 l 1
 622 0 l 1
 622 876 l 2
 622 926 608 953 563 951 c 0
 540 949 508 940 471 917 c 1
 471 0 l 1
 104 0 l 1
EndSplineSet
EndChar

StartChar: hungarumlaut
Encoding: 462 733 317
Width: 999
VWidth: 0
Flags: W
HStem: 1189 469<196 251 591 648>
LayerCount: 2
UndoRedoHistory
Layer: 1
Undoes
EndUndoes
Redoes
EndRedoes
EndUndoRedoHistory
Fore
SplineSet
63 1189 m 1
 196 1658 l 1
 494 1658 l 1
 251 1189 l 1
 63 1189 l 1
456 1189 m 1
 591 1658 l 1
 900 1658 l 1
 648 1189 l 1
 456 1189 l 1
EndSplineSet
EndChar

StartChar: hyphen
Encoding: 45 45 318
Width: 830
VWidth: 0
Flags: W
HStem: 635 227<139 692>
VStem: 139 553<635 862>
LayerCount: 2
UndoRedoHistory
Layer: 1
Undoes
EndUndoes
Redoes
EndRedoes
EndUndoRedoHistory
Fore
SplineSet
139 635 m 1
 139 862 l 1
 692 862 l 1
 692 635 l 1
 139 635 l 1
EndSplineSet
EndChar

StartChar: i
Encoding: 105 105 319
Width: 566
VWidth: 0
Flags: W
HStem: 0 21G<101 468> 1164 20G<101 468> 1390 235<99 468>
VStem: 101 367<0 1184 1390 1625>
AnchorPoint: "ogonek" 289 0 basechar 0
LayerCount: 2
UndoRedoHistory
Layer: 1
Undoes
EndUndoes
Redoes
EndRedoes
EndUndoRedoHistory
Fore
SplineSet
101 0 m 1
 101 1184 l 1
 468 1184 l 1
 468 0 l 1
 101 0 l 1
99 1390 m 1
 99 1625 l 1
 468 1625 l 1
 468 1390 l 1
 99 1390 l 1
EndSplineSet
EndChar

StartChar: infinity
Encoding: 466 8734 327
Width: 1344
VWidth: 0
Flags: W
HStem: 184 280<301.355 480.502> 729 280<301.355 483.915>
VStem: 58 227<475.319 718.174> 1046 240<483.4 709.883>
LayerCount: 2
UndoRedoHistory
Layer: 1
Undoes
EndUndoes
Redoes
EndRedoes
EndUndoRedoHistory
Fore
SplineSet
366 184 m 0
 157 184 58 401 58 597 c 0
 58 792 157 1009 366 1009 c 0
 488 1009 594 912 672 825 c 1
 754 903 872 988 968 986 c 1
 1164 986 1286 794 1286 597 c 0
 1286 399 1164 207 968 207 c 1
 872 206 754 290 672 368 c 1
 594 281 488 184 366 184 c 0
367 464 m 0
 426 465 522 527 603 597 c 1
 522 666 435 728 367 729 c 1
 330 731 285 704 285 597 c 0
 285 489 330 463 367 464 c 0
980 471 m 0
 995 472 1046 491 1046 597 c 0
 1046 702 995 721 980 722 c 0
 907 728 824 669 743 597 c 1
 824 525 907 466 980 471 c 0
EndSplineSet
EndChar

StartChar: integral
Encoding: 467 8747 328
Width: 708
VWidth: 0
Flags: W
HStem: -390 273<33 349.5> 1407 273<365.5 682>
VStem: 174 367<-110.801 1401.51>
LayerCount: 2
UndoRedoHistory
Layer: 1
Undoes
EndUndoes
Redoes
EndRedoes
EndUndoRedoHistory
Fore
SplineSet
196 -390 m 0
 148 -390 95 -387 33 -380 c 1
 33 -108 l 1
 51 -111 76 -117 100 -117 c 0
 140 -117 174 -101 174 -44 c 2
 174 1337 l 2
 174 1541 212 1680 519 1680 c 0
 568 1680 620 1677 682 1670 c 1
 682 1398 l 1
 664 1401 639 1407 615 1407 c 0
 575 1407 541 1391 541 1334 c 2
 541 -46 l 2
 541 -251 503 -390 196 -390 c 0
EndSplineSet
EndChar

StartChar: j
Encoding: 106 106 331
Width: 593
VWidth: 0
Flags: W
HStem: -389 284<-10.0774 289> 1164 20G<128 495> 1390 235<126 495>
VStem: 128 367<-97.4778 1184 1390 1625>
LayerCount: 2
UndoRedoHistory
Layer: 1
Undoes
EndUndoes
Redoes
EndRedoes
EndUndoRedoHistory
Fore
SplineSet
-12 -359 m 1
 -12 -96 l 1
 8 -100 28 -105 47 -105 c 0
 92 -105 128 -85 128 -17 c 2
 128 1184 l 1
 495 1184 l 1
 495 -63 l 2
 495 -250 393 -389 185 -389 c 0
 114 -389 50 -376 -12 -359 c 1
126 1390 m 1
 126 1625 l 1
 495 1625 l 1
 495 1390 l 1
 126 1390 l 1
EndSplineSet
EndChar

StartChar: k
Encoding: 107 107 333
Width: 1175
VWidth: 0
Flags: W
HStem: 0 21G<102 465 747.582 1164> 1164 20G<733.792 1165> 1638 20G<102 465>
VStem: 102 363<0 449 757 1658>
LayerCount: 2
UndoRedoHistory
Layer: 1
Undoes
EndUndoes
Redoes
EndRedoes
EndUndoRedoHistory
Fore
SplineSet
102 0 m 1
 102 1658 l 1
 465 1658 l 1
 465 757 l 1
 747 1184 l 1
 1165 1184 l 1
 840 693 l 1
 1164 0 l 1
 755 0 l 1
 551 550 l 1
 465 449 l 1
 465 0 l 1
 102 0 l 1
EndSplineSet
EndChar

StartChar: kgreenlandic
Encoding: 472 312 335
Width: 1087
VWidth: 0
Flags: W
HStem: 0 21G<96 463 677.147 1073> 1164 20G<96 463 658.588 1067>
VStem: 96 367<0 487 699 1184>
LayerCount: 2
UndoRedoHistory
Layer: 1
Undoes
EndUndoes
Redoes
EndRedoes
EndUndoRedoHistory
Fore
SplineSet
96 0 m 1
 96 1184 l 1
 463 1184 l 1
 463 699 l 1
 667 1184 l 1
 1067 1184 l 1
 833 634 l 1
 1073 0 l 1
 684 0 l 1
 500 537 l 1
 463 487 l 1
 463 0 l 1
 96 0 l 1
EndSplineSet
EndChar

StartChar: l
Encoding: 108 108 336
Width: 588
VWidth: 0
Flags: W
HStem: 0 21G<114 480> 1638 20G<114 480>
VStem: 114 366<0 1658>
LayerCount: 2
UndoRedoHistory
Layer: 1
Undoes
EndUndoes
Redoes
EndRedoes
EndUndoRedoHistory
Fore
SplineSet
114 0 m 1
 114 1658 l 1
 480 1658 l 1
 480 0 l 1
 114 0 l 1
EndSplineSet
EndChar

StartChar: less
Encoding: 60 60 341
Width: 830
VWidth: 0
Flags: W
VStem: 66 647
LayerCount: 2
UndoRedoHistory
Layer: 1
Undoes
EndUndoes
Redoes
EndRedoes
EndUndoRedoHistory
Fore
SplineSet
713 244 m 1
 66 696 l 1
 66 964 l 1
 713 1418 l 1
 713 1107 l 1
 326 832 l 1
 713 553 l 1
 713 244 l 1
EndSplineSet
EndChar

StartChar: lessequal
Encoding: 477 8804 342
Width: 832
VWidth: 0
Flags: W
HStem: 0 239<60 767>
LayerCount: 2
UndoRedoHistory
Layer: 1
Undoes
EndUndoes
Redoes
EndRedoes
EndUndoRedoHistory
Fore
SplineSet
743 353 m 1
 96 805 l 1
 96 1074 l 1
 743 1527 l 1
 743 1216 l 1
 356 941 l 1
 743 662 l 1
 743 353 l 1
60 0 m 1
 60 239 l 1
 767 239 l 1
 767 0 l 1
 60 0 l 1
EndSplineSet
EndChar

StartChar: logicalnot
Encoding: 172 172 343
Width: 1087
VWidth: 0
Flags: W
HStem: 740 241<99 798>
VStem: 798 180<389 740>
LayerCount: 2
UndoRedoHistory
Layer: 1
Undoes
EndUndoes
Redoes
EndRedoes
EndUndoRedoHistory
Fore
SplineSet
798 389 m 1
 798 740 l 1
 99 740 l 1
 99 981 l 1
 978 981 l 1
 978 389 l 1
 798 389 l 1
EndSplineSet
EndChar

StartChar: lozenge
Encoding: 478 9674 344
Width: 1010
VWidth: 0
Flags: W
HStem: 0 21G<421.811 571.761> 1164 20G<421.729 571.847>
LayerCount: 2
UndoRedoHistory
Layer: 1
Undoes
EndUndoes
Redoes
EndRedoes
EndUndoRedoHistory
Fore
SplineSet
434 0 m 1
 72 594 l 1
 434 1184 l 1
 559 1184 l 1
 938 594 l 1
 559 0 l 1
 434 0 l 1
499 237 m 1
 712 594 l 1
 497 935 l 1
 296 594 l 1
 499 237 l 1
EndSplineSet
EndChar

StartChar: lslash
Encoding: 479 322 345
Width: 723
VWidth: 0
Flags: W
HStem: 0 21G<178 544> 1638 20G<178 544>
VStem: 178 366<0 846 1192 1658>
LayerCount: 2
UndoRedoHistory
Layer: 1
Undoes
EndUndoes
Redoes
EndRedoes
EndUndoRedoHistory
Fore
SplineSet
178 0 m 1
 178 846 l 1
 43 789 l 1
 43 981 l 1
 178 1038 l 1
 178 1658 l 1
 544 1658 l 1
 544 1192 l 1
 710 1262 l 1
 710 1070 l 1
 544 1001 l 1
 544 0 l 1
 178 0 l 1
EndSplineSet
EndChar

StartChar: m
Encoding: 109 109 346
Width: 1586
VWidth: 0
Flags: W
HStem: 0 21G<102 466 618 979 1127 1491> 952 254<559.786 614.805 1068.47 1124.21> 1164 20G<102 466>
VStem: 102 364<0 942.363 1093 1184> 618 361<0 943.447> 1127 364<0 949.085>
LayerCount: 2
UndoRedoHistory
Layer: 1
Undoes
EndUndoes
Redoes
EndRedoes
EndUndoRedoHistory
Fore
SplineSet
102 0 m 1xdc
 102 1184 l 1
 466 1184 l 1xbc
 466 1093 l 1
 555 1178 650 1206 748 1206 c 0
 844 1206 916 1155 953 1069 c 1
 1049 1174 1152 1206 1258 1206 c 0
 1402 1206 1491 1092 1491 917 c 2
 1491 0 l 1
 1127 0 l 1
 1127 877 l 2
 1127 928 1111 954 1067 952 c 0
 1046 951 1010 943 979 925 c 1
 979 922 979 920 979 917 c 2
 979 0 l 1
 618 0 l 1
 618 877 l 2
 618 928 599 954 556 952 c 0
 534 951 500 942 466 923 c 1
 466 0 l 1
 102 0 l 1xdc
EndSplineSet
EndChar

StartChar: macron
Encoding: 175 175 347
Width: 291
VWidth: 0
Flags: W
HStem: 1496 162<-128 428>
VStem: -128 556<1496 1658>
LayerCount: 2
UndoRedoHistory
Layer: 1
Undoes
EndUndoes
Redoes
EndRedoes
EndUndoRedoHistory
Fore
SplineSet
-128 1496 m 1
 -128 1658 l 1
 428 1658 l 1
 428 1496 l 1
 -128 1496 l 1
EndSplineSet
EndChar

StartChar: minus
Encoding: 480 8722 348
Width: 1017
VWidth: 0
Flags: W
HStem: 671 239<156 862>
LayerCount: 2
UndoRedoHistory
Layer: 1
Undoes
EndUndoes
Redoes
EndRedoes
EndUndoRedoHistory
Fore
SplineSet
156 671 m 1
 156 910 l 1
 862 910 l 1
 862 671 l 1
 156 671 l 1
EndSplineSet
EndChar

StartChar: mu
Encoding: 181 181 349
Width: 1037
VWidth: 0
Flags: W
HStem: -390 21G<79.9873 446> 0 21G<584 951> 1164 20G<79 446 584 951>
VStem: 80 366<-390 19.5683 233.377 1184> 584 367<0 89 240.125 1184>
LayerCount: 2
UndoRedoHistory
Layer: 1
Undoes
EndUndoes
Redoes
EndRedoes
EndUndoRedoHistory
Fore
SplineSet
80 -390 m 1
 79 1184 l 1
 446 1184 l 1
 446 308 l 2
 446 258 459 231 504 233 c 0
 525 234 552 242 584 260 c 1
 584 1184 l 1
 951 1184 l 1
 951 0 l 1
 584 0 l 1
 584 89 l 1
 547 53 509 27 470 10 c 0
 462 6 454 3 446 0 c 1
 446 -390 l 1
 80 -390 l 1
EndSplineSet
EndChar

StartChar: multiply
Encoding: 215 215 350
Width: 1057
VWidth: 0
Flags: W
LayerCount: 2
UndoRedoHistory
Layer: 1
Undoes
EndUndoes
Redoes
EndRedoes
EndUndoRedoHistory
Fore
SplineSet
278 448 m 1
 114 611 l 1
 366 864 l 1
 114 1115 l 1
 277 1279 l 1
 530 1027 l 1
 781 1279 l 1
 945 1118 l 1
 692 864 l 1
 945 611 l 1
 783 448 l 1
 530 701 l 1
 278 448 l 1
EndSplineSet
EndChar

StartChar: n
Encoding: 110 110 351
Width: 1080
VWidth: 0
Flags: W
HStem: 0 21G<102 469 619 986> 1164 20G<102 469 703 826.5>
VStem: 102 367<0 939.16 1065 1184> 619 367<0 950.403>
LayerCount: 2
UndoRedoHistory
Layer: 1
Undoes
EndUndoes
Redoes
EndRedoes
EndUndoRedoHistory
Fore
SplineSet
102 0 m 1
 102 1184 l 1
 469 1184 l 1
 469 1065 l 1
 560 1156 652 1206 754 1206 c 0
 899 1206 986 1090 986 919 c 2
 986 0 l 1
 619 0 l 1
 619 876 l 2
 619 926 605 953 561 951 c 0
 538 949 506 940 469 917 c 1
 469 0 l 1
 102 0 l 1
EndSplineSet
EndChar

StartChar: nine
Encoding: 57 57 356
Width: 1123
VWidth: 0
Flags: W
HStem: -27 281<490.155 622.144> 609 288<493.374 599.073> 1411 273<492.72 617.697>
VStem: 89 387<906.484 1403.12> 638 388<266.41 694 905.295 1390.88>
CounterMasks: 1 e0
LayerCount: 2
UndoRedoHistory
Layer: 1
Undoes
EndUndoes
Redoes
EndRedoes
EndUndoRedoHistory
Fore
SplineSet
552 -27 m 0
 218 -27 127 125 126 406 c 1
 126 436 l 1
 478 436 l 1
 478 309 479 254 556 254 c 0
 642 254 638 315 638 577 c 2
 638 694 l 1
 606 639 531 612 449 609 c 0
 186 600 89 843 89 1110 c 0
 89 1470 211 1684 554 1684 c 0
 891 1684 1026 1483 1026 1162 c 2
 1026 527 l 2
 1026 202 935 -27 552 -27 c 0
559 897 m 0
 600 897 627 930 638 951 c 1
 638 1227 l 2
 638 1324 632 1411 554 1411 c 0
 478 1411 476 1329 476 1137 c 0
 476 988 476 897 559 897 c 0
EndSplineSet
EndChar

StartChar: notequal
Encoding: 485 8800 357
Width: 948
VWidth: 0
Flags: W
HStem: 0 21G<124 305.324> 487 213<157 278 521 815> 883 213<157 403 647 815> 1638 20G<642.665 825>
CounterMasks: 1 70
LayerCount: 2
UndoRedoHistory
Layer: 1
Undoes
EndUndoes
Redoes
EndRedoes
EndUndoRedoHistory
Fore
SplineSet
124 0 m 1
 278 487 l 1
 157 487 l 1
 157 700 l 1
 345 700 l 1
 403 883 l 1
 157 883 l 1
 157 1096 l 1
 471 1096 l 1
 649 1658 l 1
 825 1658 l 1
 647 1096 l 1
 815 1096 l 1
 815 883 l 1
 579 883 l 1
 521 700 l 1
 815 700 l 1
 815 487 l 1
 453 487 l 1
 299 0 l 1
 124 0 l 1
EndSplineSet
EndChar

StartChar: numbersign
Encoding: 35 35 359
Width: 1122
VWidth: 0
Flags: W
HStem: -1 21G<167 380.222 533 745.259> 539 219<112 226 467 591 835 1000> 1008 224<121 283 539 651 903 1010> 1638 20G<366.934 584 732.934 949>
CounterMasks: 1 70
LayerCount: 2
UndoRedoHistory
Layer: 1
Undoes
EndUndoes
Redoes
EndRedoes
EndUndoRedoHistory
Fore
SplineSet
167 -1 m 1
 226 539 l 1
 105 539 l 1
 112 758 l 1
 257 758 l 1
 283 1008 l 1
 115 1008 l 1
 121 1232 l 1
 325 1232 l 1
 369 1658 l 1
 584 1658 l 1
 539 1232 l 1
 691 1232 l 1
 735 1658 l 1
 949 1658 l 1
 903 1232 l 1
 1017 1232 l 1
 1010 1008 l 1
 862 1008 l 1
 835 758 l 1
 1007 758 l 1
 1000 539 l 1
 804 539 l 1
 743 -1 l 1
 533 -1 l 1
 591 539 l 1
 438 539 l 1
 378 -1 l 1
 167 -1 l 1
467 758 m 1
 622 758 l 1
 651 1008 l 1
 497 1008 l 1
 467 758 l 1
EndSplineSet
EndChar

StartChar: o
Encoding: 111 111 360
Width: 1025
VWidth: 0
Flags: W
HStem: -22 240<450.323 572.16> 966 240<450.323 572.16>
VStem: 78 361<222.794 961.206> 586 361<232.128 960.824>
AnchorPoint: "ogonek" 506 0 basechar 0
LayerCount: 2
UndoRedoHistory
Layer: 1
Undoes
EndUndoes
Redoes
EndRedoes
EndUndoRedoHistory
Fore
SplineSet
511 218 m 0
 561 218 586 248 586 326 c 2
 586 858 l 2
 586 936 561 966 511 966 c 0
 464 966 439 934 439 858 c 2
 439 326 l 2
 439 250 464 218 511 218 c 0
510 -22 m 0
 261 -22 78 97 78 352 c 2
 78 832 l 2
 78 1087 261 1206 510 1206 c 0
 759 1206 947 1087 947 832 c 2
 947 352 l 2
 947 96 759 -22 510 -22 c 0
EndSplineSet
EndChar

StartChar: oe
Encoding: 487 339 365
Width: 1457
VWidth: 0
Flags: W
HStem: -28 214<336 550.196 962.037 1049.89> 561 197<951 1061> 1031 211<341.916 553.564 957.405 1050.15>
VStem: 74 360<189.705 1022.29> 565 386<191.673 561 758 1027.09> 1061 335<189.98 481 758 1026.45>
LayerCount: 2
UndoRedoHistory
Layer: 1
Undoes
EndUndoes
Redoes
EndRedoes
EndUndoRedoHistory
Fore
SplineSet
423 -28 m 0
 249 -28 74 81 74 337 c 2
 74 903 l 2
 74 1140 241 1242 451 1242 c 0
 553 1242 709 1194 747 1088 c 1
 788 1194 937 1242 1033 1242 c 0
 1294 1242 1396 1078 1396 854 c 2
 1396 561 l 1
 951 561 l 1
 951 311 l 2
 951 236 969 186 1005 186 c 0
 1045 185 1056 228 1056 302 c 2
 1056 481 l 1
 1397 481 l 1
 1397 303 l 2
 1397 103 1271 -30 1042 -29 c 0
 893 -29 778 26 737 120 c 1
 688 34 591 -28 423 -28 c 0
493 186 m 0
 526 186 565 201 565 326 c 2
 565 924 l 2
 565 1007 532 1031 499 1031 c 0
 468 1031 434 1011 434 924 c 2
 434 327 l 2
 434 239 458 186 493 186 c 0
951 758 m 1
 1061 758 l 1
 1061 952 l 2
 1061 1005 1026 1031 1004 1031 c 0
 985 1031 951 1012 951 952 c 2
 951 758 l 1
EndSplineSet
EndChar

StartChar: ogonek
Encoding: 488 731 366
Width: 555
VWidth: 0
Flags: W
HStem: -527 177<321.969 445>
VStem: 41 254<-319.379 -116.522>
AnchorPoint: "ogonek" 271 0 mark 0
LayerCount: 2
UndoRedoHistory
Layer: 1
Undoes
EndUndoes
Redoes
EndRedoes
EndUndoRedoHistory
Fore
SplineSet
445 -527 m 1
 303 -532 41 -526 41 -295 c 0
 41 -193 94 -66 180 20 c 1
 342 20 l 1
 328 -66 295 -144 295 -233 c 0
 295 -353 422 -350 474 -350 c 1
 445 -527 l 1
EndSplineSet
EndChar

StartChar: one
Encoding: 49 49 370
Width: 1122
VWidth: 0
Flags: W
HStem: 0 21G<415 795> 1194 21G<206 243.321> 1638 20G<472.5 795>
VStem: 415 380<0 1306>
LayerCount: 2
UndoRedoHistory
Layer: 1
Undoes
EndUndoes
Redoes
EndRedoes
EndUndoRedoHistory
Fore
SplineSet
415 0 m 1
 415 1306 l 1
 206 1194 l 1
 206 1475 l 1
 255 1505 449 1617 496 1658 c 1
 795 1658 l 1
 795 0 l 1
 415 0 l 1
EndSplineSet
EndChar

StartChar: onehalf
Encoding: 189 189 371
Width: 1320
VWidth: 0
Flags: W
HStem: 0 158<983 1226> 728 160<939.276 1060.45> 1638 20G<211 357 924.831 1093>
VStem: 153 204<827 1403> 751 177<563 649.437> 1065 182<528.323 724.232>
LayerCount: 2
UndoRedoHistory
Layer: 1
Undoes
EndUndoes
Redoes
EndRedoes
EndUndoRedoHistory
Fore
SplineSet
770 0 m 1
 770 158 l 1
 966 443 l 1
 1013 514 1065 587 1065 656 c 0
 1065 696 1042 728 997 728 c 0
 941 728 912 648 928 563 c 1
 751 563 l 1
 745 625 745 638 745 650 c 0
 745 786 829 888 991 888 c 0
 1148 888 1247 806 1247 660 c 0
 1247 549 1195 466 1118 350 c 0
 1117 348 984 160 983 158 c 1
 1226 158 l 1
 1226 0 l 1
 770 0 l 1
153 827 m 1
 153 1403 l 1
 30 1328 l 1
 30 1494 l 1
 134 1551 191 1608 231 1658 c 1
 357 1658 l 1
 357 827 l 1
 153 827 l 1
92 0 m 1
 935 1658 l 1
 1093 1658 l 1
 249 0 l 1
 92 0 l 1
EndSplineSet
EndChar

StartChar: onequarter
Encoding: 188 188 372
Width: 1320
VWidth: 0
Flags: W
HStem: 0 21G<155 322.181 951 1117> 226 164<803 951 1117 1221> 1638 20G<281 427 987.831 1156>
VStem: 223 204<827 1403> 951 166<0 226 390 644>
LayerCount: 2
UndoRedoHistory
Layer: 1
Undoes
EndUndoes
Redoes
EndRedoes
EndUndoRedoHistory
Fore
SplineSet
951 0 m 1
 951 226 l 1
 685 226 l 1
 685 379 l 1
 967 849 l 1
 1117 849 l 1
 1117 390 l 1
 1221 390 l 1
 1221 226 l 1
 1117 226 l 1
 1117 0 l 1
 951 0 l 1
223 827 m 1
 223 1403 l 1
 100 1328 l 1
 100 1494 l 1
 204 1551 261 1608 301 1658 c 1
 427 1658 l 1
 427 827 l 1
 223 827 l 1
155 0 m 1
 998 1658 l 1
 1156 1658 l 1
 312 0 l 1
 155 0 l 1
803 390 m 1
 951 390 l 1
 951 644 l 1
 803 390 l 1
EndSplineSet
EndChar

StartChar: uni00B9
Encoding: 185 185 373
Width: 878
VWidth: 0
Flags: W
VStem: 351 276<624 1533>
LayerCount: 2
UndoRedoHistory
Layer: 1
Undoes
EndUndoes
Redoes
EndRedoes
EndUndoRedoHistory
Fore
SplineSet
351 624 m 1
 351 1533 l 1
 150 1479 l 1
 150 1685 l 1
 192 1703 365 1760 410 1818 c 1
 627 1818 l 1
 627 624 l 1
 351 624 l 1
EndSplineSet
EndChar

StartChar: ordfeminine
Encoding: 170 170 374
Width: 1012
VWidth: 0
Flags: W
HStem: 637 204<284.5 509.204> 1450 232<470.1 564.968>
VStem: 103 309<852.094 1040.47> 570 329<846.672 1152 1262.27 1449.2>
LayerCount: 2
UndoRedoHistory
Layer: 1
Undoes
EndUndoes
Redoes
EndRedoes
EndUndoRedoHistory
Fore
SplineSet
376 637 m 1
 193 641 103 768 103 886 c 0
 103 1158 413 1218 570 1276 c 1
 570 1386 l 2
 570 1419 557 1450 518 1450 c 0
 475 1450 466 1419 453 1308 c 1
 134 1319 l 1
 135 1579 296 1682 551 1682 c 0
 780 1682 899 1550 899 1380 c 2
 899 656 l 1
 611 656 l 1
 587 795 l 1
 558 710 488 637 376 637 c 1
496 841 m 0
 521 841 549 853 570 880 c 1
 570 1152 l 1
 466 1107 412 1001 412 941 c 0
 412 878 451 841 496 841 c 0
EndSplineSet
EndChar

StartChar: ordmasculine
Encoding: 186 186 375
Width: 1012
VWidth: 0
Flags: W
HStem: 637 212<446.098 564.333> 1471 212<446.098 564.333>
VStem: 142 296<852.91 1467.42> 575 295<860.796 1459.2>
LayerCount: 2
UndoRedoHistory
Layer: 1
Undoes
EndUndoes
Redoes
EndRedoes
EndUndoRedoHistory
Fore
SplineSet
504 637 m 0
 300 637 142 735 142 942 c 2
 142 1378 l 2
 142 1586 300 1683 504 1683 c 0
 708 1683 870 1586 870 1378 c 2
 870 942 l 2
 870 734 708 637 504 637 c 0
505 849 m 0
 546 849 575 874 575 938 c 2
 575 1382 l 2
 575 1447 546 1471 505 1471 c 0
 466 1471 438 1445 438 1382 c 2
 438 938 l 2
 438 876 466 849 505 849 c 0
EndSplineSet
EndChar

StartChar: oslash
Encoding: 248 248 376
Width: 1010
VWidth: 0
Flags: W
HStem: -22 240<448.344 572.16> 966 240<450.323 576.437>
VStem: 78 361<222.895 352.4 575.203 961.206> 586 361<232.128 705.2>
LayerCount: 2
UndoRedoHistory
Layer: 1
Undoes
EndUndoes
Redoes
EndRedoes
EndUndoRedoHistory
Fore
SplineSet
218 -178 m 1
 140 -144 l 1
 222.115322475 53.5171400218 l 1
 132.3508912 114.453894827 78 213.030987842 78 352 c 2
 78 832 l 2
 78 1087 261 1206 510 1206 c 0
 575.260162849 1206 636.330196182 1197.82581291 690.923710908 1181.17138665 c 1
 774 1381 l 1
 853 1346 l 1
 770.593857068 1148.22525696 l 1
 878.986226665 1089.55215974 947 985.376806394 947 832 c 2
 947 352 l 2
 947 96 759 -22 510 -22 c 0
 431.558668725 -22 359.66724474 -10.1903186754 297.983551054 13.9605225308 c 1
 218 -178 l 1
511 218 m 0
 561 218 586 248 586 326 c 2
 586 705.2 l 1
 439 352.4 l 1
 439 326 l 2
 439 250 464 218 511 218 c 0
439 575.203470032 m 1
 579.787444459 913.848348264 l 1
 569.538693514 950.78352335 546.609545361 966 511 966 c 0
 464 966 439 934 439 858 c 2
 439 575.203470032 l 1
EndSplineSet
EndChar

StartChar: p
Encoding: 112 112 378
Width: 1069
VWidth: 0
Flags: W
HStem: -390 21G<102 469> -22 21G<692 809.5> 1164 20G<102 469>
VStem: 102 367<-390 90 209.902 989.205 1100 1184> 616 367<217.47 990.519>
LayerCount: 2
UndoRedoHistory
Layer: 1
Undoes
EndUndoes
Redoes
EndRedoes
EndUndoRedoHistory
Fore
SplineSet
102 -390 m 1
 102 1184 l 1
 469 1184 l 1
 469 1100 l 1
 560 1176 657 1209 736 1206 c 0
 894 1199 983 1091 983 885 c 2
 983 310 l 2
 983 98 884 -22 735 -22 c 0
 649 -22 554 19 469 90 c 1
 469 -390 l 1
 102 -390 l 1
538 206 m 0
 586 205 616 241 616 286 c 2
 616 918 l 2
 616 963 585 1003 538 997 c 0
 519 994 495 981 469 963 c 1
 469 230 l 1
 493 216 518 206 538 206 c 0
EndSplineSet
EndChar

StartChar: paragraph
Encoding: 182 182 379
Width: 1086
VWidth: 0
Flags: W
HStem: 1443 215<583 754>
VStem: 73 510<1133.35 1442.07> 379 204<-196 989> 754 189<-196 1443>
LayerCount: 2
UndoRedoHistory
Layer: 1
Undoes
EndUndoes
Redoes
EndRedoes
EndUndoRedoHistory
Fore
SplineSet
379 -196 m 1xb0
 379 989 l 1xb0
 197 995 73 1114 73 1322 c 0xd0
 73 1587 273 1658 479 1658 c 2
 943 1658 l 1
 943 -196 l 1
 754 -196 l 1
 754 1443 l 1
 583 1443 l 1
 583 -196 l 1
 379 -196 l 1xb0
EndSplineSet
EndChar

StartChar: parenleft
Encoding: 40 40 380
Width: 716
VWidth: 0
Flags: W
VStem: 121 336<89.9266 1240.78>
LayerCount: 2
UndoRedoHistory
Layer: 1
Undoes
EndUndoes
Redoes
EndRedoes
EndUndoRedoHistory
Fore
SplineSet
641 -356 m 1
 172 -360 121 117 121 651 c 0
 121 1234 172 1681 641 1678 c 1
 641 1419 l 1
 497 1419 457 1190 457 651 c 0
 457 104 508 -97 641 -97 c 1
 641 -356 l 1
EndSplineSet
EndChar

StartChar: parenright
Encoding: 41 41 381
Width: 713
VWidth: 0
Flags: W
VStem: 259 336<89.9266 1241>
LayerCount: 2
UndoRedoHistory
Layer: 1
Undoes
EndUndoes
Redoes
EndRedoes
EndUndoRedoHistory
Fore
SplineSet
75 -356 m 1
 75 -97 l 1
 208 -97 259 104 259 651 c 0
 259 1190 219 1419 75 1419 c 1
 75 1678 l 1
 544 1681 595 1235 595 651 c 0
 595 117 544 -360 75 -356 c 1
EndSplineSet
EndChar

StartChar: partialdiff
Encoding: 491 8706 382
Width: 1110
VWidth: 0
Flags: W
HStem: -26 227<434.477 597.094> 897 218<328.5 600.514> 1423 255<386 512.076>
VStem: 73 355<215.587 427.084> 693 350<853.69 1274.48>
CounterMasks: 1 e0
LayerCount: 2
UndoRedoHistory
Layer: 1
Undoes
EndUndoes
Redoes
EndRedoes
EndUndoRedoHistory
Fore
SplineSet
501 -26 m 0
 302 -26 73 50 73 275 c 0
 73 285 73 296 74 306 c 2
 116 790 l 1
 130 991 247 1115 410 1115 c 0
 504 1115 621 1076 687 1014 c 1
 691 1043 693 1072 693 1099 c 0
 693 1277 611 1397 302 1423 c 1
 386 1678 l 1
 637 1678 1043 1595 1043 1055 c 0
 1043 1023 997 482 997 482 c 1
 953 -22 728 -26 501 -26 c 0
507 201 m 0
 534 201 602 206 609 285 c 2
 667 874 l 1
 636 889 606 897 580 897 c 0
 520 897 486 860 480 803 c 2
 428 284 l 2
 428 283 428 276 428 276 c 2
 428 235 457 201 507 201 c 0
EndSplineSet
EndChar

StartChar: percent
Encoding: 37 37 383
Width: 2127
VWidth: 0
Flags: W
HStem: 0 227<1536.62 1703.13> 698 227<420.923 587.434> 731 229<1526.9 1712.2> 1429 229<411.259 596.545>
VStem: 98 296<952.391 1405.94> 615 299<951.969 1407.25> 1214 295<253.969 707.53> 1730 300<253.969 709.252>
LayerCount: 2
UndoRedoHistory
Layer: 1
Undoes
EndUndoes
Redoes
EndRedoes
EndUndoRedoHistory
Fore
SplineSet
504 925 m 0xdf
 610 925 615 1005 615 1173 c 2
 615 1199 l 2
 615 1367 615 1429 504 1429 c 0
 395 1429 394 1368 394 1200 c 2
 394 1172 l 2
 394 1005 398 925 504 925 c 0xdf
504 698 m 0
 205 698 98 844 98 1155 c 2
 98 1213 l 2
 98 1531 201 1658 504 1658 c 0
 806 1658 914 1532 914 1215 c 2
 914 1154 l 2
 914 844 804 698 504 698 c 0
1620 227 m 0
 1726 227 1730 307 1730 474 c 2
 1730 500 l 2
 1730 669 1731 731 1620 731 c 0xbf
 1511 731 1509 670 1509 502 c 2
 1509 474 l 2
 1509 307 1514 227 1620 227 c 0
1620 0 m 0
 1320 0 1214 146 1214 456 c 2
 1214 515 l 2
 1214 832 1316 960 1620 960 c 0
 1921 960 2030 834 2030 517 c 2
 2030 456 l 2
 2030 146 1919 0 1620 0 c 0
706 0 m 1
 1231 1658 l 1
 1416 1658 l 1
 890 0 l 1
 706 0 l 1
EndSplineSet
EndChar

StartChar: period
Encoding: 46 46 384
Width: 533
VWidth: 0
Flags: W
HStem: 0 336<93 437>
VStem: 93 344<0 336>
LayerCount: 2
UndoRedoHistory
Layer: 1
Undoes
EndUndoes
Redoes
EndRedoes
EndUndoRedoHistory
Fore
SplineSet
93 0 m 1
 93 336 l 1
 437 336 l 1
 437 0 l 1
 93 0 l 1
EndSplineSet
EndChar

StartChar: periodcentered
Encoding: 183 183 385
Width: 491
VWidth: 0
Flags: W
HStem: 603 334<75 417>
VStem: 75 342<603 937>
LayerCount: 2
UndoRedoHistory
Layer: 1
Undoes
EndUndoes
Redoes
EndRedoes
EndUndoRedoHistory
Fore
SplineSet
75 603 m 1
 75 937 l 1
 417 937 l 1
 417 603 l 1
 75 603 l 1
EndSplineSet
EndChar

StartChar: perthousand
Encoding: 492 8240 386
Width: 3054
VWidth: 0
Flags: W
HStem: 0 227<1536.62 1703.13 2454.92 2621.43> 698 227<420.923 587.434> 731 229<1526.9 1712.2 2445.26 2630.54> 1429 229<411.259 596.545>
VStem: 98 296<952.391 1405.94> 615 299<951.969 1407.25> 1214 295<253.969 707.53> 1730 300<253.969 709.252> 2132 296<253.969 707.53> 2649 299<253.969 709.252>
CounterMasks: 1 03c0
LayerCount: 2
UndoRedoHistory
Layer: 1
Undoes
EndUndoes
Redoes
EndRedoes
EndUndoRedoHistory
Fore
SplineSet
504 925 m 0xdfc0
 610 925 615 1005 615 1173 c 2
 615 1199 l 2
 615 1367 615 1429 504 1429 c 0
 395 1429 394 1368 394 1200 c 2
 394 1172 l 2
 394 1005 398 925 504 925 c 0xdfc0
504 698 m 0
 205 698 98 844 98 1155 c 2
 98 1213 l 2
 98 1531 201 1658 504 1658 c 0
 806 1658 914 1532 914 1215 c 2
 914 1154 l 2
 914 844 804 698 504 698 c 0
1620 227 m 0
 1726 227 1730 307 1730 474 c 2
 1730 500 l 2
 1730 669 1731 731 1620 731 c 0xbfc0
 1511 731 1509 670 1509 502 c 2
 1509 474 l 2
 1509 307 1514 227 1620 227 c 0
1620 0 m 0
 1320 0 1214 146 1214 456 c 2
 1214 515 l 2
 1214 832 1316 960 1620 960 c 0
 1921 960 2030 834 2030 517 c 2
 2030 456 l 2
 2030 146 1919 0 1620 0 c 0
2538 227 m 0
 2644 227 2649 307 2649 474 c 2
 2649 500 l 2
 2649 669 2649 731 2538 731 c 0
 2429 731 2428 670 2428 502 c 2
 2428 474 l 2
 2428 307 2432 227 2538 227 c 0
2538 0 m 0
 2239 0 2132 146 2132 456 c 2
 2132 515 l 2
 2132 832 2235 960 2538 960 c 0
 2840 960 2948 834 2948 517 c 2
 2948 456 l 2
 2948 146 2838 0 2538 0 c 0
706 0 m 1
 1231 1658 l 1
 1416 1658 l 1
 890 0 l 1
 706 0 l 1
EndSplineSet
EndChar

StartChar: pi
Encoding: 493 960 387
Width: 1244
VWidth: 0
Flags: W
HStem: 0 21G<165 532 963.5 1161.11> 950 234<41 165 532 686 1053 1185>
VStem: 165 367<0 950> 686 367<250.428 950>
LayerCount: 2
UndoRedoHistory
Layer: 1
Undoes
EndUndoes
Redoes
EndRedoes
EndUndoRedoHistory
Fore
SplineSet
532 950 m 1
 532 0 l 1
 165 0 l 1
 165 950 l 1
 41 950 l 1
 41 1184 l 1
 1185 1184 l 1
 1185 950 l 1
 1053 950 l 1
 1053 440 l 2
 1053 265 1053 232 1174 232 c 1
 1160 -20 l 1
 767 -20 686 81 686 288 c 2
 686 950 l 1
 532 950 l 1
EndSplineSet
EndChar

StartChar: plus
Encoding: 43 43 388
Width: 939
VWidth: 0
Flags: W
HStem: 748 203<54 351 587 885>
VStem: 351 236<422 748 951 1266>
LayerCount: 2
UndoRedoHistory
Layer: 1
Undoes
EndUndoes
Redoes
EndRedoes
EndUndoRedoHistory
Fore
SplineSet
351 422 m 1
 351 748 l 1
 54 748 l 1
 54 951 l 1
 351 951 l 1
 351 1266 l 1
 587 1266 l 1
 587 951 l 1
 885 951 l 1
 885 748 l 1
 587 748 l 1
 587 422 l 1
 351 422 l 1
EndSplineSet
EndChar

StartChar: plusminus
Encoding: 177 177 389
Width: 1056
VWidth: 0
Flags: W
HStem: 0 212<137 919> 677 203<137 418 639 919>
VStem: 418 221<385 677 880 1172>
LayerCount: 2
UndoRedoHistory
Layer: 1
Undoes
EndUndoes
Redoes
EndRedoes
EndUndoRedoHistory
Fore
SplineSet
418 385 m 1
 418 677 l 1
 137 677 l 1
 137 880 l 1
 418 880 l 1
 418 1172 l 1
 639 1172 l 1
 639 880 l 1
 919 880 l 1
 919 677 l 1
 639 677 l 1
 639 385 l 1
 418 385 l 1
137 0 m 1
 137 212 l 1
 919 212 l 1
 919 0 l 1
 137 0 l 1
EndSplineSet
EndChar

StartChar: product
Encoding: 494 8719 390
Width: 1283
VWidth: 0
Flags: W
HStem: -390 21G<99 453 830 1184> 1367 291<453 830>
VStem: 99 354<-390 1367> 830 354<-390 1367>
LayerCount: 2
UndoRedoHistory
Layer: 1
Undoes
EndUndoes
Redoes
EndRedoes
EndUndoRedoHistory
Fore
SplineSet
99 -390 m 1
 99 1658 l 1
 1184 1658 l 1
 1184 -390 l 1
 830 -390 l 1
 830 1367 l 1
 453 1367 l 1
 453 -390 l 1
 99 -390 l 1
EndSplineSet
EndChar

StartChar: q
Encoding: 113 113 391
Width: 1070
VWidth: 0
Flags: W
HStem: -390 21G<604 970> -22 225<267.5 536> 987 219<271.5 541.5> 1164 20G<604 970>
VStem: 84 369<216.869 980.02> 604 366<-390 104 210.878 982.495 1103 1184>
LayerCount: 2
UndoRedoHistory
Layer: 1
Undoes
EndUndoes
Redoes
EndRedoes
EndUndoRedoHistory
Fore
SplineSet
604 -390 m 1xdc
 604 104 l 1
 523 24 436 -22 352 -22 c 0
 183 -22 84 98 84 309 c 2
 84 874 l 2
 84 1077 189 1206 354 1206 c 0xec
 446 1206 531 1167 604 1103 c 1
 604 1184 l 1
 970 1184 l 1
 970 -390 l 1
 604 -390 l 1xdc
526 203 m 0
 546 203 573 215 604 234 c 1
 604 964 l 1
 577 978 553 987 530 987 c 0
 480 987 453 948 453 892 c 2
 453 287 l 2
 453 242 481 203 526 203 c 0
EndSplineSet
EndChar

StartChar: question
Encoding: 63 63 392
Width: 990
VWidth: 0
Flags: W
HStem: 0 344<236 591> 1372 315<409.281 543.769>
VStem: 54 340<1168.36 1364.11> 236 355<0 344 442 677.733>
LayerCount: 2
UndoRedoHistory
Layer: 1
Undoes
EndUndoes
Redoes
EndRedoes
EndUndoRedoHistory
Fore
SplineSet
245 442 m 1xe0
 245 709 l 1
 422 850 577 1066 558 1284 c 0
 551 1366 505 1372 468 1372 c 0
 431 1372 393 1340 394 1282 c 0
 394 1224 403 1217 419 1166 c 1
 90 1088 l 1
 67 1179 54 1215 54 1297 c 0
 52 1505 144 1687 458 1687 c 0
 760 1687 922 1531 922 1268 c 0
 922 1031 768 751 580 643 c 1
 580 442 l 1
 245 442 l 1xe0
236 0 m 1xd0
 236 344 l 1
 591 344 l 1
 591 0 l 1
 236 0 l 1xd0
EndSplineSet
EndChar

StartChar: questiondown
Encoding: 191 191 393
Width: 1068
VWidth: 0
Flags: W
HStem: -364 315<465.231 599.719> 979 344<417 773>
VStem: 417 356<645.266 881 979 1323> 615 340<-41.8192 154.641>
LayerCount: 2
UndoRedoHistory
Layer: 1
Undoes
EndUndoes
Redoes
EndRedoes
EndUndoRedoHistory
Fore
SplineSet
551 -364 m 0xd0
 249 -364 87 -208 87 54 c 0
 87 292 241 572 429 680 c 1
 429 881 l 1
 764 881 l 1
 764 613 l 1
 587 473 432 257 451 39 c 0
 458 -43 504 -49 541 -49 c 0
 578 -49 616 -17 615 41 c 0
 615 98 606 106 590 157 c 1
 919 235 l 1
 942 144 955 108 955 25 c 0
 957 -182 865 -364 551 -364 c 0xd0
417 979 m 1xe0
 417 1323 l 1
 773 1323 l 1
 773 979 l 1
 417 979 l 1xe0
EndSplineSet
EndChar

StartChar: quotedbl
Encoding: 34 34 394
Width: 710
VWidth: 0
Flags: W
HStem: 1011 647<19 181 423 585>
VStem: 19 162<1011 1074.1> 423 162<1011 1073.67>
LayerCount: 2
UndoRedoHistory
Layer: 1
Undoes
EndUndoes
Redoes
EndRedoes
EndUndoRedoHistory
Fore
SplineSet
19 1011 m 1
 19 1658 l 1
 328 1658 l 1
 181 1011 l 1
 19 1011 l 1
423 1011 m 1
 423 1658 l 1
 733 1658 l 1
 585 1011 l 1
 423 1011 l 1
EndSplineSet
EndChar

StartChar: quotedblbase
Encoding: 495 8222 395
Width: 974
VWidth: 0
Flags: W
HStem: -206 112<169 245.15 610 686.15> 76 311<125 277 566 718>
VStem: 125 306<77.8091 387> 277 154<-67.377 76> 566 306<77.8091 387> 718 154<-67.377 76>
LayerCount: 2
UndoRedoHistory
Layer: 1
Undoes
EndUndoes
Redoes
EndRedoes
EndUndoRedoHistory
Fore
SplineSet
169 -206 m 1xe0
 149 -94 l 1
 262 -94 277 -15 277 76 c 1xd0
 125 76 l 1
 125 387 l 1
 435 387 l 1
 435 302 434 219 431 153 c 0
 420 -90 370 -206 169 -206 c 1xe0
610 -206 m 1
 590 -94 l 1
 703 -94 718 -15 718 76 c 1xc4
 566 76 l 1
 566 387 l 1
 876 387 l 1
 876 302 875 219 872 153 c 0xc8
 861 -90 811 -206 610 -206 c 1
EndSplineSet
EndChar

StartChar: quotedblleft
Encoding: 496 8220 396
Width: 970
VWidth: 0
Flags: W
HStem: 1068 311<279 431 720 872> 1549 112<310.85 387 751.85 828>
VStem: 121 310<1068 1377.19> 125 154<1379 1522.38> 562 310<1068 1377.19> 566 154<1379 1522.38>
LayerCount: 2
UndoRedoHistory
Layer: 1
Undoes
EndUndoes
Redoes
EndRedoes
EndUndoRedoHistory
Fore
SplineSet
121 1068 m 1xe0
 121 1153 122 1236 125 1302 c 0
 136 1545 186 1661 387 1661 c 1
 407 1549 l 1
 294 1549 279 1470 279 1379 c 1xd0
 431 1379 l 1
 431 1068 l 1
 121 1068 l 1xe0
562 1068 m 1xc8
 562 1153 563 1236 566 1302 c 0
 577 1545 627 1661 828 1661 c 1
 848 1549 l 1
 735 1549 720 1470 720 1379 c 1xc4
 872 1379 l 1
 872 1068 l 1
 562 1068 l 1xc8
EndSplineSet
EndChar

StartChar: quotedblright
Encoding: 497 8221 397
Width: 970
VWidth: 0
Flags: W
HStem: 1065 112<169 244.788 607 688.967> 1347 311<125 277 564 716>
VStem: 125 306<1348.81 1658> 277 154<1203.62 1347> 564 306<1348.81 1658> 716 154<1203.62 1347>
LayerCount: 2
UndoRedoHistory
Layer: 1
Undoes
EndUndoes
Redoes
EndRedoes
EndUndoRedoHistory
Fore
SplineSet
169 1065 m 1xe0
 149 1177 l 1
 262 1177 277 1256 277 1347 c 1xd0
 125 1347 l 1
 125 1658 l 1
 435 1658 l 1
 435 1573 434 1490 431 1424 c 0
 419 1181 369 1065 169 1065 c 1xe0
607 1065 m 1
 588 1177 l 1
 701 1177 716 1256 716 1347 c 1xc4
 564 1347 l 1
 564 1658 l 1
 873 1658 l 1
 873 1573 873 1490 870 1424 c 0xc8
 858 1181 808 1065 607 1065 c 1
EndSplineSet
EndChar

StartChar: quoteleft
Encoding: 498 8216 398
Width: 578
VWidth: 0
Flags: W
HStem: 1068 311<279 431> 1549 112<310.85 387>
VStem: 121 310<1068 1377.19> 125 154<1379 1522.38>
LayerCount: 2
UndoRedoHistory
Layer: 1
Undoes
EndUndoes
Redoes
EndRedoes
EndUndoRedoHistory
Fore
SplineSet
121 1068 m 1xe0
 121 1153 122 1236 125 1302 c 0
 136 1545 186 1661 387 1661 c 1
 407 1549 l 1
 294 1549 279 1470 279 1379 c 1xd0
 431 1379 l 1
 431 1068 l 1
 121 1068 l 1xe0
EndSplineSet
EndChar

StartChar: quoteright
Encoding: 499 8217 399
Width: 480
VWidth: 0
Flags: W
HStem: 1065 112<170 245.788> 1347 311<126 278>
VStem: 126 306<1349.07 1658> 278 154<1204.06 1347>
LayerCount: 2
UndoRedoHistory
Layer: 1
Undoes
EndUndoes
Redoes
EndRedoes
EndUndoRedoHistory
Fore
SplineSet
170 1065 m 1xe0
 150 1177 l 1
 263 1177 278 1256 278 1347 c 1xd0
 126 1347 l 1
 126 1658 l 1
 436 1658 l 1
 436 1573 435 1490 432 1424 c 0
 420 1182 370 1065 170 1065 c 1xe0
EndSplineSet
EndChar

StartChar: quotesinglbase
Encoding: 500 8218 400
Width: 572
VWidth: 0
Flags: W
HStem: -208 112<175 251.15> 74 311<131 283>
VStem: 131 306<75.8091 385> 283 154<-69.377 74>
LayerCount: 2
UndoRedoHistory
Layer: 1
Undoes
EndUndoes
Redoes
EndRedoes
EndUndoRedoHistory
Fore
SplineSet
175 -208 m 1xe0
 155 -96 l 1
 268 -96 283 -17 283 74 c 1xd0
 131 74 l 1
 131 385 l 1
 441 385 l 1
 441 300 440 217 437 151 c 0
 426 -92 376 -208 175 -208 c 1xe0
EndSplineSet
EndChar

StartChar: quotesingle
Encoding: 39 39 401
Width: 376
VWidth: 0
Flags: W
HStem: 1011 647<60 234>
VStem: 60 174<1011 1088.29>
LayerCount: 2
UndoRedoHistory
Layer: 1
Undoes
EndUndoes
Redoes
EndRedoes
EndUndoRedoHistory
Fore
SplineSet
60 1011 m 1
 60 1658 l 1
 354 1658 l 1
 234 1011 l 1
 60 1011 l 1
EndSplineSet
EndChar

StartChar: r
Encoding: 114 114 402
Width: 790
VWidth: 0
Flags: W
HStem: 0 21G<106 473> 1164 20G<106 473 658 710>
VStem: 106 367<0 779.658 978 1184>
LayerCount: 2
UndoRedoHistory
Layer: 1
Undoes
EndUndoes
Redoes
EndRedoes
EndUndoRedoHistory
Fore
SplineSet
106 0 m 1
 106 1184 l 1
 473 1184 l 1
 473 978 l 1
 538 1112 614 1198 702 1198 c 0
 718 1198 735 1195 753 1188 c 1
 753 882 l 1
 743 883 733 883 723 882 c 0
 617 875 539 822 473 727 c 1
 473 0 l 1
 106 0 l 1
EndSplineSet
EndChar

StartChar: radical
Encoding: 502 8730 404
Width: 1226
VWidth: 0
Flags: W
HStem: 0 21G<493.526 941.197> 950 234<67 332> 1638 20G<834.089 1203>
LayerCount: 2
UndoRedoHistory
Layer: 1
Undoes
EndUndoes
Redoes
EndRedoes
EndUndoRedoHistory
Fore
SplineSet
497 0 m 1
 332 950 l 1
 67 950 l 1
 67 1184 l 1
 629 1184 l 1
 655 1009 l 1
 720 489 l 1
 774 1009 l 1
 836 1658 l 1
 1203 1658 l 1
 938 0 l 1
 497 0 l 1
EndSplineSet
EndChar

StartChar: registered
Encoding: 174 174 407
Width: 1824
VWidth: 0
Flags: W
HStem: -28 109<658.755 1165.24> 1176 167<850 989.311> 1571 113<658.755 1164.91>
VStem: 98 123<546.329 1099.92> 558 292<318 757 902 1176> 1020 268<927.789 1154.77> 1600 126<545.917 1099.92>
CounterMasks: 1 1a
LayerCount: 2
UndoRedoHistory
Layer: 1
Undoes
EndUndoes
Redoes
EndRedoes
EndUndoRedoHistory
Fore
SplineSet
558 318 m 1
 558 1343 l 1
 906 1343 l 2
 1139 1343 1288 1292 1288 1071 c 0
 1288 944 1264 868 1148 813 c 1
 1324 318 l 1
 1016 318 l 1
 887 757 l 1
 850 757 l 1
 850 318 l 1
 558 318 l 1
850 902 m 1
 889 902 l 2
 990 902 1020 967 1020 1044 c 0
 1020 1123 986 1176 904 1176 c 2
 850 1176 l 1
 850 902 l 1
912 81 m 0
 1390 81 1600 454 1600 827 c 0
 1600 1202 1390 1571 912 1571 c 0
 430 1571 221 1202 221 827 c 0
 221 454 430 81 912 81 c 0
913 -28 m 0
 333 -28 98 417 98 828 c 0
 98 1241 333 1684 913 1684 c 0
 1491 1684 1726 1241 1726 828 c 0
 1726 415 1493 -28 913 -28 c 0
EndSplineSet
EndChar

StartChar: ring
Encoding: 505 730 408
Width: 24
VWidth: 0
Flags: W
HStem: 1236 119<-78.0742 83.7582> 1565 119<-78.0742 83.5579>
VStem: -238 143<1371.11 1548.98> 99 147<1370.46 1549.44>
LayerCount: 2
UndoRedoHistory
Layer: 1
Undoes
EndUndoes
Redoes
EndRedoes
EndUndoRedoHistory
Fore
SplineSet
3 1236 m 0
 -124 1236 -238 1310 -238 1460 c 0
 -238 1611 -124 1684 3 1684 c 0
 130 1684 246 1610 246 1460 c 0
 246 1310 131 1236 3 1236 c 0
3 1355 m 0
 68 1355 99 1406 99 1460 c 0
 99 1513 68 1565 3 1565 c 0
 -62 1565 -95 1513 -95 1460 c 0
 -95 1406 -62 1355 3 1355 c 0
EndSplineSet
EndChar

StartChar: s
Encoding: 115 115 409
Width: 897
VWidth: 0
Flags: W
HStem: -22 21G<373 571> 1186 20G<347 544.5>
VStem: 519 347<230.943 352.967>
AnchorPoint: "cedilla" 440 0 basechar 0
LayerCount: 2
UndoRedoHistory
Layer: 1
Undoes
EndUndoes
Redoes
EndRedoes
EndUndoRedoHistory
Fore
SplineSet
473 -22 m 0
 273 -22 140 51 36 264 c 1
 279 379 l 1
 329 285 398 213 463 221 c 0
 494 225 520 250 519 287 c 0
 518 335 414 407 336 473 c 2
 284 517 l 2
 179 606 62 741 64 868 c 1
 64 1064 248 1206 446 1206 c 0
 643 1206 785 1104 850 904 c 1
 614 790 l 1
 590 855 530 947 468 952 c 0
 420 956 397 926 396 899 c 1
 391 841 499 765 592 685 c 2
 638 646 l 2
 745 554 866 457 866 305 c 0
 866 96 669 -22 473 -22 c 0
EndSplineSet
EndChar

StartChar: section
Encoding: 167 167 415
Width: 996
VWidth: 0
Flags: W
HStem: -13 249<409.087 592.121> 1485 243<419.885 605.772>
VStem: 607 280<252.796 425.359 777.679 912.462>
LayerCount: 2
UndoRedoHistory
Layer: 1
Undoes
EndUndoes
Redoes
EndRedoes
EndUndoRedoHistory
Fore
SplineSet
489 -13 m 0
 269 -13 149 137 100 331 c 1
 338 390 l 1
 360 329 419 236 497 236 c 0
 566 236 606 273 607 325 c 1
 607 404 554 449 423 529 c 2
 258 630 l 2
 164 688 93 771 103 892 c 1
 114 1008 197 1091 281 1115 c 1
 195 1161 97 1269 89 1380 c 0
 74 1602 271 1728 491 1728 c 0
 711 1728 846 1578 894 1376 c 1
 663 1324 l 1
 641 1406 600 1488 504 1485 c 0
 445 1483 402 1456 402 1398 c 0
 402 1306 502 1264 553 1233 c 2
 674 1159 l 2
 785 1092 876 999 875 872 c 0
 875 762 805 700 708 635 c 1
 826 540 887 456 887 334 c 0
 887 137 746 -13 489 -13 c 0
536 761 m 1
 570 781 610 803 610 844 c 0
 610 861 599 893 550 922 c 2
 455 977 l 1
 399 964 368 934 368 896 c 0
 368 876 376 847 403 833 c 2
 536 761 l 1
EndSplineSet
EndChar

StartChar: semicolon
Encoding: 59 59 416
Width: 624
VWidth: 0
Flags: W
HStem: -283 110<196 278.903> 5 337<143 334> 849 334<141 481>
VStem: 141 340<8.4768 342 849 1183> 334 149<-117.93 5>
LayerCount: 2
UndoRedoHistory
Layer: 1
Undoes
EndUndoes
Redoes
EndRedoes
EndUndoRedoHistory
Fore
SplineSet
196 -283 m 1xe8
 180 -173 l 1
 253 -157 334 -123 334 5 c 1
 143 5 l 1
 143 342 l 1
 484 342 l 1
 483 58 l 2
 483 -161 388 -282 196 -283 c 1xe8
141 849 m 1xf0
 141 1183 l 1
 481 1183 l 1
 481 849 l 1
 141 849 l 1xf0
EndSplineSet
EndChar

StartChar: seven
Encoding: 55 55 417
Width: 1113
VWidth: 0
Flags: W
HStem: 0 21G<237 612.44> 1374 284<162 617>
LayerCount: 2
UndoRedoHistory
Layer: 1
Undoes
EndUndoes
Redoes
EndRedoes
EndUndoRedoHistory
Fore
SplineSet
237 0 m 1
 617 1374 l 1
 162 1374 l 1
 162 1658 l 1
 984 1658 l 1
 984 1386 l 1
 607 0 l 1
 237 0 l 1
EndSplineSet
EndChar

StartChar: six
Encoding: 54 54 418
Width: 1123
VWidth: 0
Flags: W
HStem: -27 273<513.263 642.372> 760 288<527.15 643.558> 1403 281<505.736 638.174>
VStem: 103 385<262.972 747.576 963 1390.59> 662 379<257.481 748.76>
CounterMasks: 1 e0
LayerCount: 2
UndoRedoHistory
Layer: 1
Undoes
EndUndoes
Redoes
EndRedoes
EndUndoRedoHistory
Fore
SplineSet
576 -27 m 0
 239 -27 103 199 103 519 c 2
 103 1130 l 2
 103 1455 190 1684 574 1684 c 0
 908 1684 1002 1532 1002 1252 c 0
 1002 1251 1002 1221 1002 1221 c 1
 651 1221 l 1
 651 1348 653 1403 577 1403 c 0
 490 1403 488 1342 488 1080 c 2
 488 963 l 1
 519 1018 598 1045 681 1048 c 0
 943 1057 1041 838 1041 571 c 0
 1041 211 940 -27 576 -27 c 0
582 246 m 0
 658 246 662 328 662 520 c 0
 662 669 660 760 578 760 c 0
 536 760 499 727 488 706 c 1
 488 430 l 2
 488 333 504 246 582 246 c 0
EndSplineSet
EndChar

StartChar: slash
Encoding: 47 47 419
Width: 897
VWidth: 0
Flags: W
HStem: 0 21G<97 279.345> 1638 20G<616.655 799>
LayerCount: 2
UndoRedoHistory
Layer: 1
Undoes
EndUndoes
Redoes
EndRedoes
EndUndoRedoHistory
Fore
SplineSet
97 0 m 1
 623 1658 l 1
 799 1658 l 1
 273 0 l 1
 97 0 l 1
EndSplineSet
EndChar

StartChar: sterling
Encoding: 163 163 421
Width: 1058
VWidth: 0
Flags: W
HStem: 0 316<529 984> 638 286<55 178 529 772> 1664 20G<406 763.5>
VStem: 178 351<316 638 926 1361.77> 667 330<1162 1363.57>
CounterMasks: 1 e0
LayerCount: 2
UndoRedoHistory
Layer: 1
Undoes
EndUndoes
Redoes
EndRedoes
EndUndoRedoHistory
Fore
SplineSet
55 0 m 1
 55 211 l 1
 178 268 l 1
 178 638 l 1
 55 638 l 1
 55 926 l 1
 178 926 l 1
 178 1112 l 2
 178 1432 218 1684 594 1684 c 0
 933 1684 996 1481 997 1206 c 1
 997 1162 l 1
 667 1162 l 1
 667 1286 666 1375 597 1375 c 0
 529 1375 529 1283 529 1105 c 2
 529 924 l 1
 772 924 l 1
 772 638 l 1
 529 638 l 1
 529 316 l 1
 984 316 l 1
 984 0 l 1
 55 0 l 1
EndSplineSet
EndChar

StartChar: summation
Encoding: 511 8721 422
Width: 892
VWidth: 0
Flags: W
HStem: -390 271<472 858> 1386 272<480 854>
LayerCount: 2
UndoRedoHistory
Layer: 1
Undoes
EndUndoes
Redoes
EndRedoes
EndUndoRedoHistory
Fore
SplineSet
55 -390 m 1
 292 683 l 1
 55 1658 l 1
 854 1658 l 1
 854 1386 l 1
 480 1386 l 1
 696 691 l 1
 472 -119 l 1
 858 -119 l 1
 858 -390 l 1
 55 -390 l 1
EndSplineSet
EndChar

StartChar: t
Encoding: 116 116 423
Width: 751
VWidth: 0
Flags: W
HStem: -13 302<512.035 697.228> 945 239<19 130 501 664>
VStem: 130 371<310.898 945 1184 1549>
AnchorPoint: "cedilla" 420 0 basechar 0
LayerCount: 2
UndoRedoHistory
Layer: 1
Undoes
EndUndoes
Redoes
EndRedoes
EndUndoRedoHistory
Fore
SplineSet
443 -13 m 0
 155 -1 130 228 130 461 c 2
 130 945 l 1
 19 945 l 1
 19 1184 l 1
 130 1184 l 1
 130 1549 l 1
 501 1549 l 1
 501 1184 l 1
 664 1184 l 1
 664 945 l 1
 501 945 l 1
 501 377 l 2
 501 316 552 292 606 289 c 0
 653 286 697 298 699 299 c 1
 699 6 l 1
 662 -1 573 -19 443 -13 c 0
EndSplineSet
EndChar

StartChar: tbar
Encoding: 512 359 424
Width: 751
VWidth: 0
Flags: W
HStem: -13 302<512.035 697.228> 599 153<19 130 501 659> 945 239<19 130 501 664>
VStem: 130 371<310.898 599 752 945 1184 1549>
LayerCount: 2
UndoRedoHistory
Layer: 1
Undoes
EndUndoes
Redoes
EndRedoes
EndUndoRedoHistory
Fore
SplineSet
443 -13 m 0
 155 -1 130 228 130 461 c 2
 130 599 l 1
 19 599 l 1
 19 752 l 1
 130 752 l 1
 130 945 l 1
 19 945 l 1
 19 1184 l 1
 130 1184 l 1
 130 1549 l 1
 501 1549 l 1
 501 1184 l 1
 664 1184 l 1
 664 945 l 1
 501 945 l 1
 501 752 l 1
 659 752 l 1
 659 599 l 1
 501 599 l 1
 501 377 l 2
 501 316 552 292 606 289 c 0
 653 286 697 298 699 299 c 1
 699 6 l 1
 662 -1 573 -19 443 -13 c 0
EndSplineSet
Colour: ffff00
EndChar

StartChar: thorn
Encoding: 254 254 427
Width: 1039
VWidth: 0
Flags: W
HStem: -390 21G<89 456> -22 21G<676 793> 1638 20G<89 456>
VStem: 89 367<-390 89 209.902 989.484 1100 1658> 599 368<217.47 990.519>
LayerCount: 2
UndoRedoHistory
Layer: 1
Undoes
EndUndoes
Redoes
EndRedoes
EndUndoRedoHistory
Fore
SplineSet
89 -390 m 1
 89 1658 l 1
 456 1658 l 1
 456 1100 l 1
 546 1176 641 1209 720 1206 c 0
 878 1199 967 1091 967 885 c 2
 967 310 l 2
 967 98 867 -22 719 -22 c 0
 633 -22 541 19 456 89 c 1
 456 -390 l 1
 89 -390 l 1
525 206 m 0
 572 205 599 241 599 286 c 2
 599 918 l 2
 599 963 572 1003 524 997 c 0
 506 994 482 982 456 963 c 1
 456 230 l 1
 480 216 504 206 525 206 c 0
EndSplineSet
EndChar

StartChar: three
Encoding: 51 51 428
Width: 1121
VWidth: 0
Flags: W
HStem: -34 319<508.271 653.615> 720 240<439 626.71> 1386 301<504.8 643.002>
VStem: 105 378<304.263 573 1099 1370.58> 672 372<300.946 677.732 1011.85 1365.23>
CounterMasks: 1 e0
LayerCount: 2
UndoRedoHistory
Layer: 1
Undoes
EndUndoes
Redoes
EndRedoes
EndUndoRedoHistory
Fore
SplineSet
577 -34 m 0
 206 -34 105 190 105 514 c 2
 105 573 l 1
 483 573 l 1
 483 572 483 508 483 508 c 2
 483 337 507 285 583 285 c 0
 657 285 672 342 672 481 c 0
 672 643 646 719 509 720 c 0
 508 720 439 720 439 720 c 1
 439 960 l 1
 502 960 l 2
 644 960 672 1039 672 1202 c 0
 672 1325 647 1386 572 1386 c 0
 498 1386 483 1311 483 1201 c 0
 483 1200 483 1099 483 1099 c 1
 105 1099 l 1
 105 1212 l 2
 105 1521 285 1687 571 1687 c 0
 863 1687 1044 1535 1044 1231 c 0
 1044 1038 956 893 851 866 c 1
 956 825 1044 733 1044 493 c 0
 1044 187 919 -34 577 -34 c 0
EndSplineSet
EndChar

StartChar: threequarters
Encoding: 190 190 429
Width: 1320
VWidth: 0
Flags: W
HStem: 0 21G<151 319.181 959 1126> 226 164<812 959 1126 1229> 903 144<246.788 354.123> 1216 122<232 353.604> 1515 144<243.424 357.728>
VStem: 97 142<1052.07 1128 1433 1508.02> 360 158<1048.73 1207.2 1347.86 1512.97> 959 167<0 226 390 644>
CounterMasks: 1 38
LayerCount: 2
UndoRedoHistory
Layer: 1
Undoes
EndUndoes
Redoes
EndRedoes
EndUndoRedoHistory
Fore
SplineSet
316 903 m 0
 176 903 97 994 97 1128 c 1
 239 1128 l 1
 239 1072 269 1047 306 1047 c 0
 344 1047 360 1080 360 1127 c 0
 360 1206 326 1216 232 1216 c 1
 232 1338 l 1
 325 1338 363 1355 363 1427 c 0
 363 1485 346 1515 304 1515 c 0
 253 1515 239 1482 239 1433 c 1
 97 1433 l 1
 97 1595 184 1659 321 1659 c 0
 457 1659 513 1583 513 1447 c 0
 513 1361 454 1299 402 1291 c 1
 485 1274 518 1219 518 1130 c 0
 518 985 451 903 316 903 c 0
959 0 m 1
 959 226 l 1
 693 226 l 1
 693 379 l 1
 975 849 l 1
 1126 849 l 1
 1126 390 l 1
 1229 390 l 1
 1229 226 l 1
 1126 226 l 1
 1126 0 l 1
 959 0 l 1
151 0 m 1
 994 1658 l 1
 1153 1658 l 1
 309 0 l 1
 151 0 l 1
812 390 m 1
 959 390 l 1
 959 644 l 1
 812 390 l 1
EndSplineSet
EndChar

StartChar: uni00B3
Encoding: 179 179 430
Width: 878
VWidth: 0
Flags: W
HStem: 602 229<402.633 511.59> 1142 171<353 498.62> 1621 217<399.89 509.012>
VStem: 115 271<836.984 1041 1412 1610> 522 268<835.123 1123.53 1333.62 1614.48>
CounterMasks: 1 e0
LayerCount: 2
UndoRedoHistory
Layer: 1
Undoes
EndUndoes
Redoes
EndRedoes
EndUndoRedoHistory
Fore
SplineSet
455 602 m 0
 187 602 115 764 115 997 c 2
 115 1041 l 1
 386 1041 l 1
 386 992 l 2
 386 869 405 831 459 831 c 0
 510 831 522 872 522 971 c 0
 522 1087 503 1142 405 1142 c 2
 353 1142 l 1
 353 1313 l 1
 400 1313 l 2
 502 1313 522 1372 522 1489 c 0
 522 1577 504 1621 451 1621 c 0
 399 1621 386 1568 386 1489 c 2
 386 1412 l 1
 115 1412 l 1
 115 1496 l 2
 115 1718 245 1838 450 1838 c 0
 660 1838 790 1729 790 1509 c 0
 790 1371 726 1266 652 1247 c 1
 726 1218 790 1153 790 980 c 0
 790 760 700 602 455 602 c 0
EndSplineSet
EndChar

StartChar: tilde
Encoding: 515 732 431
Width: 868
VWidth: 0
Flags: W
HStem: 1350 320
VStem: 116 170<1360 1438.94> 618 154<1586.55 1658>
LayerCount: 2
UndoRedoHistory
Layer: 1
Undoes
EndUndoes
Redoes
EndRedoes
EndUndoRedoHistory
Fore
SplineSet
647 1350 m 0
 548 1340 417 1444 345 1444 c 0
 296 1444 286 1396 286 1360 c 1
 116 1360 l 1
 115 1538 142 1657 283 1670 c 1
 411 1683 505 1593 555 1585 c 0
 605 1576 618 1618 618 1658 c 1
 772 1658 l 1
 773 1522 761 1361 647 1350 c 0
EndSplineSet
EndChar

StartChar: tildecomb
Encoding: 516 771 432
Width: 868
VWidth: 0
Flags: W
HStem: 1350 320
VStem: 116 170<1360 1438.94> 618 154<1586.55 1658>
LayerCount: 2
UndoRedoHistory
Layer: 1
Undoes
EndUndoes
Redoes
EndRedoes
EndUndoRedoHistory
Fore
SplineSet
647 1350 m 0
 548 1340 417 1444 345 1444 c 0
 296 1444 286 1396 286 1360 c 1
 116 1360 l 1
 115 1538 142 1657 283 1670 c 1
 411 1683 505 1593 555 1585 c 0
 605 1576 618 1618 618 1658 c 1
 772 1658 l 1
 773 1522 761 1361 647 1350 c 0
EndSplineSet
EndChar

StartChar: trademark
Encoding: 517 8482 433
Width: 1860
VWidth: 0
Flags: W
HStem: 1451 207<121 323 563 759>
VStem: 323 240<623 1451> 832 205<623 1204> 1489 207<623 1199>
CounterMasks: 1 70
LayerCount: 2
UndoRedoHistory
Layer: 1
Undoes
EndUndoes
Redoes
EndRedoes
EndUndoRedoHistory
Fore
SplineSet
832 623 m 1
 832 1658 l 1
 1099 1658 l 1
 1261 1049 l 1
 1421 1658 l 1
 1696 1658 l 1
 1696 623 l 1
 1489 623 l 1
 1489 1199 l 1
 1321 623 l 1
 1209 623 l 1
 1037 1204 l 1
 1037 623 l 1
 832 623 l 1
323 623 m 1
 323 1451 l 1
 121 1451 l 1
 121 1658 l 1
 759 1658 l 1
 759 1451 l 1
 563 1451 l 1
 563 623 l 1
 323 623 l 1
EndSplineSet
EndChar

StartChar: two
Encoding: 50 50 434
Width: 1122
VWidth: 0
Flags: W
HStem: 0 292<541 1013>
VStem: 113 364<1068 1332.96> 688 373<1085.99 1347.85>
LayerCount: 2
UndoRedoHistory
Layer: 1
Undoes
EndUndoes
Redoes
EndRedoes
EndUndoRedoHistory
Fore
SplineSet
122 0 m 1
 122 267 l 1
 507 864 l 2
 578 974 688 1118 688 1250 c 0
 688 1343 632 1378 569 1362 c 0
 512 1348 477 1302 477 1156 c 2
 477 1068 l 1
 113 1068 l 1
 113 1164 l 2
 113 1456 250 1687 594 1687 c 0
 902 1687 1061 1521 1061 1244 c 0
 1061 1034 935 871 822 707 c 1
 541 292 l 1
 1013 292 l 1
 1013 0 l 1
 122 0 l 1
EndSplineSet
EndChar

StartChar: uni00B2
Encoding: 178 178 435
Width: 879
VWidth: 0
Flags: W
HStem: 624 215<444 767>
VStem: 126 266<1393 1591.34> 536 265<1387.55 1600.57>
LayerCount: 2
UndoRedoHistory
Layer: 1
Undoes
EndUndoes
Redoes
EndRedoes
EndUndoRedoHistory
Fore
SplineSet
132 624 m 1
 132 838 l 1
 407 1259 l 2
 458 1337 536 1427 536 1523 c 0
 536 1590 496 1615 451 1604 c 1
 403 1591 392 1544 392 1393 c 1
 126 1393 l 1
 126 1461 l 2
 126 1671 223 1838 463 1838 c 0
 674 1838 801 1718 801 1519 c 0
 801 1368 708 1253 631 1132 c 2
 444 839 l 1
 767 839 l 1
 767 624 l 1
 132 624 l 1
EndSplineSet
EndChar

StartChar: u
Encoding: 117 117 436
Width: 1069
VWidth: 0
Flags: W
HStem: -1 1G<249.5 371 600 966> 1164 20G<91 457 600 966>
VStem: 91 366<225.958 1184> 600 366<0 107 227 1184>
AnchorPoint: "ogonek" 780 0 basechar 0
LayerCount: 2
UndoRedoHistory
Layer: 1
Undoes
EndUndoes
Redoes
EndRedoes
EndUndoRedoHistory
Fore
SplineSet
322 -22 m 0
 177 -22 91 94 91 265 c 2
 91 1184 l 1
 457 1184 l 1
 457 294 l 2
 457 245 475 218 519 220 c 0
 540 221 568 229 600 246 c 1
 600 1184 l 1
 966 1184 l 1
 966 0 l 1
 600 0 l 1
 600 107 l 1
 512 24 420 -22 322 -22 c 0
EndSplineSet
EndChar

StartChar: underscore
Encoding: 95 95 444
Width: 767
VWidth: 0
Flags: W
HStem: -360 240<0 767>
LayerCount: 2
UndoRedoHistory
Layer: 1
Undoes
EndUndoes
Redoes
EndRedoes
EndUndoRedoHistory
Fore
SplineSet
0 -360 m 1
 0 -120 l 1
 767 -120 l 1
 767 -360 l 1
 0 -360 l 1
EndSplineSet
EndChar

StartChar: uni00AD
Encoding: 173 173 446
Width: 778
VWidth: 0
Flags: W
HStem: 408 227<137 661>
VStem: 137 524<408 635>
LayerCount: 2
UndoRedoHistory
Layer: 1
Undoes
EndUndoes
Redoes
EndRedoes
EndUndoRedoHistory
Fore
SplineSet
137 408 m 1
 137 635 l 1
 661 635 l 1
 661 408 l 1
 137 408 l 1
EndSplineSet
EndChar

StartChar: uni0237
Encoding: 561 567 487
Width: 575
VWidth: 0
Flags: W
HStem: -390 284<-16.0774 283> 1164 20G<123 489>
VStem: 123 366<-98.6426 1184>
AnchorPoint: "circumflexcomb" 305 1337 basechar 0
LayerCount: 2
UndoRedoHistory
Layer: 1
Undoes
EndUndoes
Redoes
EndRedoes
EndUndoRedoHistory
Fore
SplineSet
-18 -360 m 1
 -18 -97 l 1
 2 -101 22 -106 41 -106 c 0
 86 -106 123 -86 123 -19 c 2
 123 1184 l 1
 489 1184 l 1
 489 -64 l 2
 489 -252 387 -390 179 -390 c 0
 108 -390 44 -377 -18 -360 c 1
EndSplineSet
EndChar

StartChar: uni0302
Encoding: 563 770 489
Width: 869
VWidth: 0
Flags: W
HStem: 1255 403<298 367 525 586>
AnchorPoint: "circumflexcomb" 438 1225 mark 0
LayerCount: 2
UndoRedoHistory
Layer: 1
Undoes
EndUndoes
Redoes
EndRedoes
EndUndoRedoHistory
Fore
SplineSet
100 1255 m 1
 298 1658 l 1
 586 1658 l 1
 792 1255 l 1
 525 1255 l 1
 445 1499 l 1
 367 1255 l 1
 100 1255 l 1
EndSplineSet
EndChar

StartChar: uni0304
Encoding: 564 772 490
Width: 291
VWidth: 0
Flags: W
HStem: 1496 162<-154 459>
VStem: -154 613<1496 1658>
LayerCount: 2
UndoRedoHistory
Layer: 1
Undoes
EndUndoes
Redoes
EndRedoes
EndUndoRedoHistory
Fore
SplineSet
-154 1496 m 1
 -154 1658 l 1
 459 1658 l 1
 459 1496 l 1
 -154 1496 l 1
EndSplineSet
EndChar

StartChar: uni0306
Encoding: 565 774 491
Width: 652
VWidth: 0
Flags: W
HStem: 1420 138<182.329 432.045> 1638 20G<18 167 448 596>
VStem: 18 149<1576.99 1658> 448 148<1577.36 1658>
LayerCount: 2
UndoRedoHistory
Layer: 1
Undoes
EndUndoes
Redoes
EndRedoes
EndUndoRedoHistory
Fore
SplineSet
307 1420 m 0
 138 1420 18 1499 18 1658 c 1
 167 1658 l 1
 167 1590 207 1558 307 1558 c 0
 407 1558 448 1591 448 1658 c 1
 596 1658 l 1
 596 1500 476 1420 307 1420 c 0
EndSplineSet
EndChar

StartChar: uni0307
Encoding: 566 775 492
Width: 498
VWidth: 0
Flags: W
HStem: 1322 336<76 420>
VStem: 76 344<1322 1658>
LayerCount: 2
UndoRedoHistory
Layer: 1
Undoes
EndUndoes
Redoes
EndRedoes
EndUndoRedoHistory
Fore
SplineSet
76 1322 m 1
 76 1658 l 1
 420 1658 l 1
 420 1322 l 1
 76 1322 l 1
EndSplineSet
EndChar

StartChar: uni0308
Encoding: 567 776 493
Width: 884
VWidth: 0
Flags: W
HStem: 1334 324<67 346 537 817>
VStem: 67 279<1334 1658> 537 280<1334 1658>
LayerCount: 2
UndoRedoHistory
Layer: 1
Undoes
EndUndoes
Redoes
EndRedoes
EndUndoRedoHistory
Fore
SplineSet
67 1334 m 1
 67 1658 l 1
 346 1658 l 1
 346 1334 l 1
 67 1334 l 1
537 1334 m 1
 537 1658 l 1
 817 1658 l 1
 817 1334 l 1
 537 1334 l 1
EndSplineSet
EndChar

StartChar: uni030A
Encoding: 568 778 494
Width: 24
VWidth: 0
Flags: W
HStem: 1236 119<-78.0742 83.7582> 1565 119<-78.0742 83.5579>
VStem: -238 143<1371.11 1548.98> 99 147<1370.46 1549.44>
LayerCount: 2
UndoRedoHistory
Layer: 1
Undoes
EndUndoes
Redoes
EndRedoes
EndUndoRedoHistory
Fore
SplineSet
3 1236 m 0
 -124 1236 -238 1310 -238 1460 c 0
 -238 1611 -124 1684 3 1684 c 0
 130 1684 246 1610 246 1460 c 0
 246 1310 131 1236 3 1236 c 0
3 1355 m 0
 68 1355 99 1406 99 1460 c 0
 99 1513 68 1565 3 1565 c 0
 -62 1565 -95 1513 -95 1460 c 0
 -95 1406 -62 1355 3 1355 c 0
EndSplineSet
EndChar

StartChar: uni030C
Encoding: 569 780 495
Width: 833
VWidth: 0
Flags: W
HStem: 1270 388<241 320 517 590>
LayerCount: 2
UndoRedoHistory
Layer: 1
Undoes
EndUndoes
Redoes
EndRedoes
EndUndoRedoHistory
Fore
SplineSet
241 1270 m 1
 64 1658 l 1
 320 1658 l 1
 416 1440 l 1
 517 1658 l 1
 774 1658 l 1
 590 1270 l 1
 241 1270 l 1
EndSplineSet
EndChar

StartChar: uni030F
Encoding: 570 783 496
Width: 994
VWidth: 0
Flags: W
HStem: 1266 444<408 475 793 857>
LayerCount: 2
UndoRedoHistory
Layer: 1
Undoes
EndUndoes
Redoes
EndRedoes
EndUndoRedoHistory
Fore
SplineSet
286 1266 m 1
 89 1710 l 1
 353 1710 l 1
 488 1266 l 1
 286 1266 l 1
671 1266 m 1
 475 1710 l 1
 735 1710 l 1
 869 1266 l 1
 671 1266 l 1
EndSplineSet
EndChar

StartChar: uni0311
Encoding: 571 785 497
Width: 652
VWidth: 0
Flags: W
HStem: 1520 138<208.462 405.692>
VStem: 47 149<1420 1506.22> 417 150<1420 1506.61>
LayerCount: 2
UndoRedoHistory
Layer: 1
Undoes
EndUndoes
Redoes
EndRedoes
EndUndoRedoHistory
Fore
SplineSet
47 1420 m 1
 47 1577 158 1658 307 1658 c 0
 456 1658 567 1578 567 1420 c 1
 417 1420 l 1
 417 1487 388 1520 307 1520 c 0
 226 1520 196 1486 196 1420 c 1
 47 1420 l 1
EndSplineSet
EndChar

StartChar: uni0326
Encoding: 572 806 498
Width: 451
VWidth: 0
Flags: W
HStem: -693 111<101 183.442> -404 337<46 237>
VStem: 46 341<-400.524 -67> 237 150<-526.961 -404>
LayerCount: 2
UndoRedoHistory
Layer: 1
Undoes
EndUndoes
Redoes
EndRedoes
EndUndoRedoHistory
Fore
SplineSet
101 -693 m 1xe0
 84 -582 l 1
 156 -566 237 -532 237 -404 c 1xd0
 46 -404 l 1
 46 -67 l 1
 387 -67 l 1
 387 -351 l 1
 386 -570 292 -691 101 -693 c 1xe0
EndSplineSet
EndChar

StartChar: afii10050
Encoding: 577 1168 503
Width: 993
VWidth: 0
Flags: W
HStem: 0 21G<130 535> 1358 300<535 700>
VStem: 130 405<0 1358> 700 235<1658 1941>
LayerCount: 2
UndoRedoHistory
Layer: 1
Undoes
EndUndoes
Redoes
EndRedoes
EndUndoRedoHistory
Fore
SplineSet
130 0 m 1
 130 1658 l 1
 700 1658 l 1
 700 1941 l 1
 935 1941 l 1
 935 1358 l 1
 535 1358 l 1
 535 0 l 1
 130 0 l 1
EndSplineSet
EndChar

StartChar: uni04AE
Encoding: 578 1198 504
Width: 1014
VWidth: 0
Flags: W
HStem: 0 21G<315 704> 1638 20G<12 399.811 630.914 1002>
VStem: 315 389<0 755.806>
LayerCount: 2
UndoRedoHistory
Layer: 1
Undoes
EndUndoes
Redoes
EndRedoes
EndUndoRedoHistory
Fore
SplineSet
315 0 m 1
 315 711 l 1
 12 1658 l 1
 395 1658 l 1
 484 1288 l 1
 526 1083 l 1
 559 1286 l 1
 635 1658 l 1
 1002 1658 l 1
 704 711 l 1
 704 0 l 1
 315 0 l 1
EndSplineSet
EndChar

StartChar: uni04AF
Encoding: 579 1199 505
Width: 951
VWidth: 0
Flags: W
HStem: -361 21G<328 646> 1164 20G<0 326.709 603.532 929>
VStem: 328 318<-361 190>
LayerCount: 2
UndoRedoHistory
Layer: 1
Undoes
EndUndoes
Redoes
EndRedoes
EndUndoRedoHistory
Fore
SplineSet
328 -361 m 1
 328 190 l 1
 0 1184 l 1
 321 1184 l 1
 482 620 l 1
 608 1184 l 1
 929 1184 l 1
 646 192 l 1
 646 -361 l 1
 328 -361 l 1
EndSplineSet
EndChar

StartChar: uni04B0
Encoding: 580 1200 506
Width: 1043
VWidth: 0
Flags: W
HStem: 0 21G<333 722> 574 246<43 298.125 756.3 1020> 1638 20G<30 417.811 648.914 1020>
VStem: 333 389<0 574>
LayerCount: 2
UndoRedoHistory
Layer: 1
Undoes
EndUndoes
Redoes
EndRedoes
EndUndoRedoHistory
Fore
SplineSet
43 574 m 1
 43 820 l 1
 298.124604013 820 l 1
 30 1658 l 1
 413 1658 l 1
 502 1288 l 1
 544 1083 l 1
 577 1286 l 1
 653 1658 l 1
 1020 1658 l 1
 756.299894403 820 l 1
 1020 820 l 1
 1020 574 l 1
 722 574 l 1
 722 0 l 1
 333 0 l 1
 333 574 l 1
 43 574 l 1
EndSplineSet
Colour: ffff00
EndChar

StartChar: uni04B1
Encoding: 581 1201 507
Width: 951
VWidth: 0
Flags: W
HStem: -361 21G<328 646> -1 204<86 323.71 649.138 879> 1164 20G<0 326.709 603.532 929>
VStem: 328 318<-361 -1>
LayerCount: 2
UndoRedoHistory
Layer: 1
Undoes
EndUndoes
Redoes
EndRedoes
EndUndoRedoHistory
Fore
SplineSet
86 -1 m 1
 86 203 l 1
 323.710261569 203 l 1
 0 1184 l 1
 321 1184 l 1
 482 620 l 1
 608 1184 l 1
 929 1184 l 1
 649.138104839 203 l 1
 879 203 l 1
 879 -1 l 1
 646 -1 l 1
 646 -361 l 1
 328 -361 l 1
 328 -1 l 1
 86 -1 l 1
EndSplineSet
Colour: ffff00
EndChar

StartChar: uni04E8
Encoding: 582 1256 508
Width: 1227
VWidth: 0
Flags: W
HStem: -26 281<538.564 685.856> 743 246<517 710> 1403 281<538.564 685.856>
VStem: 100 417<278.675 743 989 1379.76> 710 417<278.675 743 989 1379.76>
LayerCount: 2
UndoRedoHistory
Layer: 1
Undoes
EndUndoes
Redoes
EndRedoes
EndUndoRedoHistory
Fore
SplineSet
612 -26 m 0
 227 -26 100 177 100 523 c 2
 100 1135 l 2
 100 1482 227 1684 612 1684 c 0
 997 1684 1127 1482 1127 1135 c 2
 1127 523 l 2
 1127 177 997 -26 612 -26 c 0
612 255 m 0
 705 255 710 350 710 420 c 2
 710 743 l 1
 517 743 l 1
 517 420 l 2
 517 350 518 255 612 255 c 0
517 989 m 1
 710 989 l 1
 710 1239 l 2
 710 1310 705 1403 612 1403 c 0
 518 1403 517 1310 517 1239 c 2
 517 989 l 1
EndSplineSet
Colour: ffff00
EndChar

StartChar: uni04E9
Encoding: 583 1257 509
Width: 1025
VWidth: 0
Flags: W
HStem: -22 240<450.323 572.16> 511 166<439 586> 966 240<450.323 572.16>
VStem: 78 361<222.794 511 677 961.206> 586 361<232.128 511 677 960.824>
LayerCount: 2
UndoRedoHistory
Layer: 1
Undoes
EndUndoes
Redoes
EndRedoes
EndUndoRedoHistory
Fore
SplineSet
510 -22 m 0
 261 -22 78 97 78 352 c 2
 78 832 l 2
 78 1087 261 1206 510 1206 c 0
 759 1206 947 1087 947 832 c 2
 947 352 l 2
 947 96 759 -22 510 -22 c 0
511 218 m 0
 561 218 586 248 586 326 c 2
 586 511 l 1
 439 511 l 1
 439 326 l 2
 439 250 464 218 511 218 c 0
439 677 m 1
 586 677 l 1
 586 858 l 2
 586 936 561 966 511 966 c 0
 464 966 439 934 439 858 c 2
 439 677 l 1
EndSplineSet
Colour: ffff00
EndChar

StartChar: uni2074
Encoding: 598 8308 524
Width: 999
VWidth: 0
Flags: W
HStem: 700 167<266 461 795 926> 1638 20G<442.692 795>
VStem: 461 334<409 700 867 1287>
LayerCount: 2
UndoRedoHistory
Layer: 1
Undoes
EndUndoes
Redoes
EndRedoes
EndUndoRedoHistory
Fore
SplineSet
461 409 m 1
 461 700 l 1
 82 700 l 1
 82 863 l 1
 452 1658 l 1
 795 1658 l 1
 795 867 l 1
 926 867 l 1
 926 700 l 1
 795 700 l 1
 795 409 l 1
 461 409 l 1
266 867 m 1
 461 867 l 1
 461 1287 l 1
 266 867 l 1
EndSplineSet
EndChar

StartChar: uni2215
Encoding: 599 8725 525
Width: 896
VWidth: 0
Flags: W
HStem: 0 21G<97 279.345> 1638 20G<616.655 799>
LayerCount: 2
UndoRedoHistory
Layer: 1
Undoes
EndUndoes
Redoes
EndRedoes
EndUndoRedoHistory
Fore
SplineSet
97 0 m 1
 623 1658 l 1
 799 1658 l 1
 273 0 l 1
 97 0 l 1
EndSplineSet
EndChar

StartChar: uni2219
Encoding: 600 8729 526
Width: 491
VWidth: 0
Flags: W
HStem: 603 334<75 417>
VStem: 75 342<603 937>
LayerCount: 2
UndoRedoHistory
Layer: 1
Undoes
EndUndoes
Redoes
EndRedoes
EndUndoRedoHistory
Fore
SplineSet
75 603 m 1
 75 937 l 1
 417 937 l 1
 417 603 l 1
 75 603 l 1
EndSplineSet
EndChar

StartChar: uniFB01
Encoding: 602 64257 528
Width: 1165
VWidth: 0
Flags: W
HStem: 0 21G<131 498 704 1066> 941 243<27 131 498 704> 1370 257<502.939 606> 1390 235<725 1066>
VStem: 131 367<0 941 1184 1361.9> 704 362<0 941> 725 341<1390 1625>
LayerCount: 2
UndoRedoHistory
Layer: 1
Undoes
EndUndoes
Redoes
EndRedoes
EndUndoRedoHistory
Fore
SplineSet
131 0 m 1xec
 131 941 l 1
 27 941 l 1
 27 1184 l 1
 131 1184 l 1
 131 1280 l 2
 131 1483 201 1627 457 1627 c 0
 501 1627 551 1623 606 1614 c 1
 606 1366 l 1
 594 1368 581 1370 568 1370 c 0
 530 1370 498 1354 498 1285 c 2
 498 1184 l 1
 1066 1184 l 1xea
 1066 0 l 1
 704 0 l 1
 704 941 l 1
 498 941 l 1
 498 0 l 1
 131 0 l 1xec
725 1390 m 1xda
 725 1625 l 1
 1066 1625 l 1
 1066 1390 l 1
 725 1390 l 1xda
EndSplineSet
EndChar

StartChar: uniFB02
Encoding: 603 64258 529
Width: 1151
VWidth: 0
Flags: W
HStem: 0 21G<121 488 702 1069> 929 255<17 121 488 597> 1415 242<514.433 698.556>
VStem: 121 367<0 929 1184 1389.22> 702 367<0 1414.98>
LayerCount: 2
UndoRedoHistory
Layer: 1
Undoes
EndUndoes
Redoes
EndRedoes
EndUndoRedoHistory
Fore
SplineSet
488 929 m 1
 488 0 l 1
 121 0 l 1
 121 929 l 1
 17 929 l 1
 17 1184 l 1
 121 1184 l 1
 121 1280 l 2
 121 1458 156 1657 620 1657 c 0
 739 1657 886 1644 1069 1614 c 1
 1069 0 l 1
 702 0 l 1
 702 1413 l 1
 682 1415 663 1415 646 1415 c 0
 499 1415 488 1352 488 1276 c 2
 488 1184 l 1
 597 1184 l 1
 597 929 l 1
 488 929 l 1
EndSplineSet
EndChar

StartChar: uniFB03
Encoding: 604 64259 530
Width: 1686
VWidth: 0
Flags: W
HStem: 0 21G<121 488 680 1046 1233 1600> 944 240<17 121 488 680 1046 1233> 1350 274<490.34 601 1048.71 1165> 1390 235<1270 1600>
VStem: 121 367<0 944 1184 1344.8> 680 366<0 944 1184 1344.8> 1233 367<0 944> 1270 330<1390 1625>
LayerCount: 2
UndoRedoHistory
Layer: 1
Undoes
EndUndoes
Redoes
EndRedoes
EndUndoRedoHistory
Fore
SplineSet
1270 1390 m 1xdd
 1270 1625 l 1
 1600 1625 l 1
 1600 1390 l 1
 1270 1390 l 1xdd
121 0 m 1
 121 944 l 1
 17 944 l 1
 17 1184 l 1
 121 1184 l 1
 121 1280 l 2
 121 1485 159 1624 466 1624 c 0
 515 1624 539 1621 601 1614 c 1
 601 1342 l 1
 582 1345 562 1350 544 1350 c 0
 511 1350 488 1335 488 1278 c 2
 488 1184 l 1
 680 1184 l 1
 680 1280 l 2
 680 1485 718 1624 1024 1624 c 0
 1073 1624 1103 1621 1165 1614 c 1
 1165 1342 l 1
 1146 1345 1125 1350 1106 1350 c 0
 1073 1350 1046 1335 1046 1278 c 2
 1046 1184 l 1
 1600 1184 l 1xed
 1600 0 l 1
 1233 0 l 1
 1233 944 l 1xee
 1046 944 l 1
 1046 0 l 1
 680 0 l 1
 680 944 l 1
 488 944 l 1
 488 0 l 1
 121 0 l 1
EndSplineSet
EndChar

StartChar: v
Encoding: 118 118 535
Width: 884
VWidth: 0
Flags: W
HStem: 0 21G<251.98 629.206> 1164 20G<18 368.407 522.851 874>
LayerCount: 2
UndoRedoHistory
Layer: 1
Undoes
EndUndoes
Redoes
EndRedoes
EndUndoRedoHistory
Fore
SplineSet
256 0 m 1
 18 1184 l 1
 366 1184 l 1
 450 486 l 1
 525 1184 l 1
 874 1184 l 1
 625 0 l 1
 256 0 l 1
EndSplineSet
EndChar

StartChar: w
Encoding: 119 119 536
Width: 1229
VWidth: 0
Flags: W
HStem: 0 21G<206.128 520.279 699.273 1019.92> 1164 20G<39 348.439 493.561 759.824 905.107 1190>
VStem: 496 262<1066.44 1184>
LayerCount: 2
UndoRedoHistory
Layer: 1
Undoes
EndUndoes
Redoes
EndRedoes
EndUndoRedoHistory
Fore
SplineSet
209 0 m 1
 39 1184 l 1
 346 1184 l 1
 421 569 l 1
 496 1184 l 1
 758 1184 l 1
 816 548 l 1
 908 1184 l 1
 1190 1184 l 1
 1017 0 l 1
 702 0 l 1
 618 616 l 1
 517 0 l 1
 209 0 l 1
EndSplineSet
EndChar

StartChar: x
Encoding: 120 120 541
Width: 939
VWidth: 0
Flags: W
HStem: 0 21G<22 326.997 551.155 935> 1164 20G<38 418.88 617.278 893>
LayerCount: 2
UndoRedoHistory
Layer: 1
Undoes
EndUndoes
Redoes
EndRedoes
EndUndoRedoHistory
Fore
SplineSet
22 0 m 1
 270 658 l 1
 38 1184 l 1
 410 1184 l 1
 525 925 l 1
 625 1184 l 1
 893 1184 l 1
 669 601 l 1
 935 0 l 1
 560 0 l 1
 426 303 l 1
 320 0 l 1
 22 0 l 1
EndSplineSet
EndChar

StartChar: y
Encoding: 121 121 542
Width: 951
VWidth: 0
Flags: W
HStem: -358 249<150 313.041> 1164 20G<0 345.696 584.805 929>
LayerCount: 2
UndoRedoHistory
Layer: 1
Undoes
EndUndoes
Redoes
EndRedoes
EndUndoRedoHistory
Fore
SplineSet
150 -358 m 1
 150 -109 l 1
 264 -109 335 -99 334 -4 c 0
 334 28 301 152 290 190 c 0
 286 203 3 1171 0 1184 c 1
 341 1184 l 1
 488 558 l 1
 588 1184 l 1
 929 1184 l 1
 651 -65 l 2
 599 -300 400 -361 203 -358 c 1
 150 -358 l 1
EndSplineSet
EndChar

StartChar: yen
Encoding: 165 165 546
Width: 984
VWidth: 0
Flags: W
HStem: 0 21G<298 688> 247 170<132 298 688 856> 556 178<132 251 735 856> 1638 20G<-4 383.422 615.259 985>
VStem: 298 390<0 247 417 556>
CounterMasks: 1 70
LayerCount: 2
UndoRedoHistory
Layer: 1
Undoes
EndUndoes
Redoes
EndRedoes
EndUndoRedoHistory
Fore
SplineSet
298 0 m 1
 298 247 l 1
 132 247 l 1
 132 417 l 1
 298 417 l 1
 298 556 l 1
 132 556 l 1
 132 734 l 1
 251 734 l 1
 -4 1658 l 1
 379 1658 l 1
 509 1070 l 1
 619 1658 l 1
 985 1658 l 1
 735 734 l 1
 856 734 l 1
 856 556 l 1
 688 556 l 1
 688 417 l 1
 856 417 l 1
 856 247 l 1
 688 247 l 1
 688 0 l 1
 298 0 l 1
EndSplineSet
EndChar

StartChar: z
Encoding: 122 122 548
Width: 829
VWidth: 0
Flags: W
HStem: 0 267<451 776> 918 266<94 390>
LayerCount: 2
UndoRedoHistory
Layer: 1
Undoes
EndUndoes
Redoes
EndRedoes
EndUndoRedoHistory
Fore
SplineSet
73 0 m 1
 73 235 l 1
 390 918 l 1
 94 918 l 1
 94 1184 l 1
 767 1184 l 1
 767 956 l 1
 451 267 l 1
 776 267 l 1
 776 0 l 1
 73 0 l 1
EndSplineSet
EndChar

StartChar: zero
Encoding: 48 48 552
Width: 1123
VWidth: 0
Flags: W
HStem: -34 341<503.985 621.427> 1343 343<501.085 624.012>
VStem: 98 388<323.181 1329.26> 640 386<324.427 1328.93>
LayerCount: 2
UndoRedoHistory
Layer: 1
Undoes
EndUndoes
Redoes
EndRedoes
EndUndoRedoHistory
Fore
SplineSet
563 307 m 0
 641 307 640 411 640 448 c 2
 640 1188 l 2
 640 1229 649 1343 563 1343 c 0
 474 1343 486 1229 486 1188 c 2
 486 448 l 2
 486 412 485 307 563 307 c 0
563 -34 m 0
 258 -34 98 155 98 436 c 2
 98 1201 l 2
 98 1490 244 1686 563 1686 c 0
 879 1686 1026 1489 1026 1201 c 2
 1026 436 l 2
 1026 159 861 -34 563 -34 c 0
EndSplineSet
EndChar

StartChar: afii00208
Encoding: 618 8213 553
Width: 4096
VWidth: 0
Flags: W
HStem: 635 227<139 3958>
LayerCount: 2
UndoRedoHistory
Layer: 1
Undoes
EndUndoes
Redoes
EndRedoes
EndUndoRedoHistory
Fore
SplineSet
139 635 m 1
 139 862 l 1
 3958 862 l 1
 3958 635 l 1
 139 635 l 1
EndSplineSet
EndChar

